G04 #@! TF.GenerationSoftware,KiCad,Pcbnew,9.0.0*
G04 #@! TF.CreationDate,2025-03-23T13:33:11-05:00*
G04 #@! TF.ProjectId,CDR3585,43445233-3538-4352-9e6b-696361645f70,v1.0.1*
G04 #@! TF.SameCoordinates,Original*
G04 #@! TF.FileFunction,Copper,L2,Bot*
G04 #@! TF.FilePolarity,Positive*
%FSLAX46Y46*%
G04 Gerber Fmt 4.6, Leading zero omitted, Abs format (unit mm)*
G04 Created by KiCad (PCBNEW 9.0.0) date 2025-03-23 13:33:11*
%MOMM*%
%LPD*%
G01*
G04 APERTURE LIST*
G04 #@! TA.AperFunction,ComponentPad*
%ADD10C,1.400000*%
G04 #@! TD*
G04 #@! TA.AperFunction,ComponentPad*
%ADD11O,1.400000X1.400000*%
G04 #@! TD*
G04 #@! TA.AperFunction,ComponentPad*
%ADD12C,1.700000*%
G04 #@! TD*
G04 #@! TA.AperFunction,ComponentPad*
%ADD13O,1.700000X1.700000*%
G04 #@! TD*
G04 #@! TA.AperFunction,ComponentPad*
%ADD14R,1.700000X1.700000*%
G04 #@! TD*
G04 #@! TA.AperFunction,ComponentPad*
%ADD15R,1.800000X1.800000*%
G04 #@! TD*
G04 #@! TA.AperFunction,ComponentPad*
%ADD16C,1.800000*%
G04 #@! TD*
G04 #@! TA.AperFunction,ComponentPad*
%ADD17R,1.600000X2.400000*%
G04 #@! TD*
G04 #@! TA.AperFunction,ComponentPad*
%ADD18O,1.600000X2.400000*%
G04 #@! TD*
G04 #@! TA.AperFunction,ComponentPad*
%ADD19C,2.000000*%
G04 #@! TD*
G04 #@! TA.AperFunction,WasherPad*
%ADD20C,2.700000*%
G04 #@! TD*
G04 #@! TA.AperFunction,ComponentPad*
%ADD21R,1.750000X1.750000*%
G04 #@! TD*
G04 #@! TA.AperFunction,ComponentPad*
%ADD22C,1.750000*%
G04 #@! TD*
G04 #@! TA.AperFunction,ComponentPad*
%ADD23C,1.778000*%
G04 #@! TD*
G04 #@! TA.AperFunction,ComponentPad*
%ADD24C,2.286000*%
G04 #@! TD*
G04 #@! TA.AperFunction,ComponentPad*
%ADD25C,1.600000*%
G04 #@! TD*
G04 #@! TA.AperFunction,ComponentPad*
%ADD26O,1.600000X1.600000*%
G04 #@! TD*
G04 #@! TA.AperFunction,ComponentPad*
%ADD27C,4.318000*%
G04 #@! TD*
G04 #@! TA.AperFunction,ComponentPad*
%ADD28R,2.032000X2.032000*%
G04 #@! TD*
G04 #@! TA.AperFunction,ComponentPad*
%ADD29C,2.032000*%
G04 #@! TD*
G04 #@! TA.AperFunction,ComponentPad*
%ADD30R,1.778000X1.778000*%
G04 #@! TD*
G04 #@! TA.AperFunction,ComponentPad*
%ADD31R,1.520000X1.520000*%
G04 #@! TD*
G04 #@! TA.AperFunction,ComponentPad*
%ADD32C,1.520000*%
G04 #@! TD*
G04 #@! TA.AperFunction,ViaPad*
%ADD33C,0.800000*%
G04 #@! TD*
G04 #@! TA.AperFunction,Conductor*
%ADD34C,0.200000*%
G04 #@! TD*
G04 APERTURE END LIST*
D10*
X80880000Y-83500000D03*
D11*
X88500000Y-83500000D03*
D10*
X68500000Y-62500000D03*
D11*
X76120000Y-62500000D03*
D12*
X82460000Y-123500000D03*
D13*
X85000000Y-123500000D03*
D10*
X68500000Y-42500000D03*
D11*
X76120000Y-42500000D03*
D14*
X137920000Y-42500000D03*
D13*
X140460000Y-42500000D03*
X143000000Y-42500000D03*
D10*
X68380000Y-66500000D03*
D11*
X76000000Y-66500000D03*
D15*
X85000000Y-63500000D03*
D16*
X85000000Y-66040000D03*
D10*
X68500000Y-50500000D03*
D11*
X76120000Y-50500000D03*
D17*
X65300000Y-84175000D03*
D18*
X62760000Y-84175000D03*
X60220000Y-84175000D03*
X57680000Y-84175000D03*
X57680000Y-91795000D03*
X60220000Y-91795000D03*
X62760000Y-91795000D03*
X65300000Y-91795000D03*
D10*
X56000000Y-72310000D03*
D11*
X56000000Y-64690000D03*
D19*
X128750000Y-78750000D03*
X135250000Y-78750000D03*
X128750000Y-83250000D03*
X135250000Y-83250000D03*
X139250000Y-69750000D03*
X145750000Y-69750000D03*
X139250000Y-74250000D03*
X145750000Y-74250000D03*
D10*
X68380000Y-70500000D03*
D11*
X76000000Y-70500000D03*
D20*
X94505000Y-124200000D03*
X95705000Y-115800000D03*
X118505000Y-115800000D03*
X119705000Y-124200000D03*
D21*
X90605000Y-118250000D03*
D22*
X90605000Y-121750000D03*
X123605000Y-118250000D03*
D10*
X68380000Y-58500000D03*
D11*
X76000000Y-58500000D03*
D10*
X99000000Y-47310000D03*
D11*
X99000000Y-39690000D03*
D12*
X60960000Y-43000000D03*
D13*
X63500000Y-43000000D03*
D23*
X61792500Y-113310000D03*
X61792500Y-110770000D03*
X61792500Y-108230000D03*
X69412500Y-120930000D03*
X71952500Y-120930000D03*
X74492500Y-120930000D03*
D24*
X64332500Y-104102500D03*
X64332500Y-117437500D03*
X79572500Y-117437500D03*
X79572500Y-104102500D03*
D23*
X68777500Y-103150000D03*
X75127500Y-103150000D03*
X68777500Y-98070000D03*
X75127500Y-98070000D03*
D12*
X130725000Y-118500000D03*
D13*
X133265000Y-118500000D03*
D25*
X56943800Y-49065000D03*
D26*
X62023800Y-49065000D03*
D15*
X85000000Y-50460000D03*
D16*
X85000000Y-53000000D03*
D27*
X161290000Y-41910000D03*
X161290000Y-123190000D03*
X54610000Y-41910000D03*
D10*
X136500000Y-56000000D03*
D11*
X128880000Y-56000000D03*
D27*
X54610000Y-123190000D03*
D28*
X71500000Y-90000000D03*
D29*
X76580000Y-90000000D03*
D10*
X80880000Y-58000000D03*
D11*
X88500000Y-58000000D03*
D12*
X130725000Y-124000000D03*
D13*
X133265000Y-124000000D03*
D15*
X116960000Y-43380000D03*
D16*
X119500000Y-43380000D03*
D28*
X71500000Y-79500000D03*
D29*
X76580000Y-79500000D03*
D23*
X136292500Y-111810000D03*
X136292500Y-109270000D03*
X136292500Y-106730000D03*
X143912500Y-119430000D03*
X146452500Y-119430000D03*
X148992500Y-119430000D03*
D24*
X138832500Y-102602500D03*
X138832500Y-115937500D03*
X154072500Y-115937500D03*
X154072500Y-102602500D03*
D23*
X143277500Y-101650000D03*
X149627500Y-101650000D03*
X143277500Y-96570000D03*
X149627500Y-96570000D03*
D19*
X149250000Y-78250000D03*
X155750000Y-78250000D03*
X149250000Y-82750000D03*
X155750000Y-82750000D03*
D10*
X124000000Y-47500000D03*
D11*
X124000000Y-39880000D03*
D10*
X136500000Y-60000000D03*
D11*
X128880000Y-60000000D03*
D10*
X111500000Y-47120000D03*
D11*
X111500000Y-39500000D03*
D10*
X55690000Y-54500000D03*
D11*
X63310000Y-54500000D03*
D10*
X136500000Y-48000000D03*
D11*
X128880000Y-48000000D03*
D10*
X68500000Y-54500000D03*
D11*
X76120000Y-54500000D03*
D10*
X136500000Y-52000000D03*
D11*
X128880000Y-52000000D03*
D19*
X146250000Y-90750000D03*
X139750000Y-90750000D03*
X146250000Y-86250000D03*
X139750000Y-86250000D03*
D10*
X68500000Y-46500000D03*
D11*
X76120000Y-46500000D03*
D14*
X53500000Y-101000000D03*
D13*
X53500000Y-103540000D03*
D15*
X85000000Y-76000000D03*
D16*
X85000000Y-78540000D03*
D15*
X91460000Y-43500000D03*
D16*
X94000000Y-43500000D03*
D14*
X85500000Y-90920000D03*
D13*
X85500000Y-93460000D03*
X85500000Y-96000000D03*
D15*
X103960000Y-43500000D03*
D16*
X106500000Y-43500000D03*
D10*
X81380000Y-71000000D03*
D11*
X89000000Y-71000000D03*
D30*
X95570000Y-102400000D03*
D23*
X98110000Y-102400000D03*
X100650000Y-102400000D03*
X103190000Y-102400000D03*
X105730000Y-102400000D03*
X108270000Y-102400000D03*
X110810000Y-102400000D03*
X113350000Y-102400000D03*
X115890000Y-102400000D03*
X118430000Y-102400000D03*
D31*
X106500000Y-65780000D03*
D32*
X109040000Y-65780000D03*
X111580000Y-65780000D03*
X114120000Y-65780000D03*
X116660000Y-65780000D03*
X119200000Y-65780000D03*
X121740000Y-65780000D03*
X124280000Y-65780000D03*
X126820000Y-65780000D03*
X129360000Y-65780000D03*
X106500000Y-111500000D03*
X109040000Y-111500000D03*
X111580000Y-111500000D03*
X114120000Y-111500000D03*
X116660000Y-111500000D03*
X119200000Y-111500000D03*
X121740000Y-111500000D03*
X124280000Y-111500000D03*
X126820000Y-111500000D03*
X129360000Y-111500000D03*
X106500000Y-68320000D03*
X109040000Y-68320000D03*
X111580000Y-68320000D03*
X114120000Y-68320000D03*
X116660000Y-68320000D03*
X119200000Y-68320000D03*
X121740000Y-68320000D03*
X124280000Y-68320000D03*
X126820000Y-68320000D03*
X129360000Y-68320000D03*
X106500000Y-108960000D03*
X109040000Y-108960000D03*
X111580000Y-108960000D03*
X114120000Y-108960000D03*
X116660000Y-108960000D03*
X119200000Y-108960000D03*
X121740000Y-108960000D03*
X124280000Y-108960000D03*
X126820000Y-108960000D03*
X129360000Y-108960000D03*
D33*
X110310000Y-82463200D03*
X83017400Y-105685900D03*
X83848300Y-107915900D03*
X97430800Y-68302400D03*
X125550100Y-48924600D03*
X122002400Y-57600900D03*
X116660000Y-94171000D03*
X113088300Y-38920300D03*
X73353300Y-72032000D03*
X126820000Y-113770600D03*
X81015500Y-113770600D03*
X123383600Y-46330500D03*
X133450200Y-63131000D03*
X141008400Y-62467200D03*
X112591700Y-78675000D03*
X83672500Y-71051600D03*
X61308600Y-69139200D03*
X125300900Y-104441100D03*
X101585500Y-100746500D03*
D34*
X71048300Y-66500000D02*
X68380000Y-66500000D01*
X75048300Y-70500000D02*
X71048300Y-66500000D01*
X76000000Y-70500000D02*
X75048300Y-70500000D01*
X55690000Y-63428300D02*
X55690000Y-54500000D01*
X56000000Y-63738300D02*
X55690000Y-63428300D01*
X56000000Y-64690000D02*
X56000000Y-63738300D01*
X57680000Y-67321700D02*
X56000000Y-65641700D01*
X57680000Y-84175000D02*
X57680000Y-67321700D01*
X56000000Y-64690000D02*
X56000000Y-65641700D01*
X53500000Y-101000000D02*
X53500000Y-99898300D01*
X56000000Y-88663300D02*
X57680000Y-90343300D01*
X56000000Y-72310000D02*
X56000000Y-88663300D01*
X57680000Y-91795000D02*
X57680000Y-90343300D01*
X57680000Y-95718300D02*
X53500000Y-99898300D01*
X57680000Y-91795000D02*
X57680000Y-95718300D01*
X88500000Y-82040000D02*
X88500000Y-83500000D01*
X85000000Y-78540000D02*
X88500000Y-82040000D01*
X110310000Y-67050000D02*
X110310000Y-82463200D01*
X111580000Y-65780000D02*
X110310000Y-67050000D01*
X89000000Y-70040000D02*
X89000000Y-71000000D01*
X85000000Y-66040000D02*
X89000000Y-70040000D01*
X88500000Y-56500000D02*
X88500000Y-58000000D01*
X85000000Y-53000000D02*
X88500000Y-56500000D01*
X83017400Y-77665300D02*
X83017400Y-105685900D01*
X81380000Y-76027900D02*
X83017400Y-77665300D01*
X81380000Y-71000000D02*
X81380000Y-76027900D01*
X83848300Y-84597300D02*
X83848300Y-107915900D01*
X83496600Y-84245600D02*
X83848300Y-84597300D01*
X83496600Y-77647200D02*
X83496600Y-84245600D01*
X83020800Y-77171400D02*
X83496600Y-77647200D01*
X83020800Y-70018000D02*
X83020800Y-77171400D01*
X80880000Y-67877200D02*
X83020800Y-70018000D01*
X80880000Y-58000000D02*
X80880000Y-67877200D01*
X106876100Y-77747700D02*
X97430800Y-68302400D01*
X106876100Y-106796100D02*
X106876100Y-77747700D01*
X109040000Y-108960000D02*
X106876100Y-106796100D01*
X76120000Y-42500000D02*
X76120000Y-43451700D01*
X82664100Y-49995800D02*
X76120000Y-43451700D01*
X82664100Y-69121600D02*
X82664100Y-49995800D01*
X84324200Y-70781700D02*
X82664100Y-69121600D01*
X84324200Y-71321500D02*
X84324200Y-70781700D01*
X83848300Y-71797400D02*
X84324200Y-71321500D01*
X83848300Y-77004300D02*
X83848300Y-71797400D01*
X84002500Y-77158500D02*
X83848300Y-77004300D01*
X85284800Y-77158500D02*
X84002500Y-77158500D01*
X104460000Y-96333700D02*
X85284800Y-77158500D01*
X104460000Y-106920000D02*
X104460000Y-96333700D01*
X106500000Y-108960000D02*
X104460000Y-106920000D01*
X125550100Y-67050100D02*
X125550100Y-48924600D01*
X126820000Y-68320000D02*
X125550100Y-67050100D01*
X123010000Y-67050000D02*
X124280000Y-68320000D01*
X123010000Y-58608500D02*
X123010000Y-67050000D01*
X122002400Y-57600900D02*
X123010000Y-58608500D01*
X139250000Y-58750000D02*
X139250000Y-69750000D01*
X136500000Y-56000000D02*
X139250000Y-58750000D01*
X116660000Y-68320000D02*
X116660000Y-94171000D01*
X85500000Y-121898300D02*
X85000000Y-122398300D01*
X85500000Y-96000000D02*
X85500000Y-121898300D01*
X85000000Y-123500000D02*
X85000000Y-122398300D01*
X113088300Y-67288300D02*
X113088300Y-38920300D01*
X114120000Y-68320000D02*
X113088300Y-67288300D01*
X73353300Y-119529200D02*
X73353300Y-72032000D01*
X71952500Y-120930000D02*
X73353300Y-119529200D01*
X81015500Y-86405500D02*
X81015500Y-113770600D01*
X78917000Y-84307000D02*
X81015500Y-86405500D01*
X78917000Y-70368700D02*
X78917000Y-84307000D01*
X76000000Y-67451700D02*
X78917000Y-70368700D01*
X126820000Y-111500000D02*
X126820000Y-113770600D01*
X76000000Y-66500000D02*
X76000000Y-67451700D01*
X110068500Y-110471500D02*
X109040000Y-111500000D01*
X110068500Y-103557500D02*
X110068500Y-110471500D01*
X109666100Y-103155100D02*
X110068500Y-103557500D01*
X109666100Y-100454100D02*
X109666100Y-103155100D01*
X115390100Y-94730100D02*
X109666100Y-100454100D01*
X115390100Y-55541300D02*
X115390100Y-94730100D01*
X123431400Y-47500000D02*
X115390100Y-55541300D01*
X124000000Y-47500000D02*
X123431400Y-47500000D01*
X124237200Y-46330500D02*
X123383600Y-46330500D01*
X126941200Y-49034500D02*
X124237200Y-46330500D01*
X126941200Y-63361200D02*
X126941200Y-49034500D01*
X129360000Y-65780000D02*
X126941200Y-63361200D01*
X76000000Y-55571700D02*
X76000000Y-58500000D01*
X76120000Y-55451700D02*
X76000000Y-55571700D01*
X76120000Y-54500000D02*
X76120000Y-55451700D01*
X133450200Y-51049800D02*
X133450200Y-63131000D01*
X136500000Y-48000000D02*
X133450200Y-51049800D01*
X149250000Y-60750000D02*
X149250000Y-78250000D01*
X136500000Y-48000000D02*
X149250000Y-60750000D01*
X141008400Y-113985900D02*
X141008400Y-62467200D01*
X146452500Y-119430000D02*
X141008400Y-113985900D01*
X140504100Y-85495900D02*
X139750000Y-86250000D01*
X140504100Y-67421100D02*
X140504100Y-85495900D01*
X140356700Y-67273700D02*
X140504100Y-67421100D01*
X140356700Y-55856700D02*
X140356700Y-67273700D01*
X136500000Y-52000000D02*
X140356700Y-55856700D01*
X136500000Y-77500000D02*
X135250000Y-78750000D01*
X136500000Y-60000000D02*
X136500000Y-77500000D01*
X112591700Y-65359200D02*
X112591700Y-78675000D01*
X111957700Y-64725200D02*
X112591700Y-65359200D01*
X110094800Y-64725200D02*
X111957700Y-64725200D01*
X109040000Y-65780000D02*
X110094800Y-64725200D01*
X94238300Y-43500000D02*
X98048300Y-39690000D01*
X94000000Y-43500000D02*
X94238300Y-43500000D01*
X99000000Y-39690000D02*
X98048300Y-39690000D01*
X63310000Y-51402900D02*
X63310000Y-54500000D01*
X62023800Y-50116700D02*
X63310000Y-51402900D01*
X62023800Y-49065000D02*
X62023800Y-50116700D01*
X56943800Y-47016200D02*
X60960000Y-43000000D01*
X56943800Y-49065000D02*
X56943800Y-47016200D01*
X68500000Y-46500000D02*
X68500000Y-42500000D01*
X68380000Y-58500000D02*
X68500000Y-58500000D01*
X68500000Y-54500000D02*
X68500000Y-58500000D01*
X68500000Y-58500000D02*
X68500000Y-62500000D01*
X67412900Y-63587100D02*
X68500000Y-62500000D01*
X67412900Y-69532900D02*
X67412900Y-63587100D01*
X68380000Y-70500000D02*
X67412900Y-69532900D01*
X67497600Y-53497600D02*
X68500000Y-54500000D01*
X67497600Y-47502400D02*
X67497600Y-53497600D01*
X68500000Y-46500000D02*
X67497600Y-47502400D01*
X85500000Y-82230200D02*
X85500000Y-90920000D01*
X83848300Y-80578500D02*
X85500000Y-82230200D01*
X83848300Y-77501600D02*
X83848300Y-80578500D01*
X83496600Y-77149900D02*
X83848300Y-77501600D01*
X83496600Y-71227500D02*
X83496600Y-77149900D01*
X83672500Y-71051600D02*
X83496600Y-71227500D01*
X71500000Y-87985300D02*
X71500000Y-90000000D01*
X66238000Y-82723300D02*
X71500000Y-87985300D01*
X62760000Y-82723300D02*
X66238000Y-82723300D01*
X62760000Y-84175000D02*
X62760000Y-82723300D01*
X60220000Y-91795000D02*
X60220000Y-90343300D01*
X61308600Y-89254700D02*
X61308600Y-69139200D01*
X60220000Y-90343300D02*
X61308600Y-89254700D01*
X125300900Y-110479100D02*
X125300900Y-104441100D01*
X124280000Y-111500000D02*
X125300900Y-110479100D01*
X120470100Y-106980100D02*
X115890000Y-102400000D01*
X120470100Y-110230100D02*
X120470100Y-106980100D01*
X121740000Y-111500000D02*
X120470100Y-110230100D01*
X117930000Y-110230000D02*
X119200000Y-111500000D01*
X117930000Y-108789100D02*
X117930000Y-110230000D01*
X111540900Y-102400000D02*
X117930000Y-108789100D01*
X110810000Y-102400000D02*
X111540900Y-102400000D01*
X120470100Y-95279900D02*
X113350000Y-102400000D01*
X120470100Y-67049900D02*
X120470100Y-95279900D01*
X121740000Y-65780000D02*
X120470100Y-67049900D01*
X123010100Y-117655100D02*
X123605000Y-118250000D01*
X123010100Y-106980100D02*
X123010100Y-117655100D01*
X118430000Y-102400000D02*
X123010100Y-106980100D01*
X69937800Y-120404700D02*
X69412500Y-120930000D01*
X69937800Y-99230300D02*
X69937800Y-120404700D01*
X68777500Y-98070000D02*
X69937800Y-99230300D01*
X62189800Y-108230000D02*
X61792500Y-108230000D01*
X66116200Y-104303600D02*
X62189800Y-108230000D01*
X66116200Y-100731300D02*
X66116200Y-104303600D01*
X68777500Y-98070000D02*
X66116200Y-100731300D01*
X149627500Y-94127500D02*
X146250000Y-90750000D01*
X149627500Y-96570000D02*
X149627500Y-94127500D01*
X149250000Y-87750000D02*
X146250000Y-90750000D01*
X149250000Y-82750000D02*
X149250000Y-87750000D01*
X145750000Y-79250000D02*
X149250000Y-82750000D01*
X145750000Y-74250000D02*
X145750000Y-79250000D01*
X133265000Y-109757500D02*
X136292500Y-106730000D01*
X133265000Y-118500000D02*
X133265000Y-109757500D01*
X136292500Y-94207500D02*
X139750000Y-90750000D01*
X136292500Y-106730000D02*
X136292500Y-94207500D01*
X99763500Y-100746500D02*
X98110000Y-102400000D01*
X101585500Y-100746500D02*
X99763500Y-100746500D01*
X107646100Y-48337800D02*
X103960000Y-44651700D01*
X107646100Y-66926100D02*
X107646100Y-48337800D01*
X109040000Y-68320000D02*
X107646100Y-66926100D01*
X103960000Y-43500000D02*
X103960000Y-44651700D01*
X96710700Y-102613900D02*
X96710700Y-102400000D01*
X105596800Y-111500000D02*
X96710700Y-102613900D01*
X106500000Y-111500000D02*
X105596800Y-111500000D01*
X95570000Y-102400000D02*
X96140400Y-102400000D01*
X96140400Y-102400000D02*
X96710700Y-102400000D01*
X96140400Y-111587900D02*
X90605000Y-117123300D01*
X96140400Y-102400000D02*
X96140400Y-111587900D01*
X90605000Y-118250000D02*
X90605000Y-117123300D01*
X86151700Y-49960000D02*
X86151700Y-50460000D01*
X91460000Y-44651700D02*
X86151700Y-49960000D01*
X91460000Y-43500000D02*
X91460000Y-44651700D01*
X76580000Y-79500000D02*
X76580000Y-90000000D01*
X128880000Y-48000000D02*
X128880000Y-52000000D01*
X128880000Y-52000000D02*
X128880000Y-56000000D01*
X128880000Y-56000000D02*
X128880000Y-60000000D01*
X136292500Y-119870800D02*
X133265000Y-122898300D01*
X136292500Y-111810000D02*
X136292500Y-119870800D01*
X133265000Y-124000000D02*
X133265000Y-122898300D01*
X60651800Y-95354900D02*
X62760000Y-93246700D01*
X60651800Y-112169300D02*
X60651800Y-95354900D01*
X61792500Y-113310000D02*
X60651800Y-112169300D01*
X76580000Y-118842500D02*
X76580000Y-90000000D01*
X74492500Y-120930000D02*
X76580000Y-118842500D01*
X62760000Y-92520800D02*
X62760000Y-93246700D01*
X62760000Y-92520800D02*
X62760000Y-91795000D01*
X62760000Y-88166700D02*
X65300000Y-85626700D01*
X62760000Y-91795000D02*
X62760000Y-88166700D01*
X65300000Y-84175000D02*
X65300000Y-85626700D01*
X84718300Y-64651700D02*
X85000000Y-64651700D01*
X83848300Y-65521700D02*
X84718300Y-64651700D01*
X83848300Y-67254200D02*
X83848300Y-65521700D01*
X85000000Y-68405900D02*
X83848300Y-67254200D01*
X85000000Y-76000000D02*
X85000000Y-68405900D01*
X85000000Y-63500000D02*
X85000000Y-64651700D01*
X85000000Y-50460000D02*
X85575900Y-50460000D01*
X85575900Y-50460000D02*
X86151700Y-50460000D01*
X83848300Y-61196600D02*
X85000000Y-62348300D01*
X83848300Y-52187600D02*
X83848300Y-61196600D01*
X85575900Y-50460000D02*
X83848300Y-52187600D01*
X85000000Y-63500000D02*
X85000000Y-62348300D01*
M02*
