G04 #@! TF.GenerationSoftware,KiCad,Pcbnew,9.0.0*
G04 #@! TF.CreationDate,2025-03-23T13:33:12-05:00*
G04 #@! TF.ProjectId,CDR3585,43445233-3538-4352-9e6b-696361645f70,v1.0.1*
G04 #@! TF.SameCoordinates,Original*
G04 #@! TF.FileFunction,Legend,Bot*
G04 #@! TF.FilePolarity,Positive*
%FSLAX46Y46*%
G04 Gerber Fmt 4.6, Leading zero omitted, Abs format (unit mm)*
G04 Created by KiCad (PCBNEW 9.0.0) date 2025-03-23 13:33:12*
%MOMM*%
%LPD*%
G01*
G04 APERTURE LIST*
%ADD10C,0.300000*%
%ADD11C,0.150000*%
%ADD12C,0.100000*%
%ADD13C,0.127000*%
%ADD14C,0.228600*%
%ADD15C,1.400000*%
%ADD16O,1.400000X1.400000*%
%ADD17C,1.700000*%
%ADD18O,1.700000X1.700000*%
%ADD19R,1.700000X1.700000*%
%ADD20R,1.800000X1.800000*%
%ADD21C,1.800000*%
%ADD22R,1.600000X2.400000*%
%ADD23O,1.600000X2.400000*%
%ADD24C,2.000000*%
%ADD25C,2.700000*%
%ADD26R,1.750000X1.750000*%
%ADD27C,1.750000*%
%ADD28C,1.778000*%
%ADD29C,2.286000*%
%ADD30C,1.600000*%
%ADD31O,1.600000X1.600000*%
%ADD32C,4.318000*%
%ADD33R,2.032000X2.032000*%
%ADD34C,2.032000*%
%ADD35C,2.200000*%
%ADD36R,1.778000X1.778000*%
%ADD37R,1.520000X1.520000*%
%ADD38C,1.520000*%
G04 APERTURE END LIST*
D10*
X163088346Y-66657971D02*
X163159774Y-66729400D01*
X163159774Y-66729400D02*
X163374060Y-66800828D01*
X163374060Y-66800828D02*
X163516917Y-66800828D01*
X163516917Y-66800828D02*
X163731203Y-66729400D01*
X163731203Y-66729400D02*
X163874060Y-66586542D01*
X163874060Y-66586542D02*
X163945489Y-66443685D01*
X163945489Y-66443685D02*
X164016917Y-66157971D01*
X164016917Y-66157971D02*
X164016917Y-65943685D01*
X164016917Y-65943685D02*
X163945489Y-65657971D01*
X163945489Y-65657971D02*
X163874060Y-65515114D01*
X163874060Y-65515114D02*
X163731203Y-65372257D01*
X163731203Y-65372257D02*
X163516917Y-65300828D01*
X163516917Y-65300828D02*
X163374060Y-65300828D01*
X163374060Y-65300828D02*
X163159774Y-65372257D01*
X163159774Y-65372257D02*
X163088346Y-65443685D01*
X161802632Y-66800828D02*
X161802632Y-66015114D01*
X161802632Y-66015114D02*
X161874060Y-65872257D01*
X161874060Y-65872257D02*
X162016917Y-65800828D01*
X162016917Y-65800828D02*
X162302632Y-65800828D01*
X162302632Y-65800828D02*
X162445489Y-65872257D01*
X161802632Y-66729400D02*
X161945489Y-66800828D01*
X161945489Y-66800828D02*
X162302632Y-66800828D01*
X162302632Y-66800828D02*
X162445489Y-66729400D01*
X162445489Y-66729400D02*
X162516917Y-66586542D01*
X162516917Y-66586542D02*
X162516917Y-66443685D01*
X162516917Y-66443685D02*
X162445489Y-66300828D01*
X162445489Y-66300828D02*
X162302632Y-66229400D01*
X162302632Y-66229400D02*
X161945489Y-66229400D01*
X161945489Y-66229400D02*
X161802632Y-66157971D01*
X161088346Y-66800828D02*
X161088346Y-65800828D01*
X161088346Y-66086542D02*
X161016917Y-65943685D01*
X161016917Y-65943685D02*
X160945489Y-65872257D01*
X160945489Y-65872257D02*
X160802631Y-65800828D01*
X160802631Y-65800828D02*
X160659774Y-65800828D01*
X159945489Y-66800828D02*
X160088346Y-66729400D01*
X160088346Y-66729400D02*
X160159775Y-66586542D01*
X160159775Y-66586542D02*
X160159775Y-65300828D01*
X159159775Y-66800828D02*
X159302632Y-66729400D01*
X159302632Y-66729400D02*
X159374061Y-66657971D01*
X159374061Y-66657971D02*
X159445489Y-66515114D01*
X159445489Y-66515114D02*
X159445489Y-66086542D01*
X159445489Y-66086542D02*
X159374061Y-65943685D01*
X159374061Y-65943685D02*
X159302632Y-65872257D01*
X159302632Y-65872257D02*
X159159775Y-65800828D01*
X159159775Y-65800828D02*
X158945489Y-65800828D01*
X158945489Y-65800828D02*
X158802632Y-65872257D01*
X158802632Y-65872257D02*
X158731204Y-65943685D01*
X158731204Y-65943685D02*
X158659775Y-66086542D01*
X158659775Y-66086542D02*
X158659775Y-66515114D01*
X158659775Y-66515114D02*
X158731204Y-66657971D01*
X158731204Y-66657971D02*
X158802632Y-66729400D01*
X158802632Y-66729400D02*
X158945489Y-66800828D01*
X158945489Y-66800828D02*
X159159775Y-66800828D01*
X158088346Y-66729400D02*
X157945489Y-66800828D01*
X157945489Y-66800828D02*
X157659775Y-66800828D01*
X157659775Y-66800828D02*
X157516918Y-66729400D01*
X157516918Y-66729400D02*
X157445489Y-66586542D01*
X157445489Y-66586542D02*
X157445489Y-66515114D01*
X157445489Y-66515114D02*
X157516918Y-66372257D01*
X157516918Y-66372257D02*
X157659775Y-66300828D01*
X157659775Y-66300828D02*
X157874061Y-66300828D01*
X157874061Y-66300828D02*
X158016918Y-66229400D01*
X158016918Y-66229400D02*
X158088346Y-66086542D01*
X158088346Y-66086542D02*
X158088346Y-66015114D01*
X158088346Y-66015114D02*
X158016918Y-65872257D01*
X158016918Y-65872257D02*
X157874061Y-65800828D01*
X157874061Y-65800828D02*
X157659775Y-65800828D01*
X157659775Y-65800828D02*
X157516918Y-65872257D01*
X154802632Y-66800828D02*
X155302632Y-66086542D01*
X155659775Y-66800828D02*
X155659775Y-65300828D01*
X155659775Y-65300828D02*
X155088346Y-65300828D01*
X155088346Y-65300828D02*
X154945489Y-65372257D01*
X154945489Y-65372257D02*
X154874060Y-65443685D01*
X154874060Y-65443685D02*
X154802632Y-65586542D01*
X154802632Y-65586542D02*
X154802632Y-65800828D01*
X154802632Y-65800828D02*
X154874060Y-65943685D01*
X154874060Y-65943685D02*
X154945489Y-66015114D01*
X154945489Y-66015114D02*
X155088346Y-66086542D01*
X155088346Y-66086542D02*
X155659775Y-66086542D01*
X153945489Y-66800828D02*
X154088346Y-66729400D01*
X154088346Y-66729400D02*
X154159775Y-66657971D01*
X154159775Y-66657971D02*
X154231203Y-66515114D01*
X154231203Y-66515114D02*
X154231203Y-66086542D01*
X154231203Y-66086542D02*
X154159775Y-65943685D01*
X154159775Y-65943685D02*
X154088346Y-65872257D01*
X154088346Y-65872257D02*
X153945489Y-65800828D01*
X153945489Y-65800828D02*
X153731203Y-65800828D01*
X153731203Y-65800828D02*
X153588346Y-65872257D01*
X153588346Y-65872257D02*
X153516918Y-65943685D01*
X153516918Y-65943685D02*
X153445489Y-66086542D01*
X153445489Y-66086542D02*
X153445489Y-66515114D01*
X153445489Y-66515114D02*
X153516918Y-66657971D01*
X153516918Y-66657971D02*
X153588346Y-66729400D01*
X153588346Y-66729400D02*
X153731203Y-66800828D01*
X153731203Y-66800828D02*
X153945489Y-66800828D01*
X152802632Y-65800828D02*
X152802632Y-67086542D01*
X152802632Y-67086542D02*
X152874060Y-67229400D01*
X152874060Y-67229400D02*
X153016917Y-67300828D01*
X153016917Y-67300828D02*
X153088346Y-67300828D01*
X152802632Y-65300828D02*
X152874060Y-65372257D01*
X152874060Y-65372257D02*
X152802632Y-65443685D01*
X152802632Y-65443685D02*
X152731203Y-65372257D01*
X152731203Y-65372257D02*
X152802632Y-65300828D01*
X152802632Y-65300828D02*
X152802632Y-65443685D01*
X151445489Y-66800828D02*
X151445489Y-66015114D01*
X151445489Y-66015114D02*
X151516917Y-65872257D01*
X151516917Y-65872257D02*
X151659774Y-65800828D01*
X151659774Y-65800828D02*
X151945489Y-65800828D01*
X151945489Y-65800828D02*
X152088346Y-65872257D01*
X151445489Y-66729400D02*
X151588346Y-66800828D01*
X151588346Y-66800828D02*
X151945489Y-66800828D01*
X151945489Y-66800828D02*
X152088346Y-66729400D01*
X152088346Y-66729400D02*
X152159774Y-66586542D01*
X152159774Y-66586542D02*
X152159774Y-66443685D01*
X152159774Y-66443685D02*
X152088346Y-66300828D01*
X152088346Y-66300828D02*
X151945489Y-66229400D01*
X151945489Y-66229400D02*
X151588346Y-66229400D01*
X151588346Y-66229400D02*
X151445489Y-66157971D01*
X150802631Y-66729400D02*
X150659774Y-66800828D01*
X150659774Y-66800828D02*
X150374060Y-66800828D01*
X150374060Y-66800828D02*
X150231203Y-66729400D01*
X150231203Y-66729400D02*
X150159774Y-66586542D01*
X150159774Y-66586542D02*
X150159774Y-66515114D01*
X150159774Y-66515114D02*
X150231203Y-66372257D01*
X150231203Y-66372257D02*
X150374060Y-66300828D01*
X150374060Y-66300828D02*
X150588346Y-66300828D01*
X150588346Y-66300828D02*
X150731203Y-66229400D01*
X150731203Y-66229400D02*
X150802631Y-66086542D01*
X150802631Y-66086542D02*
X150802631Y-66015114D01*
X150802631Y-66015114D02*
X150731203Y-65872257D01*
X150731203Y-65872257D02*
X150588346Y-65800828D01*
X150588346Y-65800828D02*
X150374060Y-65800828D01*
X150374060Y-65800828D02*
X150231203Y-65872257D01*
X149445488Y-66729400D02*
X149445488Y-66800828D01*
X149445488Y-66800828D02*
X149516917Y-66943685D01*
X149516917Y-66943685D02*
X149588345Y-67015114D01*
X146874059Y-65372257D02*
X147016917Y-65300828D01*
X147016917Y-65300828D02*
X147231202Y-65300828D01*
X147231202Y-65300828D02*
X147445488Y-65372257D01*
X147445488Y-65372257D02*
X147588345Y-65515114D01*
X147588345Y-65515114D02*
X147659774Y-65657971D01*
X147659774Y-65657971D02*
X147731202Y-65943685D01*
X147731202Y-65943685D02*
X147731202Y-66157971D01*
X147731202Y-66157971D02*
X147659774Y-66443685D01*
X147659774Y-66443685D02*
X147588345Y-66586542D01*
X147588345Y-66586542D02*
X147445488Y-66729400D01*
X147445488Y-66729400D02*
X147231202Y-66800828D01*
X147231202Y-66800828D02*
X147088345Y-66800828D01*
X147088345Y-66800828D02*
X146874059Y-66729400D01*
X146874059Y-66729400D02*
X146802631Y-66657971D01*
X146802631Y-66657971D02*
X146802631Y-66157971D01*
X146802631Y-66157971D02*
X147088345Y-66157971D01*
X146159774Y-66800828D02*
X146159774Y-65800828D01*
X146159774Y-66086542D02*
X146088345Y-65943685D01*
X146088345Y-65943685D02*
X146016917Y-65872257D01*
X146016917Y-65872257D02*
X145874059Y-65800828D01*
X145874059Y-65800828D02*
X145731202Y-65800828D01*
X144588346Y-66800828D02*
X144588346Y-66015114D01*
X144588346Y-66015114D02*
X144659774Y-65872257D01*
X144659774Y-65872257D02*
X144802631Y-65800828D01*
X144802631Y-65800828D02*
X145088346Y-65800828D01*
X145088346Y-65800828D02*
X145231203Y-65872257D01*
X144588346Y-66729400D02*
X144731203Y-66800828D01*
X144731203Y-66800828D02*
X145088346Y-66800828D01*
X145088346Y-66800828D02*
X145231203Y-66729400D01*
X145231203Y-66729400D02*
X145302631Y-66586542D01*
X145302631Y-66586542D02*
X145302631Y-66443685D01*
X145302631Y-66443685D02*
X145231203Y-66300828D01*
X145231203Y-66300828D02*
X145088346Y-66229400D01*
X145088346Y-66229400D02*
X144731203Y-66229400D01*
X144731203Y-66229400D02*
X144588346Y-66157971D01*
X143874060Y-65800828D02*
X143874060Y-66800828D01*
X143874060Y-65943685D02*
X143802631Y-65872257D01*
X143802631Y-65872257D02*
X143659774Y-65800828D01*
X143659774Y-65800828D02*
X143445488Y-65800828D01*
X143445488Y-65800828D02*
X143302631Y-65872257D01*
X143302631Y-65872257D02*
X143231203Y-66015114D01*
X143231203Y-66015114D02*
X143231203Y-66800828D01*
X142731202Y-65800828D02*
X142159774Y-65800828D01*
X142516917Y-65300828D02*
X142516917Y-66586542D01*
X142516917Y-66586542D02*
X142445488Y-66729400D01*
X142445488Y-66729400D02*
X142302631Y-66800828D01*
X142302631Y-66800828D02*
X142159774Y-66800828D01*
X141802631Y-65800828D02*
X141445488Y-66800828D01*
X141088345Y-65800828D02*
X141445488Y-66800828D01*
X141445488Y-66800828D02*
X141588345Y-67157971D01*
X141588345Y-67157971D02*
X141659774Y-67229400D01*
X141659774Y-67229400D02*
X141802631Y-67300828D01*
X139088345Y-65300828D02*
X138802631Y-65300828D01*
X138802631Y-65300828D02*
X138659774Y-65372257D01*
X138659774Y-65372257D02*
X138516917Y-65515114D01*
X138516917Y-65515114D02*
X138445488Y-65800828D01*
X138445488Y-65800828D02*
X138445488Y-66300828D01*
X138445488Y-66300828D02*
X138516917Y-66586542D01*
X138516917Y-66586542D02*
X138659774Y-66729400D01*
X138659774Y-66729400D02*
X138802631Y-66800828D01*
X138802631Y-66800828D02*
X139088345Y-66800828D01*
X139088345Y-66800828D02*
X139231203Y-66729400D01*
X139231203Y-66729400D02*
X139374060Y-66586542D01*
X139374060Y-66586542D02*
X139445488Y-66300828D01*
X139445488Y-66300828D02*
X139445488Y-65800828D01*
X139445488Y-65800828D02*
X139374060Y-65515114D01*
X139374060Y-65515114D02*
X139231203Y-65372257D01*
X139231203Y-65372257D02*
X139088345Y-65300828D01*
X137874059Y-66729400D02*
X137731202Y-66800828D01*
X137731202Y-66800828D02*
X137445488Y-66800828D01*
X137445488Y-66800828D02*
X137302631Y-66729400D01*
X137302631Y-66729400D02*
X137231202Y-66586542D01*
X137231202Y-66586542D02*
X137231202Y-66515114D01*
X137231202Y-66515114D02*
X137302631Y-66372257D01*
X137302631Y-66372257D02*
X137445488Y-66300828D01*
X137445488Y-66300828D02*
X137659774Y-66300828D01*
X137659774Y-66300828D02*
X137802631Y-66229400D01*
X137802631Y-66229400D02*
X137874059Y-66086542D01*
X137874059Y-66086542D02*
X137874059Y-66015114D01*
X137874059Y-66015114D02*
X137802631Y-65872257D01*
X137802631Y-65872257D02*
X137659774Y-65800828D01*
X137659774Y-65800828D02*
X137445488Y-65800828D01*
X137445488Y-65800828D02*
X137302631Y-65872257D01*
X136588345Y-66800828D02*
X136588345Y-65800828D01*
X136588345Y-65300828D02*
X136659773Y-65372257D01*
X136659773Y-65372257D02*
X136588345Y-65443685D01*
X136588345Y-65443685D02*
X136516916Y-65372257D01*
X136516916Y-65372257D02*
X136588345Y-65300828D01*
X136588345Y-65300828D02*
X136588345Y-65443685D01*
X135874059Y-65800828D02*
X135874059Y-66800828D01*
X135874059Y-65943685D02*
X135802630Y-65872257D01*
X135802630Y-65872257D02*
X135659773Y-65800828D01*
X135659773Y-65800828D02*
X135445487Y-65800828D01*
X135445487Y-65800828D02*
X135302630Y-65872257D01*
X135302630Y-65872257D02*
X135231202Y-66015114D01*
X135231202Y-66015114D02*
X135231202Y-66800828D01*
X133874059Y-66800828D02*
X133874059Y-65300828D01*
X133874059Y-66729400D02*
X134016916Y-66800828D01*
X134016916Y-66800828D02*
X134302630Y-66800828D01*
X134302630Y-66800828D02*
X134445487Y-66729400D01*
X134445487Y-66729400D02*
X134516916Y-66657971D01*
X134516916Y-66657971D02*
X134588344Y-66515114D01*
X134588344Y-66515114D02*
X134588344Y-66086542D01*
X134588344Y-66086542D02*
X134516916Y-65943685D01*
X134516916Y-65943685D02*
X134445487Y-65872257D01*
X134445487Y-65872257D02*
X134302630Y-65800828D01*
X134302630Y-65800828D02*
X134016916Y-65800828D01*
X134016916Y-65800828D02*
X133874059Y-65872257D01*
X132588344Y-66729400D02*
X132731201Y-66800828D01*
X132731201Y-66800828D02*
X133016916Y-66800828D01*
X133016916Y-66800828D02*
X133159773Y-66729400D01*
X133159773Y-66729400D02*
X133231201Y-66586542D01*
X133231201Y-66586542D02*
X133231201Y-66015114D01*
X133231201Y-66015114D02*
X133159773Y-65872257D01*
X133159773Y-65872257D02*
X133016916Y-65800828D01*
X133016916Y-65800828D02*
X132731201Y-65800828D01*
X132731201Y-65800828D02*
X132588344Y-65872257D01*
X132588344Y-65872257D02*
X132516916Y-66015114D01*
X132516916Y-66015114D02*
X132516916Y-66157971D01*
X132516916Y-66157971D02*
X133231201Y-66300828D01*
D11*
X66774819Y-64018095D02*
X67584342Y-64018095D01*
X67584342Y-64018095D02*
X67679580Y-64065714D01*
X67679580Y-64065714D02*
X67727200Y-64113333D01*
X67727200Y-64113333D02*
X67774819Y-64208571D01*
X67774819Y-64208571D02*
X67774819Y-64399047D01*
X67774819Y-64399047D02*
X67727200Y-64494285D01*
X67727200Y-64494285D02*
X67679580Y-64541904D01*
X67679580Y-64541904D02*
X67584342Y-64589523D01*
X67584342Y-64589523D02*
X66774819Y-64589523D01*
X66870057Y-65018095D02*
X66822438Y-65065714D01*
X66822438Y-65065714D02*
X66774819Y-65160952D01*
X66774819Y-65160952D02*
X66774819Y-65399047D01*
X66774819Y-65399047D02*
X66822438Y-65494285D01*
X66822438Y-65494285D02*
X66870057Y-65541904D01*
X66870057Y-65541904D02*
X66965295Y-65589523D01*
X66965295Y-65589523D02*
X67060533Y-65589523D01*
X67060533Y-65589523D02*
X67203390Y-65541904D01*
X67203390Y-65541904D02*
X67774819Y-64970476D01*
X67774819Y-64970476D02*
X67774819Y-65589523D01*
D12*
X101244800Y-62226265D02*
X101292419Y-62369122D01*
X101292419Y-62369122D02*
X101292419Y-62607217D01*
X101292419Y-62607217D02*
X101244800Y-62702455D01*
X101244800Y-62702455D02*
X101197180Y-62750074D01*
X101197180Y-62750074D02*
X101101942Y-62797693D01*
X101101942Y-62797693D02*
X101006704Y-62797693D01*
X101006704Y-62797693D02*
X100911466Y-62750074D01*
X100911466Y-62750074D02*
X100863847Y-62702455D01*
X100863847Y-62702455D02*
X100816228Y-62607217D01*
X100816228Y-62607217D02*
X100768609Y-62416741D01*
X100768609Y-62416741D02*
X100720990Y-62321503D01*
X100720990Y-62321503D02*
X100673371Y-62273884D01*
X100673371Y-62273884D02*
X100578133Y-62226265D01*
X100578133Y-62226265D02*
X100482895Y-62226265D01*
X100482895Y-62226265D02*
X100387657Y-62273884D01*
X100387657Y-62273884D02*
X100340038Y-62321503D01*
X100340038Y-62321503D02*
X100292419Y-62416741D01*
X100292419Y-62416741D02*
X100292419Y-62654836D01*
X100292419Y-62654836D02*
X100340038Y-62797693D01*
X101292419Y-63750074D02*
X101292419Y-63178646D01*
X101292419Y-63464360D02*
X100292419Y-63464360D01*
X100292419Y-63464360D02*
X100435276Y-63369122D01*
X100435276Y-63369122D02*
X100530514Y-63273884D01*
X100530514Y-63273884D02*
X100578133Y-63178646D01*
X56477419Y-67353884D02*
X57286942Y-67353884D01*
X57286942Y-67353884D02*
X57382180Y-67401503D01*
X57382180Y-67401503D02*
X57429800Y-67449122D01*
X57429800Y-67449122D02*
X57477419Y-67544360D01*
X57477419Y-67544360D02*
X57477419Y-67734836D01*
X57477419Y-67734836D02*
X57429800Y-67830074D01*
X57429800Y-67830074D02*
X57382180Y-67877693D01*
X57382180Y-67877693D02*
X57286942Y-67925312D01*
X57286942Y-67925312D02*
X56477419Y-67925312D01*
X57429800Y-68353884D02*
X57477419Y-68496741D01*
X57477419Y-68496741D02*
X57477419Y-68734836D01*
X57477419Y-68734836D02*
X57429800Y-68830074D01*
X57429800Y-68830074D02*
X57382180Y-68877693D01*
X57382180Y-68877693D02*
X57286942Y-68925312D01*
X57286942Y-68925312D02*
X57191704Y-68925312D01*
X57191704Y-68925312D02*
X57096466Y-68877693D01*
X57096466Y-68877693D02*
X57048847Y-68830074D01*
X57048847Y-68830074D02*
X57001228Y-68734836D01*
X57001228Y-68734836D02*
X56953609Y-68544360D01*
X56953609Y-68544360D02*
X56905990Y-68449122D01*
X56905990Y-68449122D02*
X56858371Y-68401503D01*
X56858371Y-68401503D02*
X56763133Y-68353884D01*
X56763133Y-68353884D02*
X56667895Y-68353884D01*
X56667895Y-68353884D02*
X56572657Y-68401503D01*
X56572657Y-68401503D02*
X56525038Y-68449122D01*
X56525038Y-68449122D02*
X56477419Y-68544360D01*
X56477419Y-68544360D02*
X56477419Y-68782455D01*
X56477419Y-68782455D02*
X56525038Y-68925312D01*
X56953609Y-69687217D02*
X57001228Y-69830074D01*
X57001228Y-69830074D02*
X57048847Y-69877693D01*
X57048847Y-69877693D02*
X57144085Y-69925312D01*
X57144085Y-69925312D02*
X57286942Y-69925312D01*
X57286942Y-69925312D02*
X57382180Y-69877693D01*
X57382180Y-69877693D02*
X57429800Y-69830074D01*
X57429800Y-69830074D02*
X57477419Y-69734836D01*
X57477419Y-69734836D02*
X57477419Y-69353884D01*
X57477419Y-69353884D02*
X56477419Y-69353884D01*
X56477419Y-69353884D02*
X56477419Y-69687217D01*
X56477419Y-69687217D02*
X56525038Y-69782455D01*
X56525038Y-69782455D02*
X56572657Y-69830074D01*
X56572657Y-69830074D02*
X56667895Y-69877693D01*
X56667895Y-69877693D02*
X56763133Y-69877693D01*
X56763133Y-69877693D02*
X56858371Y-69830074D01*
X56858371Y-69830074D02*
X56905990Y-69782455D01*
X56905990Y-69782455D02*
X56953609Y-69687217D01*
X56953609Y-69687217D02*
X56953609Y-69353884D01*
X101244800Y-114296265D02*
X101292419Y-114439122D01*
X101292419Y-114439122D02*
X101292419Y-114677217D01*
X101292419Y-114677217D02*
X101244800Y-114772455D01*
X101244800Y-114772455D02*
X101197180Y-114820074D01*
X101197180Y-114820074D02*
X101101942Y-114867693D01*
X101101942Y-114867693D02*
X101006704Y-114867693D01*
X101006704Y-114867693D02*
X100911466Y-114820074D01*
X100911466Y-114820074D02*
X100863847Y-114772455D01*
X100863847Y-114772455D02*
X100816228Y-114677217D01*
X100816228Y-114677217D02*
X100768609Y-114486741D01*
X100768609Y-114486741D02*
X100720990Y-114391503D01*
X100720990Y-114391503D02*
X100673371Y-114343884D01*
X100673371Y-114343884D02*
X100578133Y-114296265D01*
X100578133Y-114296265D02*
X100482895Y-114296265D01*
X100482895Y-114296265D02*
X100387657Y-114343884D01*
X100387657Y-114343884D02*
X100340038Y-114391503D01*
X100340038Y-114391503D02*
X100292419Y-114486741D01*
X100292419Y-114486741D02*
X100292419Y-114724836D01*
X100292419Y-114724836D02*
X100340038Y-114867693D01*
X100387657Y-115248646D02*
X100340038Y-115296265D01*
X100340038Y-115296265D02*
X100292419Y-115391503D01*
X100292419Y-115391503D02*
X100292419Y-115629598D01*
X100292419Y-115629598D02*
X100340038Y-115724836D01*
X100340038Y-115724836D02*
X100387657Y-115772455D01*
X100387657Y-115772455D02*
X100482895Y-115820074D01*
X100482895Y-115820074D02*
X100578133Y-115820074D01*
X100578133Y-115820074D02*
X100720990Y-115772455D01*
X100720990Y-115772455D02*
X101292419Y-115201027D01*
X101292419Y-115201027D02*
X101292419Y-115820074D01*
X57477419Y-104755312D02*
X57001228Y-104421979D01*
X57477419Y-104183884D02*
X56477419Y-104183884D01*
X56477419Y-104183884D02*
X56477419Y-104564836D01*
X56477419Y-104564836D02*
X56525038Y-104660074D01*
X56525038Y-104660074D02*
X56572657Y-104707693D01*
X56572657Y-104707693D02*
X56667895Y-104755312D01*
X56667895Y-104755312D02*
X56810752Y-104755312D01*
X56810752Y-104755312D02*
X56905990Y-104707693D01*
X56905990Y-104707693D02*
X56953609Y-104660074D01*
X56953609Y-104660074D02*
X57001228Y-104564836D01*
X57001228Y-104564836D02*
X57001228Y-104183884D01*
X57429800Y-105564836D02*
X57477419Y-105469598D01*
X57477419Y-105469598D02*
X57477419Y-105279122D01*
X57477419Y-105279122D02*
X57429800Y-105183884D01*
X57429800Y-105183884D02*
X57334561Y-105136265D01*
X57334561Y-105136265D02*
X56953609Y-105136265D01*
X56953609Y-105136265D02*
X56858371Y-105183884D01*
X56858371Y-105183884D02*
X56810752Y-105279122D01*
X56810752Y-105279122D02*
X56810752Y-105469598D01*
X56810752Y-105469598D02*
X56858371Y-105564836D01*
X56858371Y-105564836D02*
X56953609Y-105612455D01*
X56953609Y-105612455D02*
X57048847Y-105612455D01*
X57048847Y-105612455D02*
X57144085Y-105136265D01*
X57429800Y-105993408D02*
X57477419Y-106088646D01*
X57477419Y-106088646D02*
X57477419Y-106279122D01*
X57477419Y-106279122D02*
X57429800Y-106374360D01*
X57429800Y-106374360D02*
X57334561Y-106421979D01*
X57334561Y-106421979D02*
X57286942Y-106421979D01*
X57286942Y-106421979D02*
X57191704Y-106374360D01*
X57191704Y-106374360D02*
X57144085Y-106279122D01*
X57144085Y-106279122D02*
X57144085Y-106136265D01*
X57144085Y-106136265D02*
X57096466Y-106041027D01*
X57096466Y-106041027D02*
X57001228Y-105993408D01*
X57001228Y-105993408D02*
X56953609Y-105993408D01*
X56953609Y-105993408D02*
X56858371Y-106041027D01*
X56858371Y-106041027D02*
X56810752Y-106136265D01*
X56810752Y-106136265D02*
X56810752Y-106279122D01*
X56810752Y-106279122D02*
X56858371Y-106374360D01*
X57429800Y-107231503D02*
X57477419Y-107136265D01*
X57477419Y-107136265D02*
X57477419Y-106945789D01*
X57477419Y-106945789D02*
X57429800Y-106850551D01*
X57429800Y-106850551D02*
X57334561Y-106802932D01*
X57334561Y-106802932D02*
X56953609Y-106802932D01*
X56953609Y-106802932D02*
X56858371Y-106850551D01*
X56858371Y-106850551D02*
X56810752Y-106945789D01*
X56810752Y-106945789D02*
X56810752Y-107136265D01*
X56810752Y-107136265D02*
X56858371Y-107231503D01*
X56858371Y-107231503D02*
X56953609Y-107279122D01*
X56953609Y-107279122D02*
X57048847Y-107279122D01*
X57048847Y-107279122D02*
X57144085Y-106802932D01*
X56810752Y-107564837D02*
X56810752Y-107945789D01*
X56477419Y-107707694D02*
X57334561Y-107707694D01*
X57334561Y-107707694D02*
X57429800Y-107755313D01*
X57429800Y-107755313D02*
X57477419Y-107850551D01*
X57477419Y-107850551D02*
X57477419Y-107945789D01*
D13*
X55700000Y-60700000D02*
X159840000Y-60700000D01*
X55700000Y-116580000D02*
X55700000Y-60700000D01*
X159840000Y-60700000D02*
X159840000Y-116580000D01*
X159840000Y-116580000D02*
X55700000Y-116580000D01*
D12*
X55700000Y-65780000D02*
X58240000Y-65780000D01*
X58240000Y-72130000D01*
X55700000Y-72130000D01*
X55700000Y-65780000D01*
X55700000Y-102610000D02*
X58240000Y-102610000D01*
X58240000Y-110230000D01*
X55700000Y-110230000D01*
X55700000Y-102610000D01*
X98880000Y-60700000D02*
X103960000Y-60700000D01*
X103960000Y-64510000D01*
X98880000Y-64510000D01*
X98880000Y-60700000D01*
X98880000Y-112770000D02*
X103960000Y-112770000D01*
X103960000Y-116580000D01*
X98880000Y-116580000D01*
X98880000Y-112770000D01*
D14*
X106703200Y-63875000D02*
G75*
G02*
X106296800Y-63875000I-203200J0D01*
G01*
X106296800Y-63875000D02*
G75*
G02*
X106703200Y-63875000I203200J0D01*
G01*
%LPC*%
D15*
X80880000Y-83500000D03*
D16*
X88500000Y-83500000D03*
D15*
X68500000Y-62500000D03*
D16*
X76120000Y-62500000D03*
D17*
X82460000Y-123500000D03*
D18*
X85000000Y-123500000D03*
D15*
X68500000Y-42500000D03*
D16*
X76120000Y-42500000D03*
D19*
X137920000Y-42500000D03*
D18*
X140460000Y-42500000D03*
X143000000Y-42500000D03*
D15*
X68380000Y-66500000D03*
D16*
X76000000Y-66500000D03*
D20*
X85000000Y-63500000D03*
D21*
X85000000Y-66040000D03*
D15*
X68500000Y-50500000D03*
D16*
X76120000Y-50500000D03*
D22*
X65300000Y-84175000D03*
D23*
X62760000Y-84175000D03*
X60220000Y-84175000D03*
X57680000Y-84175000D03*
X57680000Y-91795000D03*
X60220000Y-91795000D03*
X62760000Y-91795000D03*
X65300000Y-91795000D03*
D15*
X56000000Y-72310000D03*
D16*
X56000000Y-64690000D03*
D24*
X128750000Y-78750000D03*
X135250000Y-78750000D03*
X128750000Y-83250000D03*
X135250000Y-83250000D03*
X139250000Y-69750000D03*
X145750000Y-69750000D03*
X139250000Y-74250000D03*
X145750000Y-74250000D03*
D15*
X68380000Y-70500000D03*
D16*
X76000000Y-70500000D03*
D25*
X94505000Y-124200000D03*
X95705000Y-115800000D03*
X118505000Y-115800000D03*
X119705000Y-124200000D03*
D26*
X90605000Y-118250000D03*
D27*
X90605000Y-121750000D03*
X123605000Y-118250000D03*
D15*
X68380000Y-58500000D03*
D16*
X76000000Y-58500000D03*
D15*
X99000000Y-47310000D03*
D16*
X99000000Y-39690000D03*
D17*
X60960000Y-43000000D03*
D18*
X63500000Y-43000000D03*
D28*
X61792500Y-113310000D03*
X61792500Y-110770000D03*
X61792500Y-108230000D03*
X69412500Y-120930000D03*
X71952500Y-120930000D03*
X74492500Y-120930000D03*
D29*
X64332500Y-104102500D03*
X64332500Y-117437500D03*
X79572500Y-117437500D03*
X79572500Y-104102500D03*
D28*
X68777500Y-103150000D03*
X75127500Y-103150000D03*
X68777500Y-98070000D03*
X75127500Y-98070000D03*
D17*
X130725000Y-118500000D03*
D18*
X133265000Y-118500000D03*
D30*
X56943800Y-49065000D03*
D31*
X62023800Y-49065000D03*
D20*
X85000000Y-50460000D03*
D21*
X85000000Y-53000000D03*
D32*
X161290000Y-41910000D03*
X161290000Y-123190000D03*
X54610000Y-41910000D03*
D15*
X136500000Y-56000000D03*
D16*
X128880000Y-56000000D03*
D32*
X54610000Y-123190000D03*
D33*
X71500000Y-90000000D03*
D34*
X76580000Y-90000000D03*
D15*
X80880000Y-58000000D03*
D16*
X88500000Y-58000000D03*
D17*
X130725000Y-124000000D03*
D18*
X133265000Y-124000000D03*
D20*
X116960000Y-43380000D03*
D21*
X119500000Y-43380000D03*
D33*
X71500000Y-79500000D03*
D34*
X76580000Y-79500000D03*
D28*
X136292500Y-111810000D03*
X136292500Y-109270000D03*
X136292500Y-106730000D03*
X143912500Y-119430000D03*
X146452500Y-119430000D03*
X148992500Y-119430000D03*
D29*
X138832500Y-102602500D03*
X138832500Y-115937500D03*
X154072500Y-115937500D03*
X154072500Y-102602500D03*
D28*
X143277500Y-101650000D03*
X149627500Y-101650000D03*
X143277500Y-96570000D03*
X149627500Y-96570000D03*
D24*
X149250000Y-78250000D03*
X155750000Y-78250000D03*
X149250000Y-82750000D03*
X155750000Y-82750000D03*
D15*
X124000000Y-47500000D03*
D16*
X124000000Y-39880000D03*
D15*
X136500000Y-60000000D03*
D16*
X128880000Y-60000000D03*
D15*
X111500000Y-47120000D03*
D16*
X111500000Y-39500000D03*
D15*
X55690000Y-54500000D03*
D16*
X63310000Y-54500000D03*
D15*
X136500000Y-48000000D03*
D16*
X128880000Y-48000000D03*
D15*
X68500000Y-54500000D03*
D16*
X76120000Y-54500000D03*
D15*
X136500000Y-52000000D03*
D16*
X128880000Y-52000000D03*
D24*
X146250000Y-90750000D03*
X139750000Y-90750000D03*
X146250000Y-86250000D03*
X139750000Y-86250000D03*
D15*
X68500000Y-46500000D03*
D16*
X76120000Y-46500000D03*
D19*
X53500000Y-101000000D03*
D18*
X53500000Y-103540000D03*
D20*
X85000000Y-76000000D03*
D21*
X85000000Y-78540000D03*
D20*
X91460000Y-43500000D03*
D21*
X94000000Y-43500000D03*
D19*
X85500000Y-90920000D03*
D18*
X85500000Y-93460000D03*
X85500000Y-96000000D03*
D20*
X103960000Y-43500000D03*
D21*
X106500000Y-43500000D03*
D15*
X81380000Y-71000000D03*
D16*
X89000000Y-71000000D03*
D35*
X92395000Y-51600000D03*
X92395000Y-102400000D03*
X121605000Y-51600000D03*
X121605000Y-102400000D03*
D36*
X95570000Y-102400000D03*
D28*
X98110000Y-102400000D03*
X100650000Y-102400000D03*
X103190000Y-102400000D03*
X105730000Y-102400000D03*
X108270000Y-102400000D03*
X110810000Y-102400000D03*
X113350000Y-102400000D03*
X115890000Y-102400000D03*
X118430000Y-102400000D03*
D37*
X106500000Y-65780000D03*
D38*
X109040000Y-65780000D03*
X111580000Y-65780000D03*
X114120000Y-65780000D03*
X116660000Y-65780000D03*
X119200000Y-65780000D03*
X121740000Y-65780000D03*
X124280000Y-65780000D03*
X126820000Y-65780000D03*
X129360000Y-65780000D03*
X106500000Y-111500000D03*
X109040000Y-111500000D03*
X111580000Y-111500000D03*
X114120000Y-111500000D03*
X116660000Y-111500000D03*
X119200000Y-111500000D03*
X121740000Y-111500000D03*
X124280000Y-111500000D03*
X126820000Y-111500000D03*
X129360000Y-111500000D03*
X106500000Y-68320000D03*
X109040000Y-68320000D03*
X111580000Y-68320000D03*
X114120000Y-68320000D03*
X116660000Y-68320000D03*
X119200000Y-68320000D03*
X121740000Y-68320000D03*
X124280000Y-68320000D03*
X126820000Y-68320000D03*
X129360000Y-68320000D03*
X106500000Y-108960000D03*
X109040000Y-108960000D03*
X111580000Y-108960000D03*
X114120000Y-108960000D03*
X116660000Y-108960000D03*
X119200000Y-108960000D03*
X121740000Y-108960000D03*
X124280000Y-108960000D03*
X126820000Y-108960000D03*
X129360000Y-108960000D03*
%LPD*%
M02*
