G04 #@! TF.GenerationSoftware,KiCad,Pcbnew,9.0.0*
G04 #@! TF.CreationDate,2025-03-23T13:33:12-05:00*
G04 #@! TF.ProjectId,CDR3585,43445233-3538-4352-9e6b-696361645f70,v1.0.1*
G04 #@! TF.SameCoordinates,Original*
G04 #@! TF.FileFunction,Legend,Top*
G04 #@! TF.FilePolarity,Positive*
%FSLAX46Y46*%
G04 Gerber Fmt 4.6, Leading zero omitted, Abs format (unit mm)*
G04 Created by KiCad (PCBNEW 9.0.0) date 2025-03-23 13:33:12*
%MOMM*%
%LPD*%
G01*
G04 APERTURE LIST*
G04 Aperture macros list*
%AMRoundRect*
0 Rectangle with rounded corners*
0 $1 Rounding radius*
0 $2 $3 $4 $5 $6 $7 $8 $9 X,Y pos of 4 corners*
0 Add a 4 corners polygon primitive as box body*
4,1,4,$2,$3,$4,$5,$6,$7,$8,$9,$2,$3,0*
0 Add four circle primitives for the rounded corners*
1,1,$1+$1,$2,$3*
1,1,$1+$1,$4,$5*
1,1,$1+$1,$6,$7*
1,1,$1+$1,$8,$9*
0 Add four rect primitives between the rounded corners*
20,1,$1+$1,$2,$3,$4,$5,0*
20,1,$1+$1,$4,$5,$6,$7,0*
20,1,$1+$1,$6,$7,$8,$9,0*
20,1,$1+$1,$8,$9,$2,$3,0*%
G04 Aperture macros list end*
%ADD10C,0.101600*%
%ADD11C,0.250000*%
%ADD12C,0.150000*%
%ADD13C,0.100000*%
%ADD14C,0.120000*%
%ADD15C,0.000000*%
%ADD16C,0.127000*%
%ADD17C,0.203200*%
%ADD18C,1.400000*%
%ADD19O,1.400000X1.400000*%
%ADD20C,1.700000*%
%ADD21O,1.700000X1.700000*%
%ADD22R,1.700000X1.700000*%
%ADD23R,1.800000X1.800000*%
%ADD24C,1.800000*%
%ADD25R,1.600000X2.400000*%
%ADD26O,1.600000X2.400000*%
%ADD27C,2.000000*%
%ADD28C,2.700000*%
%ADD29R,1.750000X1.750000*%
%ADD30C,1.750000*%
%ADD31C,1.778000*%
%ADD32C,2.286000*%
%ADD33C,1.600000*%
%ADD34O,1.600000X1.600000*%
%ADD35C,4.318000*%
%ADD36R,2.032000X2.032000*%
%ADD37C,2.032000*%
%ADD38C,2.200000*%
%ADD39RoundRect,0.102000X0.889000X-0.889000X0.889000X0.889000X-0.889000X0.889000X-0.889000X-0.889000X0*%
%ADD40C,1.982000*%
%ADD41RoundRect,0.102000X-0.760000X0.760000X-0.760000X-0.760000X0.760000X-0.760000X0.760000X0.760000X0*%
%ADD42C,1.724000*%
G04 APERTURE END LIST*
D10*
X139423270Y-39099461D02*
X139423270Y-39716318D01*
X139423270Y-39716318D02*
X139459556Y-39788890D01*
X139459556Y-39788890D02*
X139495842Y-39825176D01*
X139495842Y-39825176D02*
X139568413Y-39861461D01*
X139568413Y-39861461D02*
X139713556Y-39861461D01*
X139713556Y-39861461D02*
X139786127Y-39825176D01*
X139786127Y-39825176D02*
X139822413Y-39788890D01*
X139822413Y-39788890D02*
X139858699Y-39716318D01*
X139858699Y-39716318D02*
X139858699Y-39099461D01*
X140620699Y-39861461D02*
X140185270Y-39861461D01*
X140402985Y-39861461D02*
X140402985Y-39099461D01*
X140402985Y-39099461D02*
X140330413Y-39208318D01*
X140330413Y-39208318D02*
X140257842Y-39280890D01*
X140257842Y-39280890D02*
X140185270Y-39317176D01*
X141382699Y-39861461D02*
X141128699Y-39498604D01*
X140947270Y-39861461D02*
X140947270Y-39099461D01*
X140947270Y-39099461D02*
X141237556Y-39099461D01*
X141237556Y-39099461D02*
X141310127Y-39135747D01*
X141310127Y-39135747D02*
X141346413Y-39172033D01*
X141346413Y-39172033D02*
X141382699Y-39244604D01*
X141382699Y-39244604D02*
X141382699Y-39353461D01*
X141382699Y-39353461D02*
X141346413Y-39426033D01*
X141346413Y-39426033D02*
X141310127Y-39462318D01*
X141310127Y-39462318D02*
X141237556Y-39498604D01*
X141237556Y-39498604D02*
X140947270Y-39498604D01*
X141636699Y-39861461D02*
X142035842Y-39353461D01*
X141636699Y-39353461D02*
X142035842Y-39861461D01*
X137282413Y-39135747D02*
X137209842Y-39099461D01*
X137209842Y-39099461D02*
X137100984Y-39099461D01*
X137100984Y-39099461D02*
X136992127Y-39135747D01*
X136992127Y-39135747D02*
X136919556Y-39208318D01*
X136919556Y-39208318D02*
X136883270Y-39280890D01*
X136883270Y-39280890D02*
X136846984Y-39426033D01*
X136846984Y-39426033D02*
X136846984Y-39534890D01*
X136846984Y-39534890D02*
X136883270Y-39680033D01*
X136883270Y-39680033D02*
X136919556Y-39752604D01*
X136919556Y-39752604D02*
X136992127Y-39825176D01*
X136992127Y-39825176D02*
X137100984Y-39861461D01*
X137100984Y-39861461D02*
X137173556Y-39861461D01*
X137173556Y-39861461D02*
X137282413Y-39825176D01*
X137282413Y-39825176D02*
X137318699Y-39788890D01*
X137318699Y-39788890D02*
X137318699Y-39534890D01*
X137318699Y-39534890D02*
X137173556Y-39534890D01*
X137645270Y-39861461D02*
X137645270Y-39099461D01*
X137645270Y-39099461D02*
X138080699Y-39861461D01*
X138080699Y-39861461D02*
X138080699Y-39099461D01*
X138443556Y-39861461D02*
X138443556Y-39099461D01*
X138443556Y-39099461D02*
X138624985Y-39099461D01*
X138624985Y-39099461D02*
X138733842Y-39135747D01*
X138733842Y-39135747D02*
X138806413Y-39208318D01*
X138806413Y-39208318D02*
X138842699Y-39280890D01*
X138842699Y-39280890D02*
X138878985Y-39426033D01*
X138878985Y-39426033D02*
X138878985Y-39534890D01*
X138878985Y-39534890D02*
X138842699Y-39680033D01*
X138842699Y-39680033D02*
X138806413Y-39752604D01*
X138806413Y-39752604D02*
X138733842Y-39825176D01*
X138733842Y-39825176D02*
X138624985Y-39861461D01*
X138624985Y-39861461D02*
X138443556Y-39861461D01*
D11*
X140973996Y-64269380D02*
X140926377Y-64317000D01*
X140926377Y-64317000D02*
X140783520Y-64364619D01*
X140783520Y-64364619D02*
X140688282Y-64364619D01*
X140688282Y-64364619D02*
X140545425Y-64317000D01*
X140545425Y-64317000D02*
X140450187Y-64221761D01*
X140450187Y-64221761D02*
X140402568Y-64126523D01*
X140402568Y-64126523D02*
X140354949Y-63936047D01*
X140354949Y-63936047D02*
X140354949Y-63793190D01*
X140354949Y-63793190D02*
X140402568Y-63602714D01*
X140402568Y-63602714D02*
X140450187Y-63507476D01*
X140450187Y-63507476D02*
X140545425Y-63412238D01*
X140545425Y-63412238D02*
X140688282Y-63364619D01*
X140688282Y-63364619D02*
X140783520Y-63364619D01*
X140783520Y-63364619D02*
X140926377Y-63412238D01*
X140926377Y-63412238D02*
X140973996Y-63459857D01*
X141831139Y-64364619D02*
X141831139Y-63840809D01*
X141831139Y-63840809D02*
X141783520Y-63745571D01*
X141783520Y-63745571D02*
X141688282Y-63697952D01*
X141688282Y-63697952D02*
X141497806Y-63697952D01*
X141497806Y-63697952D02*
X141402568Y-63745571D01*
X141831139Y-64317000D02*
X141735901Y-64364619D01*
X141735901Y-64364619D02*
X141497806Y-64364619D01*
X141497806Y-64364619D02*
X141402568Y-64317000D01*
X141402568Y-64317000D02*
X141354949Y-64221761D01*
X141354949Y-64221761D02*
X141354949Y-64126523D01*
X141354949Y-64126523D02*
X141402568Y-64031285D01*
X141402568Y-64031285D02*
X141497806Y-63983666D01*
X141497806Y-63983666D02*
X141735901Y-63983666D01*
X141735901Y-63983666D02*
X141831139Y-63936047D01*
X142307330Y-64364619D02*
X142307330Y-63697952D01*
X142307330Y-63888428D02*
X142354949Y-63793190D01*
X142354949Y-63793190D02*
X142402568Y-63745571D01*
X142402568Y-63745571D02*
X142497806Y-63697952D01*
X142497806Y-63697952D02*
X142593044Y-63697952D01*
X143069235Y-64364619D02*
X142973997Y-64317000D01*
X142973997Y-64317000D02*
X142926378Y-64221761D01*
X142926378Y-64221761D02*
X142926378Y-63364619D01*
X143593045Y-64364619D02*
X143497807Y-64317000D01*
X143497807Y-64317000D02*
X143450188Y-64269380D01*
X143450188Y-64269380D02*
X143402569Y-64174142D01*
X143402569Y-64174142D02*
X143402569Y-63888428D01*
X143402569Y-63888428D02*
X143450188Y-63793190D01*
X143450188Y-63793190D02*
X143497807Y-63745571D01*
X143497807Y-63745571D02*
X143593045Y-63697952D01*
X143593045Y-63697952D02*
X143735902Y-63697952D01*
X143735902Y-63697952D02*
X143831140Y-63745571D01*
X143831140Y-63745571D02*
X143878759Y-63793190D01*
X143878759Y-63793190D02*
X143926378Y-63888428D01*
X143926378Y-63888428D02*
X143926378Y-64174142D01*
X143926378Y-64174142D02*
X143878759Y-64269380D01*
X143878759Y-64269380D02*
X143831140Y-64317000D01*
X143831140Y-64317000D02*
X143735902Y-64364619D01*
X143735902Y-64364619D02*
X143593045Y-64364619D01*
X144307331Y-64317000D02*
X144402569Y-64364619D01*
X144402569Y-64364619D02*
X144593045Y-64364619D01*
X144593045Y-64364619D02*
X144688283Y-64317000D01*
X144688283Y-64317000D02*
X144735902Y-64221761D01*
X144735902Y-64221761D02*
X144735902Y-64174142D01*
X144735902Y-64174142D02*
X144688283Y-64078904D01*
X144688283Y-64078904D02*
X144593045Y-64031285D01*
X144593045Y-64031285D02*
X144450188Y-64031285D01*
X144450188Y-64031285D02*
X144354950Y-63983666D01*
X144354950Y-63983666D02*
X144307331Y-63888428D01*
X144307331Y-63888428D02*
X144307331Y-63840809D01*
X144307331Y-63840809D02*
X144354950Y-63745571D01*
X144354950Y-63745571D02*
X144450188Y-63697952D01*
X144450188Y-63697952D02*
X144593045Y-63697952D01*
X144593045Y-63697952D02*
X144688283Y-63745571D01*
X146497807Y-64364619D02*
X146164474Y-63888428D01*
X145926379Y-64364619D02*
X145926379Y-63364619D01*
X145926379Y-63364619D02*
X146307331Y-63364619D01*
X146307331Y-63364619D02*
X146402569Y-63412238D01*
X146402569Y-63412238D02*
X146450188Y-63459857D01*
X146450188Y-63459857D02*
X146497807Y-63555095D01*
X146497807Y-63555095D02*
X146497807Y-63697952D01*
X146497807Y-63697952D02*
X146450188Y-63793190D01*
X146450188Y-63793190D02*
X146402569Y-63840809D01*
X146402569Y-63840809D02*
X146307331Y-63888428D01*
X146307331Y-63888428D02*
X145926379Y-63888428D01*
X147069236Y-64364619D02*
X146973998Y-64317000D01*
X146973998Y-64317000D02*
X146926379Y-64269380D01*
X146926379Y-64269380D02*
X146878760Y-64174142D01*
X146878760Y-64174142D02*
X146878760Y-63888428D01*
X146878760Y-63888428D02*
X146926379Y-63793190D01*
X146926379Y-63793190D02*
X146973998Y-63745571D01*
X146973998Y-63745571D02*
X147069236Y-63697952D01*
X147069236Y-63697952D02*
X147212093Y-63697952D01*
X147212093Y-63697952D02*
X147307331Y-63745571D01*
X147307331Y-63745571D02*
X147354950Y-63793190D01*
X147354950Y-63793190D02*
X147402569Y-63888428D01*
X147402569Y-63888428D02*
X147402569Y-64174142D01*
X147402569Y-64174142D02*
X147354950Y-64269380D01*
X147354950Y-64269380D02*
X147307331Y-64317000D01*
X147307331Y-64317000D02*
X147212093Y-64364619D01*
X147212093Y-64364619D02*
X147069236Y-64364619D01*
X147831141Y-63697952D02*
X147831141Y-64555095D01*
X147831141Y-64555095D02*
X147783522Y-64650333D01*
X147783522Y-64650333D02*
X147688284Y-64697952D01*
X147688284Y-64697952D02*
X147640665Y-64697952D01*
X147831141Y-63364619D02*
X147783522Y-63412238D01*
X147783522Y-63412238D02*
X147831141Y-63459857D01*
X147831141Y-63459857D02*
X147878760Y-63412238D01*
X147878760Y-63412238D02*
X147831141Y-63364619D01*
X147831141Y-63364619D02*
X147831141Y-63459857D01*
X148735902Y-64364619D02*
X148735902Y-63840809D01*
X148735902Y-63840809D02*
X148688283Y-63745571D01*
X148688283Y-63745571D02*
X148593045Y-63697952D01*
X148593045Y-63697952D02*
X148402569Y-63697952D01*
X148402569Y-63697952D02*
X148307331Y-63745571D01*
X148735902Y-64317000D02*
X148640664Y-64364619D01*
X148640664Y-64364619D02*
X148402569Y-64364619D01*
X148402569Y-64364619D02*
X148307331Y-64317000D01*
X148307331Y-64317000D02*
X148259712Y-64221761D01*
X148259712Y-64221761D02*
X148259712Y-64126523D01*
X148259712Y-64126523D02*
X148307331Y-64031285D01*
X148307331Y-64031285D02*
X148402569Y-63983666D01*
X148402569Y-63983666D02*
X148640664Y-63983666D01*
X148640664Y-63983666D02*
X148735902Y-63936047D01*
X149164474Y-64317000D02*
X149259712Y-64364619D01*
X149259712Y-64364619D02*
X149450188Y-64364619D01*
X149450188Y-64364619D02*
X149545426Y-64317000D01*
X149545426Y-64317000D02*
X149593045Y-64221761D01*
X149593045Y-64221761D02*
X149593045Y-64174142D01*
X149593045Y-64174142D02*
X149545426Y-64078904D01*
X149545426Y-64078904D02*
X149450188Y-64031285D01*
X149450188Y-64031285D02*
X149307331Y-64031285D01*
X149307331Y-64031285D02*
X149212093Y-63983666D01*
X149212093Y-63983666D02*
X149164474Y-63888428D01*
X149164474Y-63888428D02*
X149164474Y-63840809D01*
X149164474Y-63840809D02*
X149212093Y-63745571D01*
X149212093Y-63745571D02*
X149307331Y-63697952D01*
X149307331Y-63697952D02*
X149450188Y-63697952D01*
X149450188Y-63697952D02*
X149545426Y-63745571D01*
X150069236Y-64317000D02*
X150069236Y-64364619D01*
X150069236Y-64364619D02*
X150021617Y-64459857D01*
X150021617Y-64459857D02*
X149973998Y-64507476D01*
X151783521Y-63412238D02*
X151688283Y-63364619D01*
X151688283Y-63364619D02*
X151545426Y-63364619D01*
X151545426Y-63364619D02*
X151402569Y-63412238D01*
X151402569Y-63412238D02*
X151307331Y-63507476D01*
X151307331Y-63507476D02*
X151259712Y-63602714D01*
X151259712Y-63602714D02*
X151212093Y-63793190D01*
X151212093Y-63793190D02*
X151212093Y-63936047D01*
X151212093Y-63936047D02*
X151259712Y-64126523D01*
X151259712Y-64126523D02*
X151307331Y-64221761D01*
X151307331Y-64221761D02*
X151402569Y-64317000D01*
X151402569Y-64317000D02*
X151545426Y-64364619D01*
X151545426Y-64364619D02*
X151640664Y-64364619D01*
X151640664Y-64364619D02*
X151783521Y-64317000D01*
X151783521Y-64317000D02*
X151831140Y-64269380D01*
X151831140Y-64269380D02*
X151831140Y-63936047D01*
X151831140Y-63936047D02*
X151640664Y-63936047D01*
X152259712Y-64364619D02*
X152259712Y-63697952D01*
X152259712Y-63888428D02*
X152307331Y-63793190D01*
X152307331Y-63793190D02*
X152354950Y-63745571D01*
X152354950Y-63745571D02*
X152450188Y-63697952D01*
X152450188Y-63697952D02*
X152545426Y-63697952D01*
X153307331Y-64364619D02*
X153307331Y-63840809D01*
X153307331Y-63840809D02*
X153259712Y-63745571D01*
X153259712Y-63745571D02*
X153164474Y-63697952D01*
X153164474Y-63697952D02*
X152973998Y-63697952D01*
X152973998Y-63697952D02*
X152878760Y-63745571D01*
X153307331Y-64317000D02*
X153212093Y-64364619D01*
X153212093Y-64364619D02*
X152973998Y-64364619D01*
X152973998Y-64364619D02*
X152878760Y-64317000D01*
X152878760Y-64317000D02*
X152831141Y-64221761D01*
X152831141Y-64221761D02*
X152831141Y-64126523D01*
X152831141Y-64126523D02*
X152878760Y-64031285D01*
X152878760Y-64031285D02*
X152973998Y-63983666D01*
X152973998Y-63983666D02*
X153212093Y-63983666D01*
X153212093Y-63983666D02*
X153307331Y-63936047D01*
X153783522Y-63697952D02*
X153783522Y-64364619D01*
X153783522Y-63793190D02*
X153831141Y-63745571D01*
X153831141Y-63745571D02*
X153926379Y-63697952D01*
X153926379Y-63697952D02*
X154069236Y-63697952D01*
X154069236Y-63697952D02*
X154164474Y-63745571D01*
X154164474Y-63745571D02*
X154212093Y-63840809D01*
X154212093Y-63840809D02*
X154212093Y-64364619D01*
X154545427Y-63697952D02*
X154926379Y-63697952D01*
X154688284Y-63364619D02*
X154688284Y-64221761D01*
X154688284Y-64221761D02*
X154735903Y-64317000D01*
X154735903Y-64317000D02*
X154831141Y-64364619D01*
X154831141Y-64364619D02*
X154926379Y-64364619D01*
X156212094Y-63364619D02*
X156402570Y-63364619D01*
X156402570Y-63364619D02*
X156497808Y-63412238D01*
X156497808Y-63412238D02*
X156593046Y-63507476D01*
X156593046Y-63507476D02*
X156640665Y-63697952D01*
X156640665Y-63697952D02*
X156640665Y-64031285D01*
X156640665Y-64031285D02*
X156593046Y-64221761D01*
X156593046Y-64221761D02*
X156497808Y-64317000D01*
X156497808Y-64317000D02*
X156402570Y-64364619D01*
X156402570Y-64364619D02*
X156212094Y-64364619D01*
X156212094Y-64364619D02*
X156116856Y-64317000D01*
X156116856Y-64317000D02*
X156021618Y-64221761D01*
X156021618Y-64221761D02*
X155973999Y-64031285D01*
X155973999Y-64031285D02*
X155973999Y-63697952D01*
X155973999Y-63697952D02*
X156021618Y-63507476D01*
X156021618Y-63507476D02*
X156116856Y-63412238D01*
X156116856Y-63412238D02*
X156212094Y-63364619D01*
X157021618Y-64317000D02*
X157116856Y-64364619D01*
X157116856Y-64364619D02*
X157307332Y-64364619D01*
X157307332Y-64364619D02*
X157402570Y-64317000D01*
X157402570Y-64317000D02*
X157450189Y-64221761D01*
X157450189Y-64221761D02*
X157450189Y-64174142D01*
X157450189Y-64174142D02*
X157402570Y-64078904D01*
X157402570Y-64078904D02*
X157307332Y-64031285D01*
X157307332Y-64031285D02*
X157164475Y-64031285D01*
X157164475Y-64031285D02*
X157069237Y-63983666D01*
X157069237Y-63983666D02*
X157021618Y-63888428D01*
X157021618Y-63888428D02*
X157021618Y-63840809D01*
X157021618Y-63840809D02*
X157069237Y-63745571D01*
X157069237Y-63745571D02*
X157164475Y-63697952D01*
X157164475Y-63697952D02*
X157307332Y-63697952D01*
X157307332Y-63697952D02*
X157402570Y-63745571D01*
X157878761Y-64364619D02*
X157878761Y-63697952D01*
X157878761Y-63364619D02*
X157831142Y-63412238D01*
X157831142Y-63412238D02*
X157878761Y-63459857D01*
X157878761Y-63459857D02*
X157926380Y-63412238D01*
X157926380Y-63412238D02*
X157878761Y-63364619D01*
X157878761Y-63364619D02*
X157878761Y-63459857D01*
X158354951Y-63697952D02*
X158354951Y-64364619D01*
X158354951Y-63793190D02*
X158402570Y-63745571D01*
X158402570Y-63745571D02*
X158497808Y-63697952D01*
X158497808Y-63697952D02*
X158640665Y-63697952D01*
X158640665Y-63697952D02*
X158735903Y-63745571D01*
X158735903Y-63745571D02*
X158783522Y-63840809D01*
X158783522Y-63840809D02*
X158783522Y-64364619D01*
X159688284Y-64364619D02*
X159688284Y-63364619D01*
X159688284Y-64317000D02*
X159593046Y-64364619D01*
X159593046Y-64364619D02*
X159402570Y-64364619D01*
X159402570Y-64364619D02*
X159307332Y-64317000D01*
X159307332Y-64317000D02*
X159259713Y-64269380D01*
X159259713Y-64269380D02*
X159212094Y-64174142D01*
X159212094Y-64174142D02*
X159212094Y-63888428D01*
X159212094Y-63888428D02*
X159259713Y-63793190D01*
X159259713Y-63793190D02*
X159307332Y-63745571D01*
X159307332Y-63745571D02*
X159402570Y-63697952D01*
X159402570Y-63697952D02*
X159593046Y-63697952D01*
X159593046Y-63697952D02*
X159688284Y-63745571D01*
X160545427Y-64317000D02*
X160450189Y-64364619D01*
X160450189Y-64364619D02*
X160259713Y-64364619D01*
X160259713Y-64364619D02*
X160164475Y-64317000D01*
X160164475Y-64317000D02*
X160116856Y-64221761D01*
X160116856Y-64221761D02*
X160116856Y-63840809D01*
X160116856Y-63840809D02*
X160164475Y-63745571D01*
X160164475Y-63745571D02*
X160259713Y-63697952D01*
X160259713Y-63697952D02*
X160450189Y-63697952D01*
X160450189Y-63697952D02*
X160545427Y-63745571D01*
X160545427Y-63745571D02*
X160593046Y-63840809D01*
X160593046Y-63840809D02*
X160593046Y-63936047D01*
X160593046Y-63936047D02*
X160116856Y-64031285D01*
D10*
X81023270Y-96496461D02*
X81023270Y-95734461D01*
X81023270Y-95734461D02*
X81313556Y-95734461D01*
X81313556Y-95734461D02*
X81386127Y-95770747D01*
X81386127Y-95770747D02*
X81422413Y-95807033D01*
X81422413Y-95807033D02*
X81458699Y-95879604D01*
X81458699Y-95879604D02*
X81458699Y-95988461D01*
X81458699Y-95988461D02*
X81422413Y-96061033D01*
X81422413Y-96061033D02*
X81386127Y-96097318D01*
X81386127Y-96097318D02*
X81313556Y-96133604D01*
X81313556Y-96133604D02*
X81023270Y-96133604D01*
X81930413Y-95734461D02*
X82075556Y-95734461D01*
X82075556Y-95734461D02*
X82148127Y-95770747D01*
X82148127Y-95770747D02*
X82220699Y-95843318D01*
X82220699Y-95843318D02*
X82256984Y-95988461D01*
X82256984Y-95988461D02*
X82256984Y-96242461D01*
X82256984Y-96242461D02*
X82220699Y-96387604D01*
X82220699Y-96387604D02*
X82148127Y-96460176D01*
X82148127Y-96460176D02*
X82075556Y-96496461D01*
X82075556Y-96496461D02*
X81930413Y-96496461D01*
X81930413Y-96496461D02*
X81857842Y-96460176D01*
X81857842Y-96460176D02*
X81785270Y-96387604D01*
X81785270Y-96387604D02*
X81748984Y-96242461D01*
X81748984Y-96242461D02*
X81748984Y-95988461D01*
X81748984Y-95988461D02*
X81785270Y-95843318D01*
X81785270Y-95843318D02*
X81857842Y-95770747D01*
X81857842Y-95770747D02*
X81930413Y-95734461D01*
X82474699Y-95734461D02*
X82910128Y-95734461D01*
X82692413Y-96496461D02*
X82692413Y-95734461D01*
X142598270Y-39099461D02*
X142598270Y-39716318D01*
X142598270Y-39716318D02*
X142634556Y-39788890D01*
X142634556Y-39788890D02*
X142670842Y-39825176D01*
X142670842Y-39825176D02*
X142743413Y-39861461D01*
X142743413Y-39861461D02*
X142888556Y-39861461D01*
X142888556Y-39861461D02*
X142961127Y-39825176D01*
X142961127Y-39825176D02*
X142997413Y-39788890D01*
X142997413Y-39788890D02*
X143033699Y-39716318D01*
X143033699Y-39716318D02*
X143033699Y-39099461D01*
X143795699Y-39861461D02*
X143360270Y-39861461D01*
X143577985Y-39861461D02*
X143577985Y-39099461D01*
X143577985Y-39099461D02*
X143505413Y-39208318D01*
X143505413Y-39208318D02*
X143432842Y-39280890D01*
X143432842Y-39280890D02*
X143360270Y-39317176D01*
X144013413Y-39099461D02*
X144448842Y-39099461D01*
X144231127Y-39861461D02*
X144231127Y-39099461D01*
X144630270Y-39861461D02*
X145029413Y-39353461D01*
X144630270Y-39353461D02*
X145029413Y-39861461D01*
D11*
X144402568Y-60230865D02*
X144735901Y-60230865D01*
X144878758Y-60754675D02*
X144402568Y-60754675D01*
X144402568Y-60754675D02*
X144402568Y-59754675D01*
X144402568Y-59754675D02*
X144878758Y-59754675D01*
X145878758Y-60659436D02*
X145831139Y-60707056D01*
X145831139Y-60707056D02*
X145688282Y-60754675D01*
X145688282Y-60754675D02*
X145593044Y-60754675D01*
X145593044Y-60754675D02*
X145450187Y-60707056D01*
X145450187Y-60707056D02*
X145354949Y-60611817D01*
X145354949Y-60611817D02*
X145307330Y-60516579D01*
X145307330Y-60516579D02*
X145259711Y-60326103D01*
X145259711Y-60326103D02*
X145259711Y-60183246D01*
X145259711Y-60183246D02*
X145307330Y-59992770D01*
X145307330Y-59992770D02*
X145354949Y-59897532D01*
X145354949Y-59897532D02*
X145450187Y-59802294D01*
X145450187Y-59802294D02*
X145593044Y-59754675D01*
X145593044Y-59754675D02*
X145688282Y-59754675D01*
X145688282Y-59754675D02*
X145831139Y-59802294D01*
X145831139Y-59802294D02*
X145878758Y-59849913D01*
X146307330Y-60230865D02*
X146640663Y-60230865D01*
X146783520Y-60754675D02*
X146307330Y-60754675D01*
X146307330Y-60754675D02*
X146307330Y-59754675D01*
X146307330Y-59754675D02*
X146783520Y-59754675D01*
X147116854Y-59754675D02*
X147735901Y-59754675D01*
X147735901Y-59754675D02*
X147402568Y-60135627D01*
X147402568Y-60135627D02*
X147545425Y-60135627D01*
X147545425Y-60135627D02*
X147640663Y-60183246D01*
X147640663Y-60183246D02*
X147688282Y-60230865D01*
X147688282Y-60230865D02*
X147735901Y-60326103D01*
X147735901Y-60326103D02*
X147735901Y-60564198D01*
X147735901Y-60564198D02*
X147688282Y-60659436D01*
X147688282Y-60659436D02*
X147640663Y-60707056D01*
X147640663Y-60707056D02*
X147545425Y-60754675D01*
X147545425Y-60754675D02*
X147259711Y-60754675D01*
X147259711Y-60754675D02*
X147164473Y-60707056D01*
X147164473Y-60707056D02*
X147116854Y-60659436D01*
X148688282Y-60754675D02*
X148116854Y-60754675D01*
X148402568Y-60754675D02*
X148402568Y-59754675D01*
X148402568Y-59754675D02*
X148307330Y-59897532D01*
X148307330Y-59897532D02*
X148212092Y-59992770D01*
X148212092Y-59992770D02*
X148116854Y-60040389D01*
X149164473Y-60754675D02*
X149354949Y-60754675D01*
X149354949Y-60754675D02*
X149450187Y-60707056D01*
X149450187Y-60707056D02*
X149497806Y-60659436D01*
X149497806Y-60659436D02*
X149593044Y-60516579D01*
X149593044Y-60516579D02*
X149640663Y-60326103D01*
X149640663Y-60326103D02*
X149640663Y-59945151D01*
X149640663Y-59945151D02*
X149593044Y-59849913D01*
X149593044Y-59849913D02*
X149545425Y-59802294D01*
X149545425Y-59802294D02*
X149450187Y-59754675D01*
X149450187Y-59754675D02*
X149259711Y-59754675D01*
X149259711Y-59754675D02*
X149164473Y-59802294D01*
X149164473Y-59802294D02*
X149116854Y-59849913D01*
X149116854Y-59849913D02*
X149069235Y-59945151D01*
X149069235Y-59945151D02*
X149069235Y-60183246D01*
X149069235Y-60183246D02*
X149116854Y-60278484D01*
X149116854Y-60278484D02*
X149164473Y-60326103D01*
X149164473Y-60326103D02*
X149259711Y-60373722D01*
X149259711Y-60373722D02*
X149450187Y-60373722D01*
X149450187Y-60373722D02*
X149545425Y-60326103D01*
X149545425Y-60326103D02*
X149593044Y-60278484D01*
X149593044Y-60278484D02*
X149640663Y-60183246D01*
X150069235Y-60754675D02*
X150069235Y-59754675D01*
X150640663Y-60754675D02*
X150212092Y-60183246D01*
X150640663Y-59754675D02*
X150069235Y-60326103D01*
X151831140Y-60754675D02*
X151831140Y-59754675D01*
X151831140Y-59754675D02*
X152212092Y-59754675D01*
X152212092Y-59754675D02*
X152307330Y-59802294D01*
X152307330Y-59802294D02*
X152354949Y-59849913D01*
X152354949Y-59849913D02*
X152402568Y-59945151D01*
X152402568Y-59945151D02*
X152402568Y-60088008D01*
X152402568Y-60088008D02*
X152354949Y-60183246D01*
X152354949Y-60183246D02*
X152307330Y-60230865D01*
X152307330Y-60230865D02*
X152212092Y-60278484D01*
X152212092Y-60278484D02*
X151831140Y-60278484D01*
X153402568Y-60659436D02*
X153354949Y-60707056D01*
X153354949Y-60707056D02*
X153212092Y-60754675D01*
X153212092Y-60754675D02*
X153116854Y-60754675D01*
X153116854Y-60754675D02*
X152973997Y-60707056D01*
X152973997Y-60707056D02*
X152878759Y-60611817D01*
X152878759Y-60611817D02*
X152831140Y-60516579D01*
X152831140Y-60516579D02*
X152783521Y-60326103D01*
X152783521Y-60326103D02*
X152783521Y-60183246D01*
X152783521Y-60183246D02*
X152831140Y-59992770D01*
X152831140Y-59992770D02*
X152878759Y-59897532D01*
X152878759Y-59897532D02*
X152973997Y-59802294D01*
X152973997Y-59802294D02*
X153116854Y-59754675D01*
X153116854Y-59754675D02*
X153212092Y-59754675D01*
X153212092Y-59754675D02*
X153354949Y-59802294D01*
X153354949Y-59802294D02*
X153402568Y-59849913D01*
X154164473Y-60230865D02*
X154307330Y-60278484D01*
X154307330Y-60278484D02*
X154354949Y-60326103D01*
X154354949Y-60326103D02*
X154402568Y-60421341D01*
X154402568Y-60421341D02*
X154402568Y-60564198D01*
X154402568Y-60564198D02*
X154354949Y-60659436D01*
X154354949Y-60659436D02*
X154307330Y-60707056D01*
X154307330Y-60707056D02*
X154212092Y-60754675D01*
X154212092Y-60754675D02*
X153831140Y-60754675D01*
X153831140Y-60754675D02*
X153831140Y-59754675D01*
X153831140Y-59754675D02*
X154164473Y-59754675D01*
X154164473Y-59754675D02*
X154259711Y-59802294D01*
X154259711Y-59802294D02*
X154307330Y-59849913D01*
X154307330Y-59849913D02*
X154354949Y-59945151D01*
X154354949Y-59945151D02*
X154354949Y-60040389D01*
X154354949Y-60040389D02*
X154307330Y-60135627D01*
X154307330Y-60135627D02*
X154259711Y-60183246D01*
X154259711Y-60183246D02*
X154164473Y-60230865D01*
X154164473Y-60230865D02*
X153831140Y-60230865D01*
X156021616Y-60707056D02*
X155926378Y-60754675D01*
X155926378Y-60754675D02*
X155735902Y-60754675D01*
X155735902Y-60754675D02*
X155640664Y-60707056D01*
X155640664Y-60707056D02*
X155593045Y-60659436D01*
X155593045Y-60659436D02*
X155545426Y-60564198D01*
X155545426Y-60564198D02*
X155545426Y-60278484D01*
X155545426Y-60278484D02*
X155593045Y-60183246D01*
X155593045Y-60183246D02*
X155640664Y-60135627D01*
X155640664Y-60135627D02*
X155735902Y-60088008D01*
X155735902Y-60088008D02*
X155926378Y-60088008D01*
X155926378Y-60088008D02*
X156021616Y-60135627D01*
X156878759Y-60754675D02*
X156878759Y-60230865D01*
X156878759Y-60230865D02*
X156831140Y-60135627D01*
X156831140Y-60135627D02*
X156735902Y-60088008D01*
X156735902Y-60088008D02*
X156545426Y-60088008D01*
X156545426Y-60088008D02*
X156450188Y-60135627D01*
X156878759Y-60707056D02*
X156783521Y-60754675D01*
X156783521Y-60754675D02*
X156545426Y-60754675D01*
X156545426Y-60754675D02*
X156450188Y-60707056D01*
X156450188Y-60707056D02*
X156402569Y-60611817D01*
X156402569Y-60611817D02*
X156402569Y-60516579D01*
X156402569Y-60516579D02*
X156450188Y-60421341D01*
X156450188Y-60421341D02*
X156545426Y-60373722D01*
X156545426Y-60373722D02*
X156783521Y-60373722D01*
X156783521Y-60373722D02*
X156878759Y-60326103D01*
X157354950Y-60754675D02*
X157354950Y-60088008D01*
X157354950Y-60183246D02*
X157402569Y-60135627D01*
X157402569Y-60135627D02*
X157497807Y-60088008D01*
X157497807Y-60088008D02*
X157640664Y-60088008D01*
X157640664Y-60088008D02*
X157735902Y-60135627D01*
X157735902Y-60135627D02*
X157783521Y-60230865D01*
X157783521Y-60230865D02*
X157783521Y-60754675D01*
X157783521Y-60230865D02*
X157831140Y-60135627D01*
X157831140Y-60135627D02*
X157926378Y-60088008D01*
X157926378Y-60088008D02*
X158069235Y-60088008D01*
X158069235Y-60088008D02*
X158164474Y-60135627D01*
X158164474Y-60135627D02*
X158212093Y-60230865D01*
X158212093Y-60230865D02*
X158212093Y-60754675D01*
X158688283Y-60088008D02*
X158688283Y-61088008D01*
X158688283Y-60135627D02*
X158783521Y-60088008D01*
X158783521Y-60088008D02*
X158973997Y-60088008D01*
X158973997Y-60088008D02*
X159069235Y-60135627D01*
X159069235Y-60135627D02*
X159116854Y-60183246D01*
X159116854Y-60183246D02*
X159164473Y-60278484D01*
X159164473Y-60278484D02*
X159164473Y-60564198D01*
X159164473Y-60564198D02*
X159116854Y-60659436D01*
X159116854Y-60659436D02*
X159069235Y-60707056D01*
X159069235Y-60707056D02*
X158973997Y-60754675D01*
X158973997Y-60754675D02*
X158783521Y-60754675D01*
X158783521Y-60754675D02*
X158688283Y-60707056D01*
X144354949Y-62317000D02*
X144497806Y-62364619D01*
X144497806Y-62364619D02*
X144735901Y-62364619D01*
X144735901Y-62364619D02*
X144831139Y-62317000D01*
X144831139Y-62317000D02*
X144878758Y-62269380D01*
X144878758Y-62269380D02*
X144926377Y-62174142D01*
X144926377Y-62174142D02*
X144926377Y-62078904D01*
X144926377Y-62078904D02*
X144878758Y-61983666D01*
X144878758Y-61983666D02*
X144831139Y-61936047D01*
X144831139Y-61936047D02*
X144735901Y-61888428D01*
X144735901Y-61888428D02*
X144545425Y-61840809D01*
X144545425Y-61840809D02*
X144450187Y-61793190D01*
X144450187Y-61793190D02*
X144402568Y-61745571D01*
X144402568Y-61745571D02*
X144354949Y-61650333D01*
X144354949Y-61650333D02*
X144354949Y-61555095D01*
X144354949Y-61555095D02*
X144402568Y-61459857D01*
X144402568Y-61459857D02*
X144450187Y-61412238D01*
X144450187Y-61412238D02*
X144545425Y-61364619D01*
X144545425Y-61364619D02*
X144783520Y-61364619D01*
X144783520Y-61364619D02*
X144926377Y-61412238D01*
X145354949Y-61697952D02*
X145354949Y-62697952D01*
X145354949Y-61745571D02*
X145450187Y-61697952D01*
X145450187Y-61697952D02*
X145640663Y-61697952D01*
X145640663Y-61697952D02*
X145735901Y-61745571D01*
X145735901Y-61745571D02*
X145783520Y-61793190D01*
X145783520Y-61793190D02*
X145831139Y-61888428D01*
X145831139Y-61888428D02*
X145831139Y-62174142D01*
X145831139Y-62174142D02*
X145783520Y-62269380D01*
X145783520Y-62269380D02*
X145735901Y-62317000D01*
X145735901Y-62317000D02*
X145640663Y-62364619D01*
X145640663Y-62364619D02*
X145450187Y-62364619D01*
X145450187Y-62364619D02*
X145354949Y-62317000D01*
X146259711Y-62364619D02*
X146259711Y-61697952D01*
X146259711Y-61888428D02*
X146307330Y-61793190D01*
X146307330Y-61793190D02*
X146354949Y-61745571D01*
X146354949Y-61745571D02*
X146450187Y-61697952D01*
X146450187Y-61697952D02*
X146545425Y-61697952D01*
X146878759Y-62364619D02*
X146878759Y-61697952D01*
X146878759Y-61364619D02*
X146831140Y-61412238D01*
X146831140Y-61412238D02*
X146878759Y-61459857D01*
X146878759Y-61459857D02*
X146926378Y-61412238D01*
X146926378Y-61412238D02*
X146878759Y-61364619D01*
X146878759Y-61364619D02*
X146878759Y-61459857D01*
X147354949Y-61697952D02*
X147354949Y-62364619D01*
X147354949Y-61793190D02*
X147402568Y-61745571D01*
X147402568Y-61745571D02*
X147497806Y-61697952D01*
X147497806Y-61697952D02*
X147640663Y-61697952D01*
X147640663Y-61697952D02*
X147735901Y-61745571D01*
X147735901Y-61745571D02*
X147783520Y-61840809D01*
X147783520Y-61840809D02*
X147783520Y-62364619D01*
X148688282Y-61697952D02*
X148688282Y-62507476D01*
X148688282Y-62507476D02*
X148640663Y-62602714D01*
X148640663Y-62602714D02*
X148593044Y-62650333D01*
X148593044Y-62650333D02*
X148497806Y-62697952D01*
X148497806Y-62697952D02*
X148354949Y-62697952D01*
X148354949Y-62697952D02*
X148259711Y-62650333D01*
X148688282Y-62317000D02*
X148593044Y-62364619D01*
X148593044Y-62364619D02*
X148402568Y-62364619D01*
X148402568Y-62364619D02*
X148307330Y-62317000D01*
X148307330Y-62317000D02*
X148259711Y-62269380D01*
X148259711Y-62269380D02*
X148212092Y-62174142D01*
X148212092Y-62174142D02*
X148212092Y-61888428D01*
X148212092Y-61888428D02*
X148259711Y-61793190D01*
X148259711Y-61793190D02*
X148307330Y-61745571D01*
X148307330Y-61745571D02*
X148402568Y-61697952D01*
X148402568Y-61697952D02*
X148593044Y-61697952D01*
X148593044Y-61697952D02*
X148688282Y-61745571D01*
X149878759Y-61459857D02*
X149926378Y-61412238D01*
X149926378Y-61412238D02*
X150021616Y-61364619D01*
X150021616Y-61364619D02*
X150259711Y-61364619D01*
X150259711Y-61364619D02*
X150354949Y-61412238D01*
X150354949Y-61412238D02*
X150402568Y-61459857D01*
X150402568Y-61459857D02*
X150450187Y-61555095D01*
X150450187Y-61555095D02*
X150450187Y-61650333D01*
X150450187Y-61650333D02*
X150402568Y-61793190D01*
X150402568Y-61793190D02*
X149831140Y-62364619D01*
X149831140Y-62364619D02*
X150450187Y-62364619D01*
X151069235Y-61364619D02*
X151164473Y-61364619D01*
X151164473Y-61364619D02*
X151259711Y-61412238D01*
X151259711Y-61412238D02*
X151307330Y-61459857D01*
X151307330Y-61459857D02*
X151354949Y-61555095D01*
X151354949Y-61555095D02*
X151402568Y-61745571D01*
X151402568Y-61745571D02*
X151402568Y-61983666D01*
X151402568Y-61983666D02*
X151354949Y-62174142D01*
X151354949Y-62174142D02*
X151307330Y-62269380D01*
X151307330Y-62269380D02*
X151259711Y-62317000D01*
X151259711Y-62317000D02*
X151164473Y-62364619D01*
X151164473Y-62364619D02*
X151069235Y-62364619D01*
X151069235Y-62364619D02*
X150973997Y-62317000D01*
X150973997Y-62317000D02*
X150926378Y-62269380D01*
X150926378Y-62269380D02*
X150878759Y-62174142D01*
X150878759Y-62174142D02*
X150831140Y-61983666D01*
X150831140Y-61983666D02*
X150831140Y-61745571D01*
X150831140Y-61745571D02*
X150878759Y-61555095D01*
X150878759Y-61555095D02*
X150926378Y-61459857D01*
X150926378Y-61459857D02*
X150973997Y-61412238D01*
X150973997Y-61412238D02*
X151069235Y-61364619D01*
X151783521Y-61459857D02*
X151831140Y-61412238D01*
X151831140Y-61412238D02*
X151926378Y-61364619D01*
X151926378Y-61364619D02*
X152164473Y-61364619D01*
X152164473Y-61364619D02*
X152259711Y-61412238D01*
X152259711Y-61412238D02*
X152307330Y-61459857D01*
X152307330Y-61459857D02*
X152354949Y-61555095D01*
X152354949Y-61555095D02*
X152354949Y-61650333D01*
X152354949Y-61650333D02*
X152307330Y-61793190D01*
X152307330Y-61793190D02*
X151735902Y-62364619D01*
X151735902Y-62364619D02*
X152354949Y-62364619D01*
X153259711Y-61364619D02*
X152783521Y-61364619D01*
X152783521Y-61364619D02*
X152735902Y-61840809D01*
X152735902Y-61840809D02*
X152783521Y-61793190D01*
X152783521Y-61793190D02*
X152878759Y-61745571D01*
X152878759Y-61745571D02*
X153116854Y-61745571D01*
X153116854Y-61745571D02*
X153212092Y-61793190D01*
X153212092Y-61793190D02*
X153259711Y-61840809D01*
X153259711Y-61840809D02*
X153307330Y-61936047D01*
X153307330Y-61936047D02*
X153307330Y-62174142D01*
X153307330Y-62174142D02*
X153259711Y-62269380D01*
X153259711Y-62269380D02*
X153212092Y-62317000D01*
X153212092Y-62317000D02*
X153116854Y-62364619D01*
X153116854Y-62364619D02*
X152878759Y-62364619D01*
X152878759Y-62364619D02*
X152783521Y-62317000D01*
X152783521Y-62317000D02*
X152735902Y-62269380D01*
D10*
X79118270Y-90781461D02*
X79118270Y-90019461D01*
X79118270Y-90019461D02*
X79299699Y-90019461D01*
X79299699Y-90019461D02*
X79408556Y-90055747D01*
X79408556Y-90055747D02*
X79481127Y-90128318D01*
X79481127Y-90128318D02*
X79517413Y-90200890D01*
X79517413Y-90200890D02*
X79553699Y-90346033D01*
X79553699Y-90346033D02*
X79553699Y-90454890D01*
X79553699Y-90454890D02*
X79517413Y-90600033D01*
X79517413Y-90600033D02*
X79481127Y-90672604D01*
X79481127Y-90672604D02*
X79408556Y-90745176D01*
X79408556Y-90745176D02*
X79299699Y-90781461D01*
X79299699Y-90781461D02*
X79118270Y-90781461D01*
X79843984Y-90563747D02*
X80206842Y-90563747D01*
X79771413Y-90781461D02*
X80025413Y-90019461D01*
X80025413Y-90019461D02*
X80279413Y-90781461D01*
X80968842Y-90708890D02*
X80932556Y-90745176D01*
X80932556Y-90745176D02*
X80823699Y-90781461D01*
X80823699Y-90781461D02*
X80751127Y-90781461D01*
X80751127Y-90781461D02*
X80642270Y-90745176D01*
X80642270Y-90745176D02*
X80569699Y-90672604D01*
X80569699Y-90672604D02*
X80533413Y-90600033D01*
X80533413Y-90600033D02*
X80497127Y-90454890D01*
X80497127Y-90454890D02*
X80497127Y-90346033D01*
X80497127Y-90346033D02*
X80533413Y-90200890D01*
X80533413Y-90200890D02*
X80569699Y-90128318D01*
X80569699Y-90128318D02*
X80642270Y-90055747D01*
X80642270Y-90055747D02*
X80751127Y-90019461D01*
X80751127Y-90019461D02*
X80823699Y-90019461D01*
X80823699Y-90019461D02*
X80932556Y-90055747D01*
X80932556Y-90055747D02*
X80968842Y-90092033D01*
X81440556Y-90019461D02*
X81585699Y-90019461D01*
X81585699Y-90019461D02*
X81658270Y-90055747D01*
X81658270Y-90055747D02*
X81730842Y-90128318D01*
X81730842Y-90128318D02*
X81767127Y-90273461D01*
X81767127Y-90273461D02*
X81767127Y-90527461D01*
X81767127Y-90527461D02*
X81730842Y-90672604D01*
X81730842Y-90672604D02*
X81658270Y-90745176D01*
X81658270Y-90745176D02*
X81585699Y-90781461D01*
X81585699Y-90781461D02*
X81440556Y-90781461D01*
X81440556Y-90781461D02*
X81367985Y-90745176D01*
X81367985Y-90745176D02*
X81295413Y-90672604D01*
X81295413Y-90672604D02*
X81259127Y-90527461D01*
X81259127Y-90527461D02*
X81259127Y-90273461D01*
X81259127Y-90273461D02*
X81295413Y-90128318D01*
X81295413Y-90128318D02*
X81367985Y-90055747D01*
X81367985Y-90055747D02*
X81440556Y-90019461D01*
X82093699Y-90019461D02*
X82093699Y-90636318D01*
X82093699Y-90636318D02*
X82129985Y-90708890D01*
X82129985Y-90708890D02*
X82166271Y-90745176D01*
X82166271Y-90745176D02*
X82238842Y-90781461D01*
X82238842Y-90781461D02*
X82383985Y-90781461D01*
X82383985Y-90781461D02*
X82456556Y-90745176D01*
X82456556Y-90745176D02*
X82492842Y-90708890D01*
X82492842Y-90708890D02*
X82529128Y-90636318D01*
X82529128Y-90636318D02*
X82529128Y-90019461D01*
X82783128Y-90019461D02*
X83218557Y-90019461D01*
X83000842Y-90781461D02*
X83000842Y-90019461D01*
X80279413Y-93194461D02*
X80714842Y-93194461D01*
X80497127Y-93956461D02*
X80497127Y-93194461D01*
X80968841Y-93557318D02*
X81222841Y-93557318D01*
X81331698Y-93956461D02*
X80968841Y-93956461D01*
X80968841Y-93956461D02*
X80968841Y-93194461D01*
X80968841Y-93194461D02*
X81331698Y-93194461D01*
X81585699Y-93956461D02*
X81984842Y-93448461D01*
X81585699Y-93448461D02*
X81984842Y-93956461D01*
X82601699Y-93956461D02*
X82601699Y-93557318D01*
X82601699Y-93557318D02*
X82565413Y-93484747D01*
X82565413Y-93484747D02*
X82492841Y-93448461D01*
X82492841Y-93448461D02*
X82347699Y-93448461D01*
X82347699Y-93448461D02*
X82275127Y-93484747D01*
X82601699Y-93920176D02*
X82529127Y-93956461D01*
X82529127Y-93956461D02*
X82347699Y-93956461D01*
X82347699Y-93956461D02*
X82275127Y-93920176D01*
X82275127Y-93920176D02*
X82238841Y-93847604D01*
X82238841Y-93847604D02*
X82238841Y-93775033D01*
X82238841Y-93775033D02*
X82275127Y-93702461D01*
X82275127Y-93702461D02*
X82347699Y-93666176D01*
X82347699Y-93666176D02*
X82529127Y-93666176D01*
X82529127Y-93666176D02*
X82601699Y-93629890D01*
X82928270Y-93920176D02*
X83037128Y-93956461D01*
X83037128Y-93956461D02*
X83218556Y-93956461D01*
X83218556Y-93956461D02*
X83291128Y-93920176D01*
X83291128Y-93920176D02*
X83327413Y-93883890D01*
X83327413Y-93883890D02*
X83363699Y-93811318D01*
X83363699Y-93811318D02*
X83363699Y-93738747D01*
X83363699Y-93738747D02*
X83327413Y-93666176D01*
X83327413Y-93666176D02*
X83291128Y-93629890D01*
X83291128Y-93629890D02*
X83218556Y-93593604D01*
X83218556Y-93593604D02*
X83073413Y-93557318D01*
X83073413Y-93557318D02*
X83000842Y-93521033D01*
X83000842Y-93521033D02*
X82964556Y-93484747D01*
X82964556Y-93484747D02*
X82928270Y-93412176D01*
X82928270Y-93412176D02*
X82928270Y-93339604D01*
X82928270Y-93339604D02*
X82964556Y-93267033D01*
X82964556Y-93267033D02*
X83000842Y-93230747D01*
X83000842Y-93230747D02*
X83073413Y-93194461D01*
X83073413Y-93194461D02*
X83254842Y-93194461D01*
X83254842Y-93194461D02*
X83363699Y-93230747D01*
D12*
X84047142Y-82034819D02*
X83713809Y-81558628D01*
X83475714Y-82034819D02*
X83475714Y-81034819D01*
X83475714Y-81034819D02*
X83856666Y-81034819D01*
X83856666Y-81034819D02*
X83951904Y-81082438D01*
X83951904Y-81082438D02*
X83999523Y-81130057D01*
X83999523Y-81130057D02*
X84047142Y-81225295D01*
X84047142Y-81225295D02*
X84047142Y-81368152D01*
X84047142Y-81368152D02*
X83999523Y-81463390D01*
X83999523Y-81463390D02*
X83951904Y-81511009D01*
X83951904Y-81511009D02*
X83856666Y-81558628D01*
X83856666Y-81558628D02*
X83475714Y-81558628D01*
X84428095Y-81130057D02*
X84475714Y-81082438D01*
X84475714Y-81082438D02*
X84570952Y-81034819D01*
X84570952Y-81034819D02*
X84809047Y-81034819D01*
X84809047Y-81034819D02*
X84904285Y-81082438D01*
X84904285Y-81082438D02*
X84951904Y-81130057D01*
X84951904Y-81130057D02*
X84999523Y-81225295D01*
X84999523Y-81225295D02*
X84999523Y-81320533D01*
X84999523Y-81320533D02*
X84951904Y-81463390D01*
X84951904Y-81463390D02*
X84380476Y-82034819D01*
X84380476Y-82034819D02*
X84999523Y-82034819D01*
X85951904Y-82034819D02*
X85380476Y-82034819D01*
X85666190Y-82034819D02*
X85666190Y-81034819D01*
X85666190Y-81034819D02*
X85570952Y-81177676D01*
X85570952Y-81177676D02*
X85475714Y-81272914D01*
X85475714Y-81272914D02*
X85380476Y-81320533D01*
X69762142Y-61034819D02*
X69428809Y-60558628D01*
X69190714Y-61034819D02*
X69190714Y-60034819D01*
X69190714Y-60034819D02*
X69571666Y-60034819D01*
X69571666Y-60034819D02*
X69666904Y-60082438D01*
X69666904Y-60082438D02*
X69714523Y-60130057D01*
X69714523Y-60130057D02*
X69762142Y-60225295D01*
X69762142Y-60225295D02*
X69762142Y-60368152D01*
X69762142Y-60368152D02*
X69714523Y-60463390D01*
X69714523Y-60463390D02*
X69666904Y-60511009D01*
X69666904Y-60511009D02*
X69571666Y-60558628D01*
X69571666Y-60558628D02*
X69190714Y-60558628D01*
X70714523Y-61034819D02*
X70143095Y-61034819D01*
X70428809Y-61034819D02*
X70428809Y-60034819D01*
X70428809Y-60034819D02*
X70333571Y-60177676D01*
X70333571Y-60177676D02*
X70238333Y-60272914D01*
X70238333Y-60272914D02*
X70143095Y-60320533D01*
X71666904Y-61034819D02*
X71095476Y-61034819D01*
X71381190Y-61034819D02*
X71381190Y-60034819D01*
X71381190Y-60034819D02*
X71285952Y-60177676D01*
X71285952Y-60177676D02*
X71190714Y-60272914D01*
X71190714Y-60272914D02*
X71095476Y-60320533D01*
X82735000Y-122049819D02*
X82735000Y-121049819D01*
X82735000Y-121049819D02*
X83115952Y-121049819D01*
X83115952Y-121049819D02*
X83211190Y-121097438D01*
X83211190Y-121097438D02*
X83258809Y-121145057D01*
X83258809Y-121145057D02*
X83306428Y-121240295D01*
X83306428Y-121240295D02*
X83306428Y-121383152D01*
X83306428Y-121383152D02*
X83258809Y-121478390D01*
X83258809Y-121478390D02*
X83211190Y-121526009D01*
X83211190Y-121526009D02*
X83115952Y-121573628D01*
X83115952Y-121573628D02*
X82735000Y-121573628D01*
X83877857Y-122049819D02*
X83782619Y-122002200D01*
X83782619Y-122002200D02*
X83735000Y-121954580D01*
X83735000Y-121954580D02*
X83687381Y-121859342D01*
X83687381Y-121859342D02*
X83687381Y-121573628D01*
X83687381Y-121573628D02*
X83735000Y-121478390D01*
X83735000Y-121478390D02*
X83782619Y-121430771D01*
X83782619Y-121430771D02*
X83877857Y-121383152D01*
X83877857Y-121383152D02*
X84020714Y-121383152D01*
X84020714Y-121383152D02*
X84115952Y-121430771D01*
X84115952Y-121430771D02*
X84163571Y-121478390D01*
X84163571Y-121478390D02*
X84211190Y-121573628D01*
X84211190Y-121573628D02*
X84211190Y-121859342D01*
X84211190Y-121859342D02*
X84163571Y-121954580D01*
X84163571Y-121954580D02*
X84115952Y-122002200D01*
X84115952Y-122002200D02*
X84020714Y-122049819D01*
X84020714Y-122049819D02*
X83877857Y-122049819D01*
X84496905Y-121383152D02*
X84877857Y-121383152D01*
X84639762Y-121049819D02*
X84639762Y-121906961D01*
X84639762Y-121906961D02*
X84687381Y-122002200D01*
X84687381Y-122002200D02*
X84782619Y-122049819D01*
X84782619Y-122049819D02*
X84877857Y-122049819D01*
X69603333Y-41034819D02*
X69270000Y-40558628D01*
X69031905Y-41034819D02*
X69031905Y-40034819D01*
X69031905Y-40034819D02*
X69412857Y-40034819D01*
X69412857Y-40034819D02*
X69508095Y-40082438D01*
X69508095Y-40082438D02*
X69555714Y-40130057D01*
X69555714Y-40130057D02*
X69603333Y-40225295D01*
X69603333Y-40225295D02*
X69603333Y-40368152D01*
X69603333Y-40368152D02*
X69555714Y-40463390D01*
X69555714Y-40463390D02*
X69508095Y-40511009D01*
X69508095Y-40511009D02*
X69412857Y-40558628D01*
X69412857Y-40558628D02*
X69031905Y-40558628D01*
X70460476Y-40368152D02*
X70460476Y-41034819D01*
X70222381Y-39987200D02*
X69984286Y-40701485D01*
X69984286Y-40701485D02*
X70603333Y-40701485D01*
X69357142Y-65034819D02*
X69023809Y-64558628D01*
X68785714Y-65034819D02*
X68785714Y-64034819D01*
X68785714Y-64034819D02*
X69166666Y-64034819D01*
X69166666Y-64034819D02*
X69261904Y-64082438D01*
X69261904Y-64082438D02*
X69309523Y-64130057D01*
X69309523Y-64130057D02*
X69357142Y-64225295D01*
X69357142Y-64225295D02*
X69357142Y-64368152D01*
X69357142Y-64368152D02*
X69309523Y-64463390D01*
X69309523Y-64463390D02*
X69261904Y-64511009D01*
X69261904Y-64511009D02*
X69166666Y-64558628D01*
X69166666Y-64558628D02*
X68785714Y-64558628D01*
X69738095Y-64130057D02*
X69785714Y-64082438D01*
X69785714Y-64082438D02*
X69880952Y-64034819D01*
X69880952Y-64034819D02*
X70119047Y-64034819D01*
X70119047Y-64034819D02*
X70214285Y-64082438D01*
X70214285Y-64082438D02*
X70261904Y-64130057D01*
X70261904Y-64130057D02*
X70309523Y-64225295D01*
X70309523Y-64225295D02*
X70309523Y-64320533D01*
X70309523Y-64320533D02*
X70261904Y-64463390D01*
X70261904Y-64463390D02*
X69690476Y-65034819D01*
X69690476Y-65034819D02*
X70309523Y-65034819D01*
X70690476Y-64130057D02*
X70738095Y-64082438D01*
X70738095Y-64082438D02*
X70833333Y-64034819D01*
X70833333Y-64034819D02*
X71071428Y-64034819D01*
X71071428Y-64034819D02*
X71166666Y-64082438D01*
X71166666Y-64082438D02*
X71214285Y-64130057D01*
X71214285Y-64130057D02*
X71261904Y-64225295D01*
X71261904Y-64225295D02*
X71261904Y-64320533D01*
X71261904Y-64320533D02*
X71214285Y-64463390D01*
X71214285Y-64463390D02*
X70642857Y-65034819D01*
X70642857Y-65034819D02*
X71261904Y-65034819D01*
X89414819Y-65508094D02*
X88414819Y-65508094D01*
X88414819Y-65508094D02*
X88414819Y-65269999D01*
X88414819Y-65269999D02*
X88462438Y-65127142D01*
X88462438Y-65127142D02*
X88557676Y-65031904D01*
X88557676Y-65031904D02*
X88652914Y-64984285D01*
X88652914Y-64984285D02*
X88843390Y-64936666D01*
X88843390Y-64936666D02*
X88986247Y-64936666D01*
X88986247Y-64936666D02*
X89176723Y-64984285D01*
X89176723Y-64984285D02*
X89271961Y-65031904D01*
X89271961Y-65031904D02*
X89367200Y-65127142D01*
X89367200Y-65127142D02*
X89414819Y-65269999D01*
X89414819Y-65269999D02*
X89414819Y-65508094D01*
X88414819Y-64079523D02*
X88414819Y-64269999D01*
X88414819Y-64269999D02*
X88462438Y-64365237D01*
X88462438Y-64365237D02*
X88510057Y-64412856D01*
X88510057Y-64412856D02*
X88652914Y-64508094D01*
X88652914Y-64508094D02*
X88843390Y-64555713D01*
X88843390Y-64555713D02*
X89224342Y-64555713D01*
X89224342Y-64555713D02*
X89319580Y-64508094D01*
X89319580Y-64508094D02*
X89367200Y-64460475D01*
X89367200Y-64460475D02*
X89414819Y-64365237D01*
X89414819Y-64365237D02*
X89414819Y-64174761D01*
X89414819Y-64174761D02*
X89367200Y-64079523D01*
X89367200Y-64079523D02*
X89319580Y-64031904D01*
X89319580Y-64031904D02*
X89224342Y-63984285D01*
X89224342Y-63984285D02*
X88986247Y-63984285D01*
X88986247Y-63984285D02*
X88891009Y-64031904D01*
X88891009Y-64031904D02*
X88843390Y-64079523D01*
X88843390Y-64079523D02*
X88795771Y-64174761D01*
X88795771Y-64174761D02*
X88795771Y-64365237D01*
X88795771Y-64365237D02*
X88843390Y-64460475D01*
X88843390Y-64460475D02*
X88891009Y-64508094D01*
X88891009Y-64508094D02*
X88986247Y-64555713D01*
X81494819Y-65412857D02*
X81494819Y-65889047D01*
X81494819Y-65889047D02*
X80494819Y-65889047D01*
X80971009Y-65079523D02*
X80971009Y-64746190D01*
X81494819Y-64603333D02*
X81494819Y-65079523D01*
X81494819Y-65079523D02*
X80494819Y-65079523D01*
X80494819Y-65079523D02*
X80494819Y-64603333D01*
X81494819Y-64174761D02*
X80494819Y-64174761D01*
X80494819Y-64174761D02*
X80494819Y-63936666D01*
X80494819Y-63936666D02*
X80542438Y-63793809D01*
X80542438Y-63793809D02*
X80637676Y-63698571D01*
X80637676Y-63698571D02*
X80732914Y-63650952D01*
X80732914Y-63650952D02*
X80923390Y-63603333D01*
X80923390Y-63603333D02*
X81066247Y-63603333D01*
X81066247Y-63603333D02*
X81256723Y-63650952D01*
X81256723Y-63650952D02*
X81351961Y-63698571D01*
X81351961Y-63698571D02*
X81447200Y-63793809D01*
X81447200Y-63793809D02*
X81494819Y-63936666D01*
X81494819Y-63936666D02*
X81494819Y-64174761D01*
X69603333Y-49049819D02*
X69270000Y-48573628D01*
X69031905Y-49049819D02*
X69031905Y-48049819D01*
X69031905Y-48049819D02*
X69412857Y-48049819D01*
X69412857Y-48049819D02*
X69508095Y-48097438D01*
X69508095Y-48097438D02*
X69555714Y-48145057D01*
X69555714Y-48145057D02*
X69603333Y-48240295D01*
X69603333Y-48240295D02*
X69603333Y-48383152D01*
X69603333Y-48383152D02*
X69555714Y-48478390D01*
X69555714Y-48478390D02*
X69508095Y-48526009D01*
X69508095Y-48526009D02*
X69412857Y-48573628D01*
X69412857Y-48573628D02*
X69031905Y-48573628D01*
X70460476Y-48049819D02*
X70270000Y-48049819D01*
X70270000Y-48049819D02*
X70174762Y-48097438D01*
X70174762Y-48097438D02*
X70127143Y-48145057D01*
X70127143Y-48145057D02*
X70031905Y-48287914D01*
X70031905Y-48287914D02*
X69984286Y-48478390D01*
X69984286Y-48478390D02*
X69984286Y-48859342D01*
X69984286Y-48859342D02*
X70031905Y-48954580D01*
X70031905Y-48954580D02*
X70079524Y-49002200D01*
X70079524Y-49002200D02*
X70174762Y-49049819D01*
X70174762Y-49049819D02*
X70365238Y-49049819D01*
X70365238Y-49049819D02*
X70460476Y-49002200D01*
X70460476Y-49002200D02*
X70508095Y-48954580D01*
X70508095Y-48954580D02*
X70555714Y-48859342D01*
X70555714Y-48859342D02*
X70555714Y-48621247D01*
X70555714Y-48621247D02*
X70508095Y-48526009D01*
X70508095Y-48526009D02*
X70460476Y-48478390D01*
X70460476Y-48478390D02*
X70365238Y-48430771D01*
X70365238Y-48430771D02*
X70174762Y-48430771D01*
X70174762Y-48430771D02*
X70079524Y-48478390D01*
X70079524Y-48478390D02*
X70031905Y-48526009D01*
X70031905Y-48526009D02*
X69984286Y-48621247D01*
X67084819Y-88746904D02*
X67894342Y-88746904D01*
X67894342Y-88746904D02*
X67989580Y-88699285D01*
X67989580Y-88699285D02*
X68037200Y-88651666D01*
X68037200Y-88651666D02*
X68084819Y-88556428D01*
X68084819Y-88556428D02*
X68084819Y-88365952D01*
X68084819Y-88365952D02*
X68037200Y-88270714D01*
X68037200Y-88270714D02*
X67989580Y-88223095D01*
X67989580Y-88223095D02*
X67894342Y-88175476D01*
X67894342Y-88175476D02*
X67084819Y-88175476D01*
X67084819Y-87794523D02*
X67084819Y-87175476D01*
X67084819Y-87175476D02*
X67465771Y-87508809D01*
X67465771Y-87508809D02*
X67465771Y-87365952D01*
X67465771Y-87365952D02*
X67513390Y-87270714D01*
X67513390Y-87270714D02*
X67561009Y-87223095D01*
X67561009Y-87223095D02*
X67656247Y-87175476D01*
X67656247Y-87175476D02*
X67894342Y-87175476D01*
X67894342Y-87175476D02*
X67989580Y-87223095D01*
X67989580Y-87223095D02*
X68037200Y-87270714D01*
X68037200Y-87270714D02*
X68084819Y-87365952D01*
X68084819Y-87365952D02*
X68084819Y-87651666D01*
X68084819Y-87651666D02*
X68037200Y-87746904D01*
X68037200Y-87746904D02*
X67989580Y-87794523D01*
X53914819Y-71047857D02*
X53438628Y-71381190D01*
X53914819Y-71619285D02*
X52914819Y-71619285D01*
X52914819Y-71619285D02*
X52914819Y-71238333D01*
X52914819Y-71238333D02*
X52962438Y-71143095D01*
X52962438Y-71143095D02*
X53010057Y-71095476D01*
X53010057Y-71095476D02*
X53105295Y-71047857D01*
X53105295Y-71047857D02*
X53248152Y-71047857D01*
X53248152Y-71047857D02*
X53343390Y-71095476D01*
X53343390Y-71095476D02*
X53391009Y-71143095D01*
X53391009Y-71143095D02*
X53438628Y-71238333D01*
X53438628Y-71238333D02*
X53438628Y-71619285D01*
X53914819Y-70095476D02*
X53914819Y-70666904D01*
X53914819Y-70381190D02*
X52914819Y-70381190D01*
X52914819Y-70381190D02*
X53057676Y-70476428D01*
X53057676Y-70476428D02*
X53152914Y-70571666D01*
X53152914Y-70571666D02*
X53200533Y-70666904D01*
X52914819Y-69762142D02*
X52914819Y-69095476D01*
X52914819Y-69095476D02*
X53914819Y-69524047D01*
X130741667Y-77252200D02*
X130884524Y-77299819D01*
X130884524Y-77299819D02*
X131122619Y-77299819D01*
X131122619Y-77299819D02*
X131217857Y-77252200D01*
X131217857Y-77252200D02*
X131265476Y-77204580D01*
X131265476Y-77204580D02*
X131313095Y-77109342D01*
X131313095Y-77109342D02*
X131313095Y-77014104D01*
X131313095Y-77014104D02*
X131265476Y-76918866D01*
X131265476Y-76918866D02*
X131217857Y-76871247D01*
X131217857Y-76871247D02*
X131122619Y-76823628D01*
X131122619Y-76823628D02*
X130932143Y-76776009D01*
X130932143Y-76776009D02*
X130836905Y-76728390D01*
X130836905Y-76728390D02*
X130789286Y-76680771D01*
X130789286Y-76680771D02*
X130741667Y-76585533D01*
X130741667Y-76585533D02*
X130741667Y-76490295D01*
X130741667Y-76490295D02*
X130789286Y-76395057D01*
X130789286Y-76395057D02*
X130836905Y-76347438D01*
X130836905Y-76347438D02*
X130932143Y-76299819D01*
X130932143Y-76299819D02*
X131170238Y-76299819D01*
X131170238Y-76299819D02*
X131313095Y-76347438D01*
X131646429Y-76299819D02*
X131884524Y-77299819D01*
X131884524Y-77299819D02*
X132075000Y-76585533D01*
X132075000Y-76585533D02*
X132265476Y-77299819D01*
X132265476Y-77299819D02*
X132503572Y-76299819D01*
X132836905Y-76395057D02*
X132884524Y-76347438D01*
X132884524Y-76347438D02*
X132979762Y-76299819D01*
X132979762Y-76299819D02*
X133217857Y-76299819D01*
X133217857Y-76299819D02*
X133313095Y-76347438D01*
X133313095Y-76347438D02*
X133360714Y-76395057D01*
X133360714Y-76395057D02*
X133408333Y-76490295D01*
X133408333Y-76490295D02*
X133408333Y-76585533D01*
X133408333Y-76585533D02*
X133360714Y-76728390D01*
X133360714Y-76728390D02*
X132789286Y-77299819D01*
X132789286Y-77299819D02*
X133408333Y-77299819D01*
X131547618Y-85904819D02*
X131071428Y-85904819D01*
X131071428Y-85904819D02*
X131071428Y-84904819D01*
X131880952Y-85381009D02*
X132214285Y-85381009D01*
X132357142Y-85904819D02*
X131880952Y-85904819D01*
X131880952Y-85904819D02*
X131880952Y-84904819D01*
X131880952Y-84904819D02*
X132357142Y-84904819D01*
X133119047Y-85381009D02*
X132785714Y-85381009D01*
X132785714Y-85904819D02*
X132785714Y-84904819D01*
X132785714Y-84904819D02*
X133261904Y-84904819D01*
X133500000Y-84904819D02*
X134071428Y-84904819D01*
X133785714Y-85904819D02*
X133785714Y-84904819D01*
X141166667Y-68157200D02*
X141309524Y-68204819D01*
X141309524Y-68204819D02*
X141547619Y-68204819D01*
X141547619Y-68204819D02*
X141642857Y-68157200D01*
X141642857Y-68157200D02*
X141690476Y-68109580D01*
X141690476Y-68109580D02*
X141738095Y-68014342D01*
X141738095Y-68014342D02*
X141738095Y-67919104D01*
X141738095Y-67919104D02*
X141690476Y-67823866D01*
X141690476Y-67823866D02*
X141642857Y-67776247D01*
X141642857Y-67776247D02*
X141547619Y-67728628D01*
X141547619Y-67728628D02*
X141357143Y-67681009D01*
X141357143Y-67681009D02*
X141261905Y-67633390D01*
X141261905Y-67633390D02*
X141214286Y-67585771D01*
X141214286Y-67585771D02*
X141166667Y-67490533D01*
X141166667Y-67490533D02*
X141166667Y-67395295D01*
X141166667Y-67395295D02*
X141214286Y-67300057D01*
X141214286Y-67300057D02*
X141261905Y-67252438D01*
X141261905Y-67252438D02*
X141357143Y-67204819D01*
X141357143Y-67204819D02*
X141595238Y-67204819D01*
X141595238Y-67204819D02*
X141738095Y-67252438D01*
X142071429Y-67204819D02*
X142309524Y-68204819D01*
X142309524Y-68204819D02*
X142500000Y-67490533D01*
X142500000Y-67490533D02*
X142690476Y-68204819D01*
X142690476Y-68204819D02*
X142928572Y-67204819D01*
X143833333Y-68204819D02*
X143261905Y-68204819D01*
X143547619Y-68204819D02*
X143547619Y-67204819D01*
X143547619Y-67204819D02*
X143452381Y-67347676D01*
X143452381Y-67347676D02*
X143357143Y-67442914D01*
X143357143Y-67442914D02*
X143261905Y-67490533D01*
X142214286Y-75904819D02*
X142214286Y-76714342D01*
X142214286Y-76714342D02*
X142261905Y-76809580D01*
X142261905Y-76809580D02*
X142309524Y-76857200D01*
X142309524Y-76857200D02*
X142404762Y-76904819D01*
X142404762Y-76904819D02*
X142595238Y-76904819D01*
X142595238Y-76904819D02*
X142690476Y-76857200D01*
X142690476Y-76857200D02*
X142738095Y-76809580D01*
X142738095Y-76809580D02*
X142785714Y-76714342D01*
X142785714Y-76714342D02*
X142785714Y-75904819D01*
X143261905Y-76904819D02*
X143261905Y-75904819D01*
X143261905Y-75904819D02*
X143642857Y-75904819D01*
X143642857Y-75904819D02*
X143738095Y-75952438D01*
X143738095Y-75952438D02*
X143785714Y-76000057D01*
X143785714Y-76000057D02*
X143833333Y-76095295D01*
X143833333Y-76095295D02*
X143833333Y-76238152D01*
X143833333Y-76238152D02*
X143785714Y-76333390D01*
X143785714Y-76333390D02*
X143738095Y-76381009D01*
X143738095Y-76381009D02*
X143642857Y-76428628D01*
X143642857Y-76428628D02*
X143261905Y-76428628D01*
X69357142Y-68954819D02*
X69023809Y-68478628D01*
X68785714Y-68954819D02*
X68785714Y-67954819D01*
X68785714Y-67954819D02*
X69166666Y-67954819D01*
X69166666Y-67954819D02*
X69261904Y-68002438D01*
X69261904Y-68002438D02*
X69309523Y-68050057D01*
X69309523Y-68050057D02*
X69357142Y-68145295D01*
X69357142Y-68145295D02*
X69357142Y-68288152D01*
X69357142Y-68288152D02*
X69309523Y-68383390D01*
X69309523Y-68383390D02*
X69261904Y-68431009D01*
X69261904Y-68431009D02*
X69166666Y-68478628D01*
X69166666Y-68478628D02*
X68785714Y-68478628D01*
X69738095Y-68050057D02*
X69785714Y-68002438D01*
X69785714Y-68002438D02*
X69880952Y-67954819D01*
X69880952Y-67954819D02*
X70119047Y-67954819D01*
X70119047Y-67954819D02*
X70214285Y-68002438D01*
X70214285Y-68002438D02*
X70261904Y-68050057D01*
X70261904Y-68050057D02*
X70309523Y-68145295D01*
X70309523Y-68145295D02*
X70309523Y-68240533D01*
X70309523Y-68240533D02*
X70261904Y-68383390D01*
X70261904Y-68383390D02*
X69690476Y-68954819D01*
X69690476Y-68954819D02*
X70309523Y-68954819D01*
X70642857Y-67954819D02*
X71261904Y-67954819D01*
X71261904Y-67954819D02*
X70928571Y-68335771D01*
X70928571Y-68335771D02*
X71071428Y-68335771D01*
X71071428Y-68335771D02*
X71166666Y-68383390D01*
X71166666Y-68383390D02*
X71214285Y-68431009D01*
X71214285Y-68431009D02*
X71261904Y-68526247D01*
X71261904Y-68526247D02*
X71261904Y-68764342D01*
X71261904Y-68764342D02*
X71214285Y-68859580D01*
X71214285Y-68859580D02*
X71166666Y-68907200D01*
X71166666Y-68907200D02*
X71071428Y-68954819D01*
X71071428Y-68954819D02*
X70785714Y-68954819D01*
X70785714Y-68954819D02*
X70690476Y-68907200D01*
X70690476Y-68907200D02*
X70642857Y-68859580D01*
X106509761Y-114704819D02*
X106176428Y-114228628D01*
X105938333Y-114704819D02*
X105938333Y-113704819D01*
X105938333Y-113704819D02*
X106319285Y-113704819D01*
X106319285Y-113704819D02*
X106414523Y-113752438D01*
X106414523Y-113752438D02*
X106462142Y-113800057D01*
X106462142Y-113800057D02*
X106509761Y-113895295D01*
X106509761Y-113895295D02*
X106509761Y-114038152D01*
X106509761Y-114038152D02*
X106462142Y-114133390D01*
X106462142Y-114133390D02*
X106414523Y-114181009D01*
X106414523Y-114181009D02*
X106319285Y-114228628D01*
X106319285Y-114228628D02*
X105938333Y-114228628D01*
X106795476Y-113704819D02*
X107128809Y-114704819D01*
X107128809Y-114704819D02*
X107462142Y-113704819D01*
X108319285Y-114704819D02*
X107747857Y-114704819D01*
X108033571Y-114704819D02*
X108033571Y-113704819D01*
X108033571Y-113704819D02*
X107938333Y-113847676D01*
X107938333Y-113847676D02*
X107843095Y-113942914D01*
X107843095Y-113942914D02*
X107747857Y-113990533D01*
X69627142Y-57049819D02*
X69293809Y-56573628D01*
X69055714Y-57049819D02*
X69055714Y-56049819D01*
X69055714Y-56049819D02*
X69436666Y-56049819D01*
X69436666Y-56049819D02*
X69531904Y-56097438D01*
X69531904Y-56097438D02*
X69579523Y-56145057D01*
X69579523Y-56145057D02*
X69627142Y-56240295D01*
X69627142Y-56240295D02*
X69627142Y-56383152D01*
X69627142Y-56383152D02*
X69579523Y-56478390D01*
X69579523Y-56478390D02*
X69531904Y-56526009D01*
X69531904Y-56526009D02*
X69436666Y-56573628D01*
X69436666Y-56573628D02*
X69055714Y-56573628D01*
X70579523Y-57049819D02*
X70008095Y-57049819D01*
X70293809Y-57049819D02*
X70293809Y-56049819D01*
X70293809Y-56049819D02*
X70198571Y-56192676D01*
X70198571Y-56192676D02*
X70103333Y-56287914D01*
X70103333Y-56287914D02*
X70008095Y-56335533D01*
X71198571Y-56049819D02*
X71293809Y-56049819D01*
X71293809Y-56049819D02*
X71389047Y-56097438D01*
X71389047Y-56097438D02*
X71436666Y-56145057D01*
X71436666Y-56145057D02*
X71484285Y-56240295D01*
X71484285Y-56240295D02*
X71531904Y-56430771D01*
X71531904Y-56430771D02*
X71531904Y-56668866D01*
X71531904Y-56668866D02*
X71484285Y-56859342D01*
X71484285Y-56859342D02*
X71436666Y-56954580D01*
X71436666Y-56954580D02*
X71389047Y-57002200D01*
X71389047Y-57002200D02*
X71293809Y-57049819D01*
X71293809Y-57049819D02*
X71198571Y-57049819D01*
X71198571Y-57049819D02*
X71103333Y-57002200D01*
X71103333Y-57002200D02*
X71055714Y-56954580D01*
X71055714Y-56954580D02*
X71008095Y-56859342D01*
X71008095Y-56859342D02*
X70960476Y-56668866D01*
X70960476Y-56668866D02*
X70960476Y-56430771D01*
X70960476Y-56430771D02*
X71008095Y-56240295D01*
X71008095Y-56240295D02*
X71055714Y-56145057D01*
X71055714Y-56145057D02*
X71103333Y-56097438D01*
X71103333Y-56097438D02*
X71198571Y-56049819D01*
X97534819Y-43666666D02*
X97058628Y-43999999D01*
X97534819Y-44238094D02*
X96534819Y-44238094D01*
X96534819Y-44238094D02*
X96534819Y-43857142D01*
X96534819Y-43857142D02*
X96582438Y-43761904D01*
X96582438Y-43761904D02*
X96630057Y-43714285D01*
X96630057Y-43714285D02*
X96725295Y-43666666D01*
X96725295Y-43666666D02*
X96868152Y-43666666D01*
X96868152Y-43666666D02*
X96963390Y-43714285D01*
X96963390Y-43714285D02*
X97011009Y-43761904D01*
X97011009Y-43761904D02*
X97058628Y-43857142D01*
X97058628Y-43857142D02*
X97058628Y-44238094D01*
X97534819Y-42714285D02*
X97534819Y-43285713D01*
X97534819Y-42999999D02*
X96534819Y-42999999D01*
X96534819Y-42999999D02*
X96677676Y-43095237D01*
X96677676Y-43095237D02*
X96772914Y-43190475D01*
X96772914Y-43190475D02*
X96820533Y-43285713D01*
X59615952Y-41549819D02*
X59615952Y-40549819D01*
X59615952Y-40549819D02*
X59854047Y-40549819D01*
X59854047Y-40549819D02*
X59996904Y-40597438D01*
X59996904Y-40597438D02*
X60092142Y-40692676D01*
X60092142Y-40692676D02*
X60139761Y-40787914D01*
X60139761Y-40787914D02*
X60187380Y-40978390D01*
X60187380Y-40978390D02*
X60187380Y-41121247D01*
X60187380Y-41121247D02*
X60139761Y-41311723D01*
X60139761Y-41311723D02*
X60092142Y-41406961D01*
X60092142Y-41406961D02*
X59996904Y-41502200D01*
X59996904Y-41502200D02*
X59854047Y-41549819D01*
X59854047Y-41549819D02*
X59615952Y-41549819D01*
X60568333Y-41264104D02*
X61044523Y-41264104D01*
X60473095Y-41549819D02*
X60806428Y-40549819D01*
X60806428Y-40549819D02*
X61139761Y-41549819D01*
X62044523Y-41454580D02*
X61996904Y-41502200D01*
X61996904Y-41502200D02*
X61854047Y-41549819D01*
X61854047Y-41549819D02*
X61758809Y-41549819D01*
X61758809Y-41549819D02*
X61615952Y-41502200D01*
X61615952Y-41502200D02*
X61520714Y-41406961D01*
X61520714Y-41406961D02*
X61473095Y-41311723D01*
X61473095Y-41311723D02*
X61425476Y-41121247D01*
X61425476Y-41121247D02*
X61425476Y-40978390D01*
X61425476Y-40978390D02*
X61473095Y-40787914D01*
X61473095Y-40787914D02*
X61520714Y-40692676D01*
X61520714Y-40692676D02*
X61615952Y-40597438D01*
X61615952Y-40597438D02*
X61758809Y-40549819D01*
X61758809Y-40549819D02*
X61854047Y-40549819D01*
X61854047Y-40549819D02*
X61996904Y-40597438D01*
X61996904Y-40597438D02*
X62044523Y-40645057D01*
X62663571Y-40549819D02*
X62854047Y-40549819D01*
X62854047Y-40549819D02*
X62949285Y-40597438D01*
X62949285Y-40597438D02*
X63044523Y-40692676D01*
X63044523Y-40692676D02*
X63092142Y-40883152D01*
X63092142Y-40883152D02*
X63092142Y-41216485D01*
X63092142Y-41216485D02*
X63044523Y-41406961D01*
X63044523Y-41406961D02*
X62949285Y-41502200D01*
X62949285Y-41502200D02*
X62854047Y-41549819D01*
X62854047Y-41549819D02*
X62663571Y-41549819D01*
X62663571Y-41549819D02*
X62568333Y-41502200D01*
X62568333Y-41502200D02*
X62473095Y-41406961D01*
X62473095Y-41406961D02*
X62425476Y-41216485D01*
X62425476Y-41216485D02*
X62425476Y-40883152D01*
X62425476Y-40883152D02*
X62473095Y-40692676D01*
X62473095Y-40692676D02*
X62568333Y-40597438D01*
X62568333Y-40597438D02*
X62663571Y-40549819D01*
X63520714Y-40549819D02*
X63520714Y-41359342D01*
X63520714Y-41359342D02*
X63568333Y-41454580D01*
X63568333Y-41454580D02*
X63615952Y-41502200D01*
X63615952Y-41502200D02*
X63711190Y-41549819D01*
X63711190Y-41549819D02*
X63901666Y-41549819D01*
X63901666Y-41549819D02*
X63996904Y-41502200D01*
X63996904Y-41502200D02*
X64044523Y-41454580D01*
X64044523Y-41454580D02*
X64092142Y-41359342D01*
X64092142Y-41359342D02*
X64092142Y-40549819D01*
X64425476Y-40549819D02*
X64996904Y-40549819D01*
X64711190Y-41549819D02*
X64711190Y-40549819D01*
D13*
X62094166Y-99432419D02*
X62094166Y-100146704D01*
X62094166Y-100146704D02*
X62046547Y-100289561D01*
X62046547Y-100289561D02*
X61951309Y-100384800D01*
X61951309Y-100384800D02*
X61808452Y-100432419D01*
X61808452Y-100432419D02*
X61713214Y-100432419D01*
X63094166Y-100432419D02*
X62522738Y-100432419D01*
X62808452Y-100432419D02*
X62808452Y-99432419D01*
X62808452Y-99432419D02*
X62713214Y-99575276D01*
X62713214Y-99575276D02*
X62617976Y-99670514D01*
X62617976Y-99670514D02*
X62522738Y-99718133D01*
D12*
X59340118Y-113764819D02*
X59340118Y-114479104D01*
X59340118Y-114479104D02*
X59292499Y-114621961D01*
X59292499Y-114621961D02*
X59197261Y-114717200D01*
X59197261Y-114717200D02*
X59054404Y-114764819D01*
X59054404Y-114764819D02*
X58959166Y-114764819D01*
X59959166Y-114764819D02*
X59863928Y-114717200D01*
X59863928Y-114717200D02*
X59816309Y-114669580D01*
X59816309Y-114669580D02*
X59768690Y-114574342D01*
X59768690Y-114574342D02*
X59768690Y-114288628D01*
X59768690Y-114288628D02*
X59816309Y-114193390D01*
X59816309Y-114193390D02*
X59863928Y-114145771D01*
X59863928Y-114145771D02*
X59959166Y-114098152D01*
X59959166Y-114098152D02*
X60102023Y-114098152D01*
X60102023Y-114098152D02*
X60197261Y-114145771D01*
X60197261Y-114145771D02*
X60244880Y-114193390D01*
X60244880Y-114193390D02*
X60292499Y-114288628D01*
X60292499Y-114288628D02*
X60292499Y-114574342D01*
X60292499Y-114574342D02*
X60244880Y-114669580D01*
X60244880Y-114669580D02*
X60197261Y-114717200D01*
X60197261Y-114717200D02*
X60102023Y-114764819D01*
X60102023Y-114764819D02*
X59959166Y-114764819D01*
X60625833Y-114098152D02*
X60863928Y-114764819D01*
X61102023Y-114098152D02*
X60863928Y-114764819D01*
X60863928Y-114764819D02*
X60768690Y-115002914D01*
X60768690Y-115002914D02*
X60721071Y-115050533D01*
X60721071Y-115050533D02*
X60625833Y-115098152D01*
X61435357Y-114717200D02*
X61530595Y-114764819D01*
X61530595Y-114764819D02*
X61721071Y-114764819D01*
X61721071Y-114764819D02*
X61816309Y-114717200D01*
X61816309Y-114717200D02*
X61863928Y-114621961D01*
X61863928Y-114621961D02*
X61863928Y-114574342D01*
X61863928Y-114574342D02*
X61816309Y-114479104D01*
X61816309Y-114479104D02*
X61721071Y-114431485D01*
X61721071Y-114431485D02*
X61578214Y-114431485D01*
X61578214Y-114431485D02*
X61482976Y-114383866D01*
X61482976Y-114383866D02*
X61435357Y-114288628D01*
X61435357Y-114288628D02*
X61435357Y-114241009D01*
X61435357Y-114241009D02*
X61482976Y-114145771D01*
X61482976Y-114145771D02*
X61578214Y-114098152D01*
X61578214Y-114098152D02*
X61721071Y-114098152D01*
X61721071Y-114098152D02*
X61816309Y-114145771D01*
X62149643Y-114098152D02*
X62530595Y-114098152D01*
X62292500Y-113764819D02*
X62292500Y-114621961D01*
X62292500Y-114621961D02*
X62340119Y-114717200D01*
X62340119Y-114717200D02*
X62435357Y-114764819D01*
X62435357Y-114764819D02*
X62530595Y-114764819D01*
X62863929Y-114764819D02*
X62863929Y-114098152D01*
X62863929Y-113764819D02*
X62816310Y-113812438D01*
X62816310Y-113812438D02*
X62863929Y-113860057D01*
X62863929Y-113860057D02*
X62911548Y-113812438D01*
X62911548Y-113812438D02*
X62863929Y-113764819D01*
X62863929Y-113764819D02*
X62863929Y-113860057D01*
X63768690Y-114717200D02*
X63673452Y-114764819D01*
X63673452Y-114764819D02*
X63482976Y-114764819D01*
X63482976Y-114764819D02*
X63387738Y-114717200D01*
X63387738Y-114717200D02*
X63340119Y-114669580D01*
X63340119Y-114669580D02*
X63292500Y-114574342D01*
X63292500Y-114574342D02*
X63292500Y-114288628D01*
X63292500Y-114288628D02*
X63340119Y-114193390D01*
X63340119Y-114193390D02*
X63387738Y-114145771D01*
X63387738Y-114145771D02*
X63482976Y-114098152D01*
X63482976Y-114098152D02*
X63673452Y-114098152D01*
X63673452Y-114098152D02*
X63768690Y-114145771D01*
X64197262Y-114764819D02*
X64197262Y-113764819D01*
X64292500Y-114383866D02*
X64578214Y-114764819D01*
X64578214Y-114098152D02*
X64197262Y-114479104D01*
X131153810Y-116049819D02*
X131772857Y-116049819D01*
X131772857Y-116049819D02*
X131439524Y-116430771D01*
X131439524Y-116430771D02*
X131582381Y-116430771D01*
X131582381Y-116430771D02*
X131677619Y-116478390D01*
X131677619Y-116478390D02*
X131725238Y-116526009D01*
X131725238Y-116526009D02*
X131772857Y-116621247D01*
X131772857Y-116621247D02*
X131772857Y-116859342D01*
X131772857Y-116859342D02*
X131725238Y-116954580D01*
X131725238Y-116954580D02*
X131677619Y-117002200D01*
X131677619Y-117002200D02*
X131582381Y-117049819D01*
X131582381Y-117049819D02*
X131296667Y-117049819D01*
X131296667Y-117049819D02*
X131201429Y-117002200D01*
X131201429Y-117002200D02*
X131153810Y-116954580D01*
X132201429Y-116954580D02*
X132249048Y-117002200D01*
X132249048Y-117002200D02*
X132201429Y-117049819D01*
X132201429Y-117049819D02*
X132153810Y-117002200D01*
X132153810Y-117002200D02*
X132201429Y-116954580D01*
X132201429Y-116954580D02*
X132201429Y-117049819D01*
X132582381Y-116049819D02*
X133201428Y-116049819D01*
X133201428Y-116049819D02*
X132868095Y-116430771D01*
X132868095Y-116430771D02*
X133010952Y-116430771D01*
X133010952Y-116430771D02*
X133106190Y-116478390D01*
X133106190Y-116478390D02*
X133153809Y-116526009D01*
X133153809Y-116526009D02*
X133201428Y-116621247D01*
X133201428Y-116621247D02*
X133201428Y-116859342D01*
X133201428Y-116859342D02*
X133153809Y-116954580D01*
X133153809Y-116954580D02*
X133106190Y-117002200D01*
X133106190Y-117002200D02*
X133010952Y-117049819D01*
X133010952Y-117049819D02*
X132725238Y-117049819D01*
X132725238Y-117049819D02*
X132630000Y-117002200D01*
X132630000Y-117002200D02*
X132582381Y-116954580D01*
X133487143Y-116049819D02*
X133820476Y-117049819D01*
X133820476Y-117049819D02*
X134153809Y-116049819D01*
X61222133Y-46884580D02*
X61174514Y-46932200D01*
X61174514Y-46932200D02*
X61031657Y-46979819D01*
X61031657Y-46979819D02*
X60936419Y-46979819D01*
X60936419Y-46979819D02*
X60793562Y-46932200D01*
X60793562Y-46932200D02*
X60698324Y-46836961D01*
X60698324Y-46836961D02*
X60650705Y-46741723D01*
X60650705Y-46741723D02*
X60603086Y-46551247D01*
X60603086Y-46551247D02*
X60603086Y-46408390D01*
X60603086Y-46408390D02*
X60650705Y-46217914D01*
X60650705Y-46217914D02*
X60698324Y-46122676D01*
X60698324Y-46122676D02*
X60793562Y-46027438D01*
X60793562Y-46027438D02*
X60936419Y-45979819D01*
X60936419Y-45979819D02*
X61031657Y-45979819D01*
X61031657Y-45979819D02*
X61174514Y-46027438D01*
X61174514Y-46027438D02*
X61222133Y-46075057D01*
X61555467Y-45979819D02*
X62174514Y-45979819D01*
X62174514Y-45979819D02*
X61841181Y-46360771D01*
X61841181Y-46360771D02*
X61984038Y-46360771D01*
X61984038Y-46360771D02*
X62079276Y-46408390D01*
X62079276Y-46408390D02*
X62126895Y-46456009D01*
X62126895Y-46456009D02*
X62174514Y-46551247D01*
X62174514Y-46551247D02*
X62174514Y-46789342D01*
X62174514Y-46789342D02*
X62126895Y-46884580D01*
X62126895Y-46884580D02*
X62079276Y-46932200D01*
X62079276Y-46932200D02*
X61984038Y-46979819D01*
X61984038Y-46979819D02*
X61698324Y-46979819D01*
X61698324Y-46979819D02*
X61603086Y-46932200D01*
X61603086Y-46932200D02*
X61555467Y-46884580D01*
X89414819Y-52468094D02*
X88414819Y-52468094D01*
X88414819Y-52468094D02*
X88414819Y-52229999D01*
X88414819Y-52229999D02*
X88462438Y-52087142D01*
X88462438Y-52087142D02*
X88557676Y-51991904D01*
X88557676Y-51991904D02*
X88652914Y-51944285D01*
X88652914Y-51944285D02*
X88843390Y-51896666D01*
X88843390Y-51896666D02*
X88986247Y-51896666D01*
X88986247Y-51896666D02*
X89176723Y-51944285D01*
X89176723Y-51944285D02*
X89271961Y-51991904D01*
X89271961Y-51991904D02*
X89367200Y-52087142D01*
X89367200Y-52087142D02*
X89414819Y-52229999D01*
X89414819Y-52229999D02*
X89414819Y-52468094D01*
X88414819Y-50991904D02*
X88414819Y-51468094D01*
X88414819Y-51468094D02*
X88891009Y-51515713D01*
X88891009Y-51515713D02*
X88843390Y-51468094D01*
X88843390Y-51468094D02*
X88795771Y-51372856D01*
X88795771Y-51372856D02*
X88795771Y-51134761D01*
X88795771Y-51134761D02*
X88843390Y-51039523D01*
X88843390Y-51039523D02*
X88891009Y-50991904D01*
X88891009Y-50991904D02*
X88986247Y-50944285D01*
X88986247Y-50944285D02*
X89224342Y-50944285D01*
X89224342Y-50944285D02*
X89319580Y-50991904D01*
X89319580Y-50991904D02*
X89367200Y-51039523D01*
X89367200Y-51039523D02*
X89414819Y-51134761D01*
X89414819Y-51134761D02*
X89414819Y-51372856D01*
X89414819Y-51372856D02*
X89367200Y-51468094D01*
X89367200Y-51468094D02*
X89319580Y-51515713D01*
X81494819Y-52372857D02*
X81494819Y-52849047D01*
X81494819Y-52849047D02*
X80494819Y-52849047D01*
X80971009Y-52039523D02*
X80971009Y-51706190D01*
X81494819Y-51563333D02*
X81494819Y-52039523D01*
X81494819Y-52039523D02*
X80494819Y-52039523D01*
X80494819Y-52039523D02*
X80494819Y-51563333D01*
X81494819Y-51134761D02*
X80494819Y-51134761D01*
X80494819Y-51134761D02*
X80494819Y-50896666D01*
X80494819Y-50896666D02*
X80542438Y-50753809D01*
X80542438Y-50753809D02*
X80637676Y-50658571D01*
X80637676Y-50658571D02*
X80732914Y-50610952D01*
X80732914Y-50610952D02*
X80923390Y-50563333D01*
X80923390Y-50563333D02*
X81066247Y-50563333D01*
X81066247Y-50563333D02*
X81256723Y-50610952D01*
X81256723Y-50610952D02*
X81351961Y-50658571D01*
X81351961Y-50658571D02*
X81447200Y-50753809D01*
X81447200Y-50753809D02*
X81494819Y-50896666D01*
X81494819Y-50896666D02*
X81494819Y-51134761D01*
X132047142Y-54549819D02*
X131713809Y-54073628D01*
X131475714Y-54549819D02*
X131475714Y-53549819D01*
X131475714Y-53549819D02*
X131856666Y-53549819D01*
X131856666Y-53549819D02*
X131951904Y-53597438D01*
X131951904Y-53597438D02*
X131999523Y-53645057D01*
X131999523Y-53645057D02*
X132047142Y-53740295D01*
X132047142Y-53740295D02*
X132047142Y-53883152D01*
X132047142Y-53883152D02*
X131999523Y-53978390D01*
X131999523Y-53978390D02*
X131951904Y-54026009D01*
X131951904Y-54026009D02*
X131856666Y-54073628D01*
X131856666Y-54073628D02*
X131475714Y-54073628D01*
X132999523Y-54549819D02*
X132428095Y-54549819D01*
X132713809Y-54549819D02*
X132713809Y-53549819D01*
X132713809Y-53549819D02*
X132618571Y-53692676D01*
X132618571Y-53692676D02*
X132523333Y-53787914D01*
X132523333Y-53787914D02*
X132428095Y-53835533D01*
X133380476Y-53645057D02*
X133428095Y-53597438D01*
X133428095Y-53597438D02*
X133523333Y-53549819D01*
X133523333Y-53549819D02*
X133761428Y-53549819D01*
X133761428Y-53549819D02*
X133856666Y-53597438D01*
X133856666Y-53597438D02*
X133904285Y-53645057D01*
X133904285Y-53645057D02*
X133951904Y-53740295D01*
X133951904Y-53740295D02*
X133951904Y-53835533D01*
X133951904Y-53835533D02*
X133904285Y-53978390D01*
X133904285Y-53978390D02*
X133332857Y-54549819D01*
X133332857Y-54549819D02*
X133951904Y-54549819D01*
X71928333Y-86549580D02*
X71880714Y-86597200D01*
X71880714Y-86597200D02*
X71737857Y-86644819D01*
X71737857Y-86644819D02*
X71642619Y-86644819D01*
X71642619Y-86644819D02*
X71499762Y-86597200D01*
X71499762Y-86597200D02*
X71404524Y-86501961D01*
X71404524Y-86501961D02*
X71356905Y-86406723D01*
X71356905Y-86406723D02*
X71309286Y-86216247D01*
X71309286Y-86216247D02*
X71309286Y-86073390D01*
X71309286Y-86073390D02*
X71356905Y-85882914D01*
X71356905Y-85882914D02*
X71404524Y-85787676D01*
X71404524Y-85787676D02*
X71499762Y-85692438D01*
X71499762Y-85692438D02*
X71642619Y-85644819D01*
X71642619Y-85644819D02*
X71737857Y-85644819D01*
X71737857Y-85644819D02*
X71880714Y-85692438D01*
X71880714Y-85692438D02*
X71928333Y-85740057D01*
X72309286Y-85740057D02*
X72356905Y-85692438D01*
X72356905Y-85692438D02*
X72452143Y-85644819D01*
X72452143Y-85644819D02*
X72690238Y-85644819D01*
X72690238Y-85644819D02*
X72785476Y-85692438D01*
X72785476Y-85692438D02*
X72833095Y-85740057D01*
X72833095Y-85740057D02*
X72880714Y-85835295D01*
X72880714Y-85835295D02*
X72880714Y-85930533D01*
X72880714Y-85930533D02*
X72833095Y-86073390D01*
X72833095Y-86073390D02*
X72261667Y-86644819D01*
X72261667Y-86644819D02*
X72880714Y-86644819D01*
X84047142Y-56534819D02*
X83713809Y-56058628D01*
X83475714Y-56534819D02*
X83475714Y-55534819D01*
X83475714Y-55534819D02*
X83856666Y-55534819D01*
X83856666Y-55534819D02*
X83951904Y-55582438D01*
X83951904Y-55582438D02*
X83999523Y-55630057D01*
X83999523Y-55630057D02*
X84047142Y-55725295D01*
X84047142Y-55725295D02*
X84047142Y-55868152D01*
X84047142Y-55868152D02*
X83999523Y-55963390D01*
X83999523Y-55963390D02*
X83951904Y-56011009D01*
X83951904Y-56011009D02*
X83856666Y-56058628D01*
X83856666Y-56058628D02*
X83475714Y-56058628D01*
X84999523Y-56534819D02*
X84428095Y-56534819D01*
X84713809Y-56534819D02*
X84713809Y-55534819D01*
X84713809Y-55534819D02*
X84618571Y-55677676D01*
X84618571Y-55677676D02*
X84523333Y-55772914D01*
X84523333Y-55772914D02*
X84428095Y-55820533D01*
X85475714Y-56534819D02*
X85666190Y-56534819D01*
X85666190Y-56534819D02*
X85761428Y-56487200D01*
X85761428Y-56487200D02*
X85809047Y-56439580D01*
X85809047Y-56439580D02*
X85904285Y-56296723D01*
X85904285Y-56296723D02*
X85951904Y-56106247D01*
X85951904Y-56106247D02*
X85951904Y-55725295D01*
X85951904Y-55725295D02*
X85904285Y-55630057D01*
X85904285Y-55630057D02*
X85856666Y-55582438D01*
X85856666Y-55582438D02*
X85761428Y-55534819D01*
X85761428Y-55534819D02*
X85570952Y-55534819D01*
X85570952Y-55534819D02*
X85475714Y-55582438D01*
X85475714Y-55582438D02*
X85428095Y-55630057D01*
X85428095Y-55630057D02*
X85380476Y-55725295D01*
X85380476Y-55725295D02*
X85380476Y-55963390D01*
X85380476Y-55963390D02*
X85428095Y-56058628D01*
X85428095Y-56058628D02*
X85475714Y-56106247D01*
X85475714Y-56106247D02*
X85570952Y-56153866D01*
X85570952Y-56153866D02*
X85761428Y-56153866D01*
X85761428Y-56153866D02*
X85856666Y-56106247D01*
X85856666Y-56106247D02*
X85904285Y-56058628D01*
X85904285Y-56058628D02*
X85951904Y-55963390D01*
X131873095Y-121597438D02*
X131777857Y-121549819D01*
X131777857Y-121549819D02*
X131635000Y-121549819D01*
X131635000Y-121549819D02*
X131492143Y-121597438D01*
X131492143Y-121597438D02*
X131396905Y-121692676D01*
X131396905Y-121692676D02*
X131349286Y-121787914D01*
X131349286Y-121787914D02*
X131301667Y-121978390D01*
X131301667Y-121978390D02*
X131301667Y-122121247D01*
X131301667Y-122121247D02*
X131349286Y-122311723D01*
X131349286Y-122311723D02*
X131396905Y-122406961D01*
X131396905Y-122406961D02*
X131492143Y-122502200D01*
X131492143Y-122502200D02*
X131635000Y-122549819D01*
X131635000Y-122549819D02*
X131730238Y-122549819D01*
X131730238Y-122549819D02*
X131873095Y-122502200D01*
X131873095Y-122502200D02*
X131920714Y-122454580D01*
X131920714Y-122454580D02*
X131920714Y-122121247D01*
X131920714Y-122121247D02*
X131730238Y-122121247D01*
X132349286Y-122549819D02*
X132349286Y-121549819D01*
X132349286Y-121549819D02*
X132920714Y-122549819D01*
X132920714Y-122549819D02*
X132920714Y-121549819D01*
X133396905Y-122549819D02*
X133396905Y-121549819D01*
X133396905Y-121549819D02*
X133635000Y-121549819D01*
X133635000Y-121549819D02*
X133777857Y-121597438D01*
X133777857Y-121597438D02*
X133873095Y-121692676D01*
X133873095Y-121692676D02*
X133920714Y-121787914D01*
X133920714Y-121787914D02*
X133968333Y-121978390D01*
X133968333Y-121978390D02*
X133968333Y-122121247D01*
X133968333Y-122121247D02*
X133920714Y-122311723D01*
X133920714Y-122311723D02*
X133873095Y-122406961D01*
X133873095Y-122406961D02*
X133777857Y-122502200D01*
X133777857Y-122502200D02*
X133635000Y-122549819D01*
X133635000Y-122549819D02*
X133396905Y-122549819D01*
X117491905Y-39874819D02*
X117491905Y-38874819D01*
X117491905Y-38874819D02*
X117730000Y-38874819D01*
X117730000Y-38874819D02*
X117872857Y-38922438D01*
X117872857Y-38922438D02*
X117968095Y-39017676D01*
X117968095Y-39017676D02*
X118015714Y-39112914D01*
X118015714Y-39112914D02*
X118063333Y-39303390D01*
X118063333Y-39303390D02*
X118063333Y-39446247D01*
X118063333Y-39446247D02*
X118015714Y-39636723D01*
X118015714Y-39636723D02*
X117968095Y-39731961D01*
X117968095Y-39731961D02*
X117872857Y-39827200D01*
X117872857Y-39827200D02*
X117730000Y-39874819D01*
X117730000Y-39874819D02*
X117491905Y-39874819D01*
X118396667Y-38874819D02*
X119015714Y-38874819D01*
X119015714Y-38874819D02*
X118682381Y-39255771D01*
X118682381Y-39255771D02*
X118825238Y-39255771D01*
X118825238Y-39255771D02*
X118920476Y-39303390D01*
X118920476Y-39303390D02*
X118968095Y-39351009D01*
X118968095Y-39351009D02*
X119015714Y-39446247D01*
X119015714Y-39446247D02*
X119015714Y-39684342D01*
X119015714Y-39684342D02*
X118968095Y-39779580D01*
X118968095Y-39779580D02*
X118920476Y-39827200D01*
X118920476Y-39827200D02*
X118825238Y-39874819D01*
X118825238Y-39874819D02*
X118539524Y-39874819D01*
X118539524Y-39874819D02*
X118444286Y-39827200D01*
X118444286Y-39827200D02*
X118396667Y-39779580D01*
X71333333Y-76049580D02*
X71285714Y-76097200D01*
X71285714Y-76097200D02*
X71142857Y-76144819D01*
X71142857Y-76144819D02*
X71047619Y-76144819D01*
X71047619Y-76144819D02*
X70904762Y-76097200D01*
X70904762Y-76097200D02*
X70809524Y-76001961D01*
X70809524Y-76001961D02*
X70761905Y-75906723D01*
X70761905Y-75906723D02*
X70714286Y-75716247D01*
X70714286Y-75716247D02*
X70714286Y-75573390D01*
X70714286Y-75573390D02*
X70761905Y-75382914D01*
X70761905Y-75382914D02*
X70809524Y-75287676D01*
X70809524Y-75287676D02*
X70904762Y-75192438D01*
X70904762Y-75192438D02*
X71047619Y-75144819D01*
X71047619Y-75144819D02*
X71142857Y-75144819D01*
X71142857Y-75144819D02*
X71285714Y-75192438D01*
X71285714Y-75192438D02*
X71333333Y-75240057D01*
X72285714Y-76144819D02*
X71714286Y-76144819D01*
X72000000Y-76144819D02*
X72000000Y-75144819D01*
X72000000Y-75144819D02*
X71904762Y-75287676D01*
X71904762Y-75287676D02*
X71809524Y-75382914D01*
X71809524Y-75382914D02*
X71714286Y-75430533D01*
D13*
X136594166Y-97932419D02*
X136594166Y-98646704D01*
X136594166Y-98646704D02*
X136546547Y-98789561D01*
X136546547Y-98789561D02*
X136451309Y-98884800D01*
X136451309Y-98884800D02*
X136308452Y-98932419D01*
X136308452Y-98932419D02*
X136213214Y-98932419D01*
X137213214Y-98360990D02*
X137117976Y-98313371D01*
X137117976Y-98313371D02*
X137070357Y-98265752D01*
X137070357Y-98265752D02*
X137022738Y-98170514D01*
X137022738Y-98170514D02*
X137022738Y-98122895D01*
X137022738Y-98122895D02*
X137070357Y-98027657D01*
X137070357Y-98027657D02*
X137117976Y-97980038D01*
X137117976Y-97980038D02*
X137213214Y-97932419D01*
X137213214Y-97932419D02*
X137403690Y-97932419D01*
X137403690Y-97932419D02*
X137498928Y-97980038D01*
X137498928Y-97980038D02*
X137546547Y-98027657D01*
X137546547Y-98027657D02*
X137594166Y-98122895D01*
X137594166Y-98122895D02*
X137594166Y-98170514D01*
X137594166Y-98170514D02*
X137546547Y-98265752D01*
X137546547Y-98265752D02*
X137498928Y-98313371D01*
X137498928Y-98313371D02*
X137403690Y-98360990D01*
X137403690Y-98360990D02*
X137213214Y-98360990D01*
X137213214Y-98360990D02*
X137117976Y-98408609D01*
X137117976Y-98408609D02*
X137070357Y-98456228D01*
X137070357Y-98456228D02*
X137022738Y-98551466D01*
X137022738Y-98551466D02*
X137022738Y-98741942D01*
X137022738Y-98741942D02*
X137070357Y-98837180D01*
X137070357Y-98837180D02*
X137117976Y-98884800D01*
X137117976Y-98884800D02*
X137213214Y-98932419D01*
X137213214Y-98932419D02*
X137403690Y-98932419D01*
X137403690Y-98932419D02*
X137498928Y-98884800D01*
X137498928Y-98884800D02*
X137546547Y-98837180D01*
X137546547Y-98837180D02*
X137594166Y-98741942D01*
X137594166Y-98741942D02*
X137594166Y-98551466D01*
X137594166Y-98551466D02*
X137546547Y-98456228D01*
X137546547Y-98456228D02*
X137498928Y-98408609D01*
X137498928Y-98408609D02*
X137403690Y-98360990D01*
D12*
X133840118Y-112264819D02*
X133840118Y-112979104D01*
X133840118Y-112979104D02*
X133792499Y-113121961D01*
X133792499Y-113121961D02*
X133697261Y-113217200D01*
X133697261Y-113217200D02*
X133554404Y-113264819D01*
X133554404Y-113264819D02*
X133459166Y-113264819D01*
X134459166Y-113264819D02*
X134363928Y-113217200D01*
X134363928Y-113217200D02*
X134316309Y-113169580D01*
X134316309Y-113169580D02*
X134268690Y-113074342D01*
X134268690Y-113074342D02*
X134268690Y-112788628D01*
X134268690Y-112788628D02*
X134316309Y-112693390D01*
X134316309Y-112693390D02*
X134363928Y-112645771D01*
X134363928Y-112645771D02*
X134459166Y-112598152D01*
X134459166Y-112598152D02*
X134602023Y-112598152D01*
X134602023Y-112598152D02*
X134697261Y-112645771D01*
X134697261Y-112645771D02*
X134744880Y-112693390D01*
X134744880Y-112693390D02*
X134792499Y-112788628D01*
X134792499Y-112788628D02*
X134792499Y-113074342D01*
X134792499Y-113074342D02*
X134744880Y-113169580D01*
X134744880Y-113169580D02*
X134697261Y-113217200D01*
X134697261Y-113217200D02*
X134602023Y-113264819D01*
X134602023Y-113264819D02*
X134459166Y-113264819D01*
X135125833Y-112598152D02*
X135363928Y-113264819D01*
X135602023Y-112598152D02*
X135363928Y-113264819D01*
X135363928Y-113264819D02*
X135268690Y-113502914D01*
X135268690Y-113502914D02*
X135221071Y-113550533D01*
X135221071Y-113550533D02*
X135125833Y-113598152D01*
X135935357Y-113217200D02*
X136030595Y-113264819D01*
X136030595Y-113264819D02*
X136221071Y-113264819D01*
X136221071Y-113264819D02*
X136316309Y-113217200D01*
X136316309Y-113217200D02*
X136363928Y-113121961D01*
X136363928Y-113121961D02*
X136363928Y-113074342D01*
X136363928Y-113074342D02*
X136316309Y-112979104D01*
X136316309Y-112979104D02*
X136221071Y-112931485D01*
X136221071Y-112931485D02*
X136078214Y-112931485D01*
X136078214Y-112931485D02*
X135982976Y-112883866D01*
X135982976Y-112883866D02*
X135935357Y-112788628D01*
X135935357Y-112788628D02*
X135935357Y-112741009D01*
X135935357Y-112741009D02*
X135982976Y-112645771D01*
X135982976Y-112645771D02*
X136078214Y-112598152D01*
X136078214Y-112598152D02*
X136221071Y-112598152D01*
X136221071Y-112598152D02*
X136316309Y-112645771D01*
X136649643Y-112598152D02*
X137030595Y-112598152D01*
X136792500Y-112264819D02*
X136792500Y-113121961D01*
X136792500Y-113121961D02*
X136840119Y-113217200D01*
X136840119Y-113217200D02*
X136935357Y-113264819D01*
X136935357Y-113264819D02*
X137030595Y-113264819D01*
X137363929Y-113264819D02*
X137363929Y-112598152D01*
X137363929Y-112264819D02*
X137316310Y-112312438D01*
X137316310Y-112312438D02*
X137363929Y-112360057D01*
X137363929Y-112360057D02*
X137411548Y-112312438D01*
X137411548Y-112312438D02*
X137363929Y-112264819D01*
X137363929Y-112264819D02*
X137363929Y-112360057D01*
X138268690Y-113217200D02*
X138173452Y-113264819D01*
X138173452Y-113264819D02*
X137982976Y-113264819D01*
X137982976Y-113264819D02*
X137887738Y-113217200D01*
X137887738Y-113217200D02*
X137840119Y-113169580D01*
X137840119Y-113169580D02*
X137792500Y-113074342D01*
X137792500Y-113074342D02*
X137792500Y-112788628D01*
X137792500Y-112788628D02*
X137840119Y-112693390D01*
X137840119Y-112693390D02*
X137887738Y-112645771D01*
X137887738Y-112645771D02*
X137982976Y-112598152D01*
X137982976Y-112598152D02*
X138173452Y-112598152D01*
X138173452Y-112598152D02*
X138268690Y-112645771D01*
X138697262Y-113264819D02*
X138697262Y-112264819D01*
X138792500Y-112883866D02*
X139078214Y-113264819D01*
X139078214Y-112598152D02*
X138697262Y-112979104D01*
X151166667Y-76657200D02*
X151309524Y-76704819D01*
X151309524Y-76704819D02*
X151547619Y-76704819D01*
X151547619Y-76704819D02*
X151642857Y-76657200D01*
X151642857Y-76657200D02*
X151690476Y-76609580D01*
X151690476Y-76609580D02*
X151738095Y-76514342D01*
X151738095Y-76514342D02*
X151738095Y-76419104D01*
X151738095Y-76419104D02*
X151690476Y-76323866D01*
X151690476Y-76323866D02*
X151642857Y-76276247D01*
X151642857Y-76276247D02*
X151547619Y-76228628D01*
X151547619Y-76228628D02*
X151357143Y-76181009D01*
X151357143Y-76181009D02*
X151261905Y-76133390D01*
X151261905Y-76133390D02*
X151214286Y-76085771D01*
X151214286Y-76085771D02*
X151166667Y-75990533D01*
X151166667Y-75990533D02*
X151166667Y-75895295D01*
X151166667Y-75895295D02*
X151214286Y-75800057D01*
X151214286Y-75800057D02*
X151261905Y-75752438D01*
X151261905Y-75752438D02*
X151357143Y-75704819D01*
X151357143Y-75704819D02*
X151595238Y-75704819D01*
X151595238Y-75704819D02*
X151738095Y-75752438D01*
X152071429Y-75704819D02*
X152309524Y-76704819D01*
X152309524Y-76704819D02*
X152500000Y-75990533D01*
X152500000Y-75990533D02*
X152690476Y-76704819D01*
X152690476Y-76704819D02*
X152928572Y-75704819D01*
X153738095Y-76038152D02*
X153738095Y-76704819D01*
X153500000Y-75657200D02*
X153261905Y-76371485D01*
X153261905Y-76371485D02*
X153880952Y-76371485D01*
X151904761Y-85404819D02*
X151571428Y-84928628D01*
X151333333Y-85404819D02*
X151333333Y-84404819D01*
X151333333Y-84404819D02*
X151714285Y-84404819D01*
X151714285Y-84404819D02*
X151809523Y-84452438D01*
X151809523Y-84452438D02*
X151857142Y-84500057D01*
X151857142Y-84500057D02*
X151904761Y-84595295D01*
X151904761Y-84595295D02*
X151904761Y-84738152D01*
X151904761Y-84738152D02*
X151857142Y-84833390D01*
X151857142Y-84833390D02*
X151809523Y-84881009D01*
X151809523Y-84881009D02*
X151714285Y-84928628D01*
X151714285Y-84928628D02*
X151333333Y-84928628D01*
X152857142Y-84452438D02*
X152761904Y-84404819D01*
X152761904Y-84404819D02*
X152619047Y-84404819D01*
X152619047Y-84404819D02*
X152476190Y-84452438D01*
X152476190Y-84452438D02*
X152380952Y-84547676D01*
X152380952Y-84547676D02*
X152333333Y-84642914D01*
X152333333Y-84642914D02*
X152285714Y-84833390D01*
X152285714Y-84833390D02*
X152285714Y-84976247D01*
X152285714Y-84976247D02*
X152333333Y-85166723D01*
X152333333Y-85166723D02*
X152380952Y-85261961D01*
X152380952Y-85261961D02*
X152476190Y-85357200D01*
X152476190Y-85357200D02*
X152619047Y-85404819D01*
X152619047Y-85404819D02*
X152714285Y-85404819D01*
X152714285Y-85404819D02*
X152857142Y-85357200D01*
X152857142Y-85357200D02*
X152904761Y-85309580D01*
X152904761Y-85309580D02*
X152904761Y-84976247D01*
X152904761Y-84976247D02*
X152714285Y-84976247D01*
X153333333Y-85404819D02*
X153333333Y-84404819D01*
X153333333Y-84881009D02*
X153904761Y-84881009D01*
X153904761Y-85404819D02*
X153904761Y-84404819D01*
X154238095Y-84404819D02*
X154809523Y-84404819D01*
X154523809Y-85404819D02*
X154523809Y-84404819D01*
X122534819Y-43856666D02*
X122058628Y-44189999D01*
X122534819Y-44428094D02*
X121534819Y-44428094D01*
X121534819Y-44428094D02*
X121534819Y-44047142D01*
X121534819Y-44047142D02*
X121582438Y-43951904D01*
X121582438Y-43951904D02*
X121630057Y-43904285D01*
X121630057Y-43904285D02*
X121725295Y-43856666D01*
X121725295Y-43856666D02*
X121868152Y-43856666D01*
X121868152Y-43856666D02*
X121963390Y-43904285D01*
X121963390Y-43904285D02*
X122011009Y-43951904D01*
X122011009Y-43951904D02*
X122058628Y-44047142D01*
X122058628Y-44047142D02*
X122058628Y-44428094D01*
X121534819Y-43523332D02*
X121534819Y-42904285D01*
X121534819Y-42904285D02*
X121915771Y-43237618D01*
X121915771Y-43237618D02*
X121915771Y-43094761D01*
X121915771Y-43094761D02*
X121963390Y-42999523D01*
X121963390Y-42999523D02*
X122011009Y-42951904D01*
X122011009Y-42951904D02*
X122106247Y-42904285D01*
X122106247Y-42904285D02*
X122344342Y-42904285D01*
X122344342Y-42904285D02*
X122439580Y-42951904D01*
X122439580Y-42951904D02*
X122487200Y-42999523D01*
X122487200Y-42999523D02*
X122534819Y-43094761D01*
X122534819Y-43094761D02*
X122534819Y-43380475D01*
X122534819Y-43380475D02*
X122487200Y-43475713D01*
X122487200Y-43475713D02*
X122439580Y-43523332D01*
X132047142Y-58549819D02*
X131713809Y-58073628D01*
X131475714Y-58549819D02*
X131475714Y-57549819D01*
X131475714Y-57549819D02*
X131856666Y-57549819D01*
X131856666Y-57549819D02*
X131951904Y-57597438D01*
X131951904Y-57597438D02*
X131999523Y-57645057D01*
X131999523Y-57645057D02*
X132047142Y-57740295D01*
X132047142Y-57740295D02*
X132047142Y-57883152D01*
X132047142Y-57883152D02*
X131999523Y-57978390D01*
X131999523Y-57978390D02*
X131951904Y-58026009D01*
X131951904Y-58026009D02*
X131856666Y-58073628D01*
X131856666Y-58073628D02*
X131475714Y-58073628D01*
X132999523Y-58549819D02*
X132428095Y-58549819D01*
X132713809Y-58549819D02*
X132713809Y-57549819D01*
X132713809Y-57549819D02*
X132618571Y-57692676D01*
X132618571Y-57692676D02*
X132523333Y-57787914D01*
X132523333Y-57787914D02*
X132428095Y-57835533D01*
X133332857Y-57549819D02*
X133951904Y-57549819D01*
X133951904Y-57549819D02*
X133618571Y-57930771D01*
X133618571Y-57930771D02*
X133761428Y-57930771D01*
X133761428Y-57930771D02*
X133856666Y-57978390D01*
X133856666Y-57978390D02*
X133904285Y-58026009D01*
X133904285Y-58026009D02*
X133951904Y-58121247D01*
X133951904Y-58121247D02*
X133951904Y-58359342D01*
X133951904Y-58359342D02*
X133904285Y-58454580D01*
X133904285Y-58454580D02*
X133856666Y-58502200D01*
X133856666Y-58502200D02*
X133761428Y-58549819D01*
X133761428Y-58549819D02*
X133475714Y-58549819D01*
X133475714Y-58549819D02*
X133380476Y-58502200D01*
X133380476Y-58502200D02*
X133332857Y-58454580D01*
X110034819Y-43476666D02*
X109558628Y-43809999D01*
X110034819Y-44048094D02*
X109034819Y-44048094D01*
X109034819Y-44048094D02*
X109034819Y-43667142D01*
X109034819Y-43667142D02*
X109082438Y-43571904D01*
X109082438Y-43571904D02*
X109130057Y-43524285D01*
X109130057Y-43524285D02*
X109225295Y-43476666D01*
X109225295Y-43476666D02*
X109368152Y-43476666D01*
X109368152Y-43476666D02*
X109463390Y-43524285D01*
X109463390Y-43524285D02*
X109511009Y-43571904D01*
X109511009Y-43571904D02*
X109558628Y-43667142D01*
X109558628Y-43667142D02*
X109558628Y-44048094D01*
X109130057Y-43095713D02*
X109082438Y-43048094D01*
X109082438Y-43048094D02*
X109034819Y-42952856D01*
X109034819Y-42952856D02*
X109034819Y-42714761D01*
X109034819Y-42714761D02*
X109082438Y-42619523D01*
X109082438Y-42619523D02*
X109130057Y-42571904D01*
X109130057Y-42571904D02*
X109225295Y-42524285D01*
X109225295Y-42524285D02*
X109320533Y-42524285D01*
X109320533Y-42524285D02*
X109463390Y-42571904D01*
X109463390Y-42571904D02*
X110034819Y-43143332D01*
X110034819Y-43143332D02*
X110034819Y-42524285D01*
X55682142Y-53034819D02*
X55348809Y-52558628D01*
X55110714Y-53034819D02*
X55110714Y-52034819D01*
X55110714Y-52034819D02*
X55491666Y-52034819D01*
X55491666Y-52034819D02*
X55586904Y-52082438D01*
X55586904Y-52082438D02*
X55634523Y-52130057D01*
X55634523Y-52130057D02*
X55682142Y-52225295D01*
X55682142Y-52225295D02*
X55682142Y-52368152D01*
X55682142Y-52368152D02*
X55634523Y-52463390D01*
X55634523Y-52463390D02*
X55586904Y-52511009D01*
X55586904Y-52511009D02*
X55491666Y-52558628D01*
X55491666Y-52558628D02*
X55110714Y-52558628D01*
X56634523Y-53034819D02*
X56063095Y-53034819D01*
X56348809Y-53034819D02*
X56348809Y-52034819D01*
X56348809Y-52034819D02*
X56253571Y-52177676D01*
X56253571Y-52177676D02*
X56158333Y-52272914D01*
X56158333Y-52272914D02*
X56063095Y-52320533D01*
X57491666Y-52034819D02*
X57301190Y-52034819D01*
X57301190Y-52034819D02*
X57205952Y-52082438D01*
X57205952Y-52082438D02*
X57158333Y-52130057D01*
X57158333Y-52130057D02*
X57063095Y-52272914D01*
X57063095Y-52272914D02*
X57015476Y-52463390D01*
X57015476Y-52463390D02*
X57015476Y-52844342D01*
X57015476Y-52844342D02*
X57063095Y-52939580D01*
X57063095Y-52939580D02*
X57110714Y-52987200D01*
X57110714Y-52987200D02*
X57205952Y-53034819D01*
X57205952Y-53034819D02*
X57396428Y-53034819D01*
X57396428Y-53034819D02*
X57491666Y-52987200D01*
X57491666Y-52987200D02*
X57539285Y-52939580D01*
X57539285Y-52939580D02*
X57586904Y-52844342D01*
X57586904Y-52844342D02*
X57586904Y-52606247D01*
X57586904Y-52606247D02*
X57539285Y-52511009D01*
X57539285Y-52511009D02*
X57491666Y-52463390D01*
X57491666Y-52463390D02*
X57396428Y-52415771D01*
X57396428Y-52415771D02*
X57205952Y-52415771D01*
X57205952Y-52415771D02*
X57110714Y-52463390D01*
X57110714Y-52463390D02*
X57063095Y-52511009D01*
X57063095Y-52511009D02*
X57015476Y-52606247D01*
X132047142Y-46549819D02*
X131713809Y-46073628D01*
X131475714Y-46549819D02*
X131475714Y-45549819D01*
X131475714Y-45549819D02*
X131856666Y-45549819D01*
X131856666Y-45549819D02*
X131951904Y-45597438D01*
X131951904Y-45597438D02*
X131999523Y-45645057D01*
X131999523Y-45645057D02*
X132047142Y-45740295D01*
X132047142Y-45740295D02*
X132047142Y-45883152D01*
X132047142Y-45883152D02*
X131999523Y-45978390D01*
X131999523Y-45978390D02*
X131951904Y-46026009D01*
X131951904Y-46026009D02*
X131856666Y-46073628D01*
X131856666Y-46073628D02*
X131475714Y-46073628D01*
X132999523Y-46549819D02*
X132428095Y-46549819D01*
X132713809Y-46549819D02*
X132713809Y-45549819D01*
X132713809Y-45549819D02*
X132618571Y-45692676D01*
X132618571Y-45692676D02*
X132523333Y-45787914D01*
X132523333Y-45787914D02*
X132428095Y-45835533D01*
X133904285Y-45549819D02*
X133428095Y-45549819D01*
X133428095Y-45549819D02*
X133380476Y-46026009D01*
X133380476Y-46026009D02*
X133428095Y-45978390D01*
X133428095Y-45978390D02*
X133523333Y-45930771D01*
X133523333Y-45930771D02*
X133761428Y-45930771D01*
X133761428Y-45930771D02*
X133856666Y-45978390D01*
X133856666Y-45978390D02*
X133904285Y-46026009D01*
X133904285Y-46026009D02*
X133951904Y-46121247D01*
X133951904Y-46121247D02*
X133951904Y-46359342D01*
X133951904Y-46359342D02*
X133904285Y-46454580D01*
X133904285Y-46454580D02*
X133856666Y-46502200D01*
X133856666Y-46502200D02*
X133761428Y-46549819D01*
X133761428Y-46549819D02*
X133523333Y-46549819D01*
X133523333Y-46549819D02*
X133428095Y-46502200D01*
X133428095Y-46502200D02*
X133380476Y-46454580D01*
X70238333Y-53034819D02*
X69905000Y-52558628D01*
X69666905Y-53034819D02*
X69666905Y-52034819D01*
X69666905Y-52034819D02*
X70047857Y-52034819D01*
X70047857Y-52034819D02*
X70143095Y-52082438D01*
X70143095Y-52082438D02*
X70190714Y-52130057D01*
X70190714Y-52130057D02*
X70238333Y-52225295D01*
X70238333Y-52225295D02*
X70238333Y-52368152D01*
X70238333Y-52368152D02*
X70190714Y-52463390D01*
X70190714Y-52463390D02*
X70143095Y-52511009D01*
X70143095Y-52511009D02*
X70047857Y-52558628D01*
X70047857Y-52558628D02*
X69666905Y-52558628D01*
X70714524Y-53034819D02*
X70905000Y-53034819D01*
X70905000Y-53034819D02*
X71000238Y-52987200D01*
X71000238Y-52987200D02*
X71047857Y-52939580D01*
X71047857Y-52939580D02*
X71143095Y-52796723D01*
X71143095Y-52796723D02*
X71190714Y-52606247D01*
X71190714Y-52606247D02*
X71190714Y-52225295D01*
X71190714Y-52225295D02*
X71143095Y-52130057D01*
X71143095Y-52130057D02*
X71095476Y-52082438D01*
X71095476Y-52082438D02*
X71000238Y-52034819D01*
X71000238Y-52034819D02*
X70809762Y-52034819D01*
X70809762Y-52034819D02*
X70714524Y-52082438D01*
X70714524Y-52082438D02*
X70666905Y-52130057D01*
X70666905Y-52130057D02*
X70619286Y-52225295D01*
X70619286Y-52225295D02*
X70619286Y-52463390D01*
X70619286Y-52463390D02*
X70666905Y-52558628D01*
X70666905Y-52558628D02*
X70714524Y-52606247D01*
X70714524Y-52606247D02*
X70809762Y-52653866D01*
X70809762Y-52653866D02*
X71000238Y-52653866D01*
X71000238Y-52653866D02*
X71095476Y-52606247D01*
X71095476Y-52606247D02*
X71143095Y-52558628D01*
X71143095Y-52558628D02*
X71190714Y-52463390D01*
X132047142Y-50549819D02*
X131713809Y-50073628D01*
X131475714Y-50549819D02*
X131475714Y-49549819D01*
X131475714Y-49549819D02*
X131856666Y-49549819D01*
X131856666Y-49549819D02*
X131951904Y-49597438D01*
X131951904Y-49597438D02*
X131999523Y-49645057D01*
X131999523Y-49645057D02*
X132047142Y-49740295D01*
X132047142Y-49740295D02*
X132047142Y-49883152D01*
X132047142Y-49883152D02*
X131999523Y-49978390D01*
X131999523Y-49978390D02*
X131951904Y-50026009D01*
X131951904Y-50026009D02*
X131856666Y-50073628D01*
X131856666Y-50073628D02*
X131475714Y-50073628D01*
X132999523Y-50549819D02*
X132428095Y-50549819D01*
X132713809Y-50549819D02*
X132713809Y-49549819D01*
X132713809Y-49549819D02*
X132618571Y-49692676D01*
X132618571Y-49692676D02*
X132523333Y-49787914D01*
X132523333Y-49787914D02*
X132428095Y-49835533D01*
X133856666Y-49883152D02*
X133856666Y-50549819D01*
X133618571Y-49502200D02*
X133380476Y-50216485D01*
X133380476Y-50216485D02*
X133999523Y-50216485D01*
X141666667Y-84657200D02*
X141809524Y-84704819D01*
X141809524Y-84704819D02*
X142047619Y-84704819D01*
X142047619Y-84704819D02*
X142142857Y-84657200D01*
X142142857Y-84657200D02*
X142190476Y-84609580D01*
X142190476Y-84609580D02*
X142238095Y-84514342D01*
X142238095Y-84514342D02*
X142238095Y-84419104D01*
X142238095Y-84419104D02*
X142190476Y-84323866D01*
X142190476Y-84323866D02*
X142142857Y-84276247D01*
X142142857Y-84276247D02*
X142047619Y-84228628D01*
X142047619Y-84228628D02*
X141857143Y-84181009D01*
X141857143Y-84181009D02*
X141761905Y-84133390D01*
X141761905Y-84133390D02*
X141714286Y-84085771D01*
X141714286Y-84085771D02*
X141666667Y-83990533D01*
X141666667Y-83990533D02*
X141666667Y-83895295D01*
X141666667Y-83895295D02*
X141714286Y-83800057D01*
X141714286Y-83800057D02*
X141761905Y-83752438D01*
X141761905Y-83752438D02*
X141857143Y-83704819D01*
X141857143Y-83704819D02*
X142095238Y-83704819D01*
X142095238Y-83704819D02*
X142238095Y-83752438D01*
X142571429Y-83704819D02*
X142809524Y-84704819D01*
X142809524Y-84704819D02*
X143000000Y-83990533D01*
X143000000Y-83990533D02*
X143190476Y-84704819D01*
X143190476Y-84704819D02*
X143428572Y-83704819D01*
X143714286Y-83704819D02*
X144333333Y-83704819D01*
X144333333Y-83704819D02*
X144000000Y-84085771D01*
X144000000Y-84085771D02*
X144142857Y-84085771D01*
X144142857Y-84085771D02*
X144238095Y-84133390D01*
X144238095Y-84133390D02*
X144285714Y-84181009D01*
X144285714Y-84181009D02*
X144333333Y-84276247D01*
X144333333Y-84276247D02*
X144333333Y-84514342D01*
X144333333Y-84514342D02*
X144285714Y-84609580D01*
X144285714Y-84609580D02*
X144238095Y-84657200D01*
X144238095Y-84657200D02*
X144142857Y-84704819D01*
X144142857Y-84704819D02*
X143857143Y-84704819D01*
X143857143Y-84704819D02*
X143761905Y-84657200D01*
X143761905Y-84657200D02*
X143714286Y-84609580D01*
X141619048Y-93404819D02*
X141619048Y-92404819D01*
X141619048Y-92404819D02*
X141857143Y-92404819D01*
X141857143Y-92404819D02*
X142000000Y-92452438D01*
X142000000Y-92452438D02*
X142095238Y-92547676D01*
X142095238Y-92547676D02*
X142142857Y-92642914D01*
X142142857Y-92642914D02*
X142190476Y-92833390D01*
X142190476Y-92833390D02*
X142190476Y-92976247D01*
X142190476Y-92976247D02*
X142142857Y-93166723D01*
X142142857Y-93166723D02*
X142095238Y-93261961D01*
X142095238Y-93261961D02*
X142000000Y-93357200D01*
X142000000Y-93357200D02*
X141857143Y-93404819D01*
X141857143Y-93404819D02*
X141619048Y-93404819D01*
X142809524Y-92404819D02*
X143000000Y-92404819D01*
X143000000Y-92404819D02*
X143095238Y-92452438D01*
X143095238Y-92452438D02*
X143190476Y-92547676D01*
X143190476Y-92547676D02*
X143238095Y-92738152D01*
X143238095Y-92738152D02*
X143238095Y-93071485D01*
X143238095Y-93071485D02*
X143190476Y-93261961D01*
X143190476Y-93261961D02*
X143095238Y-93357200D01*
X143095238Y-93357200D02*
X143000000Y-93404819D01*
X143000000Y-93404819D02*
X142809524Y-93404819D01*
X142809524Y-93404819D02*
X142714286Y-93357200D01*
X142714286Y-93357200D02*
X142619048Y-93261961D01*
X142619048Y-93261961D02*
X142571429Y-93071485D01*
X142571429Y-93071485D02*
X142571429Y-92738152D01*
X142571429Y-92738152D02*
X142619048Y-92547676D01*
X142619048Y-92547676D02*
X142714286Y-92452438D01*
X142714286Y-92452438D02*
X142809524Y-92404819D01*
X143571429Y-92404819D02*
X143809524Y-93404819D01*
X143809524Y-93404819D02*
X144000000Y-92690533D01*
X144000000Y-92690533D02*
X144190476Y-93404819D01*
X144190476Y-93404819D02*
X144428572Y-92404819D01*
X144809524Y-93404819D02*
X144809524Y-92404819D01*
X144809524Y-92404819D02*
X145380952Y-93404819D01*
X145380952Y-93404819D02*
X145380952Y-92404819D01*
X69603333Y-45049819D02*
X69270000Y-44573628D01*
X69031905Y-45049819D02*
X69031905Y-44049819D01*
X69031905Y-44049819D02*
X69412857Y-44049819D01*
X69412857Y-44049819D02*
X69508095Y-44097438D01*
X69508095Y-44097438D02*
X69555714Y-44145057D01*
X69555714Y-44145057D02*
X69603333Y-44240295D01*
X69603333Y-44240295D02*
X69603333Y-44383152D01*
X69603333Y-44383152D02*
X69555714Y-44478390D01*
X69555714Y-44478390D02*
X69508095Y-44526009D01*
X69508095Y-44526009D02*
X69412857Y-44573628D01*
X69412857Y-44573628D02*
X69031905Y-44573628D01*
X70508095Y-44049819D02*
X70031905Y-44049819D01*
X70031905Y-44049819D02*
X69984286Y-44526009D01*
X69984286Y-44526009D02*
X70031905Y-44478390D01*
X70031905Y-44478390D02*
X70127143Y-44430771D01*
X70127143Y-44430771D02*
X70365238Y-44430771D01*
X70365238Y-44430771D02*
X70460476Y-44478390D01*
X70460476Y-44478390D02*
X70508095Y-44526009D01*
X70508095Y-44526009D02*
X70555714Y-44621247D01*
X70555714Y-44621247D02*
X70555714Y-44859342D01*
X70555714Y-44859342D02*
X70508095Y-44954580D01*
X70508095Y-44954580D02*
X70460476Y-45002200D01*
X70460476Y-45002200D02*
X70365238Y-45049819D01*
X70365238Y-45049819D02*
X70127143Y-45049819D01*
X70127143Y-45049819D02*
X70031905Y-45002200D01*
X70031905Y-45002200D02*
X69984286Y-44954580D01*
X53166666Y-98124819D02*
X53166666Y-98839104D01*
X53166666Y-98839104D02*
X53119047Y-98981961D01*
X53119047Y-98981961D02*
X53023809Y-99077200D01*
X53023809Y-99077200D02*
X52880952Y-99124819D01*
X52880952Y-99124819D02*
X52785714Y-99124819D01*
X53595238Y-98220057D02*
X53642857Y-98172438D01*
X53642857Y-98172438D02*
X53738095Y-98124819D01*
X53738095Y-98124819D02*
X53976190Y-98124819D01*
X53976190Y-98124819D02*
X54071428Y-98172438D01*
X54071428Y-98172438D02*
X54119047Y-98220057D01*
X54119047Y-98220057D02*
X54166666Y-98315295D01*
X54166666Y-98315295D02*
X54166666Y-98410533D01*
X54166666Y-98410533D02*
X54119047Y-98553390D01*
X54119047Y-98553390D02*
X53547619Y-99124819D01*
X53547619Y-99124819D02*
X54166666Y-99124819D01*
X51373095Y-106487200D02*
X51515952Y-106534819D01*
X51515952Y-106534819D02*
X51754047Y-106534819D01*
X51754047Y-106534819D02*
X51849285Y-106487200D01*
X51849285Y-106487200D02*
X51896904Y-106439580D01*
X51896904Y-106439580D02*
X51944523Y-106344342D01*
X51944523Y-106344342D02*
X51944523Y-106249104D01*
X51944523Y-106249104D02*
X51896904Y-106153866D01*
X51896904Y-106153866D02*
X51849285Y-106106247D01*
X51849285Y-106106247D02*
X51754047Y-106058628D01*
X51754047Y-106058628D02*
X51563571Y-106011009D01*
X51563571Y-106011009D02*
X51468333Y-105963390D01*
X51468333Y-105963390D02*
X51420714Y-105915771D01*
X51420714Y-105915771D02*
X51373095Y-105820533D01*
X51373095Y-105820533D02*
X51373095Y-105725295D01*
X51373095Y-105725295D02*
X51420714Y-105630057D01*
X51420714Y-105630057D02*
X51468333Y-105582438D01*
X51468333Y-105582438D02*
X51563571Y-105534819D01*
X51563571Y-105534819D02*
X51801666Y-105534819D01*
X51801666Y-105534819D02*
X51944523Y-105582438D01*
X52373095Y-105868152D02*
X52373095Y-106868152D01*
X52373095Y-105915771D02*
X52468333Y-105868152D01*
X52468333Y-105868152D02*
X52658809Y-105868152D01*
X52658809Y-105868152D02*
X52754047Y-105915771D01*
X52754047Y-105915771D02*
X52801666Y-105963390D01*
X52801666Y-105963390D02*
X52849285Y-106058628D01*
X52849285Y-106058628D02*
X52849285Y-106344342D01*
X52849285Y-106344342D02*
X52801666Y-106439580D01*
X52801666Y-106439580D02*
X52754047Y-106487200D01*
X52754047Y-106487200D02*
X52658809Y-106534819D01*
X52658809Y-106534819D02*
X52468333Y-106534819D01*
X52468333Y-106534819D02*
X52373095Y-106487200D01*
X53658809Y-106487200D02*
X53563571Y-106534819D01*
X53563571Y-106534819D02*
X53373095Y-106534819D01*
X53373095Y-106534819D02*
X53277857Y-106487200D01*
X53277857Y-106487200D02*
X53230238Y-106391961D01*
X53230238Y-106391961D02*
X53230238Y-106011009D01*
X53230238Y-106011009D02*
X53277857Y-105915771D01*
X53277857Y-105915771D02*
X53373095Y-105868152D01*
X53373095Y-105868152D02*
X53563571Y-105868152D01*
X53563571Y-105868152D02*
X53658809Y-105915771D01*
X53658809Y-105915771D02*
X53706428Y-106011009D01*
X53706428Y-106011009D02*
X53706428Y-106106247D01*
X53706428Y-106106247D02*
X53230238Y-106201485D01*
X54563571Y-106534819D02*
X54563571Y-106011009D01*
X54563571Y-106011009D02*
X54515952Y-105915771D01*
X54515952Y-105915771D02*
X54420714Y-105868152D01*
X54420714Y-105868152D02*
X54230238Y-105868152D01*
X54230238Y-105868152D02*
X54135000Y-105915771D01*
X54563571Y-106487200D02*
X54468333Y-106534819D01*
X54468333Y-106534819D02*
X54230238Y-106534819D01*
X54230238Y-106534819D02*
X54135000Y-106487200D01*
X54135000Y-106487200D02*
X54087381Y-106391961D01*
X54087381Y-106391961D02*
X54087381Y-106296723D01*
X54087381Y-106296723D02*
X54135000Y-106201485D01*
X54135000Y-106201485D02*
X54230238Y-106153866D01*
X54230238Y-106153866D02*
X54468333Y-106153866D01*
X54468333Y-106153866D02*
X54563571Y-106106247D01*
X55039762Y-106534819D02*
X55039762Y-105534819D01*
X55135000Y-106153866D02*
X55420714Y-106534819D01*
X55420714Y-105868152D02*
X55039762Y-106249104D01*
X56230238Y-106487200D02*
X56135000Y-106534819D01*
X56135000Y-106534819D02*
X55944524Y-106534819D01*
X55944524Y-106534819D02*
X55849286Y-106487200D01*
X55849286Y-106487200D02*
X55801667Y-106391961D01*
X55801667Y-106391961D02*
X55801667Y-106011009D01*
X55801667Y-106011009D02*
X55849286Y-105915771D01*
X55849286Y-105915771D02*
X55944524Y-105868152D01*
X55944524Y-105868152D02*
X56135000Y-105868152D01*
X56135000Y-105868152D02*
X56230238Y-105915771D01*
X56230238Y-105915771D02*
X56277857Y-106011009D01*
X56277857Y-106011009D02*
X56277857Y-106106247D01*
X56277857Y-106106247D02*
X55801667Y-106201485D01*
X56706429Y-106534819D02*
X56706429Y-105868152D01*
X56706429Y-106058628D02*
X56754048Y-105963390D01*
X56754048Y-105963390D02*
X56801667Y-105915771D01*
X56801667Y-105915771D02*
X56896905Y-105868152D01*
X56896905Y-105868152D02*
X56992143Y-105868152D01*
X89414819Y-78008094D02*
X88414819Y-78008094D01*
X88414819Y-78008094D02*
X88414819Y-77769999D01*
X88414819Y-77769999D02*
X88462438Y-77627142D01*
X88462438Y-77627142D02*
X88557676Y-77531904D01*
X88557676Y-77531904D02*
X88652914Y-77484285D01*
X88652914Y-77484285D02*
X88843390Y-77436666D01*
X88843390Y-77436666D02*
X88986247Y-77436666D01*
X88986247Y-77436666D02*
X89176723Y-77484285D01*
X89176723Y-77484285D02*
X89271961Y-77531904D01*
X89271961Y-77531904D02*
X89367200Y-77627142D01*
X89367200Y-77627142D02*
X89414819Y-77769999D01*
X89414819Y-77769999D02*
X89414819Y-78008094D01*
X88414819Y-77103332D02*
X88414819Y-76436666D01*
X88414819Y-76436666D02*
X89414819Y-76865237D01*
X81494819Y-77912857D02*
X81494819Y-78389047D01*
X81494819Y-78389047D02*
X80494819Y-78389047D01*
X80971009Y-77579523D02*
X80971009Y-77246190D01*
X81494819Y-77103333D02*
X81494819Y-77579523D01*
X81494819Y-77579523D02*
X80494819Y-77579523D01*
X80494819Y-77579523D02*
X80494819Y-77103333D01*
X81494819Y-76674761D02*
X80494819Y-76674761D01*
X80494819Y-76674761D02*
X80494819Y-76436666D01*
X80494819Y-76436666D02*
X80542438Y-76293809D01*
X80542438Y-76293809D02*
X80637676Y-76198571D01*
X80637676Y-76198571D02*
X80732914Y-76150952D01*
X80732914Y-76150952D02*
X80923390Y-76103333D01*
X80923390Y-76103333D02*
X81066247Y-76103333D01*
X81066247Y-76103333D02*
X81256723Y-76150952D01*
X81256723Y-76150952D02*
X81351961Y-76198571D01*
X81351961Y-76198571D02*
X81447200Y-76293809D01*
X81447200Y-76293809D02*
X81494819Y-76436666D01*
X81494819Y-76436666D02*
X81494819Y-76674761D01*
X91991905Y-39994819D02*
X91991905Y-38994819D01*
X91991905Y-38994819D02*
X92230000Y-38994819D01*
X92230000Y-38994819D02*
X92372857Y-39042438D01*
X92372857Y-39042438D02*
X92468095Y-39137676D01*
X92468095Y-39137676D02*
X92515714Y-39232914D01*
X92515714Y-39232914D02*
X92563333Y-39423390D01*
X92563333Y-39423390D02*
X92563333Y-39566247D01*
X92563333Y-39566247D02*
X92515714Y-39756723D01*
X92515714Y-39756723D02*
X92468095Y-39851961D01*
X92468095Y-39851961D02*
X92372857Y-39947200D01*
X92372857Y-39947200D02*
X92230000Y-39994819D01*
X92230000Y-39994819D02*
X91991905Y-39994819D01*
X93515714Y-39994819D02*
X92944286Y-39994819D01*
X93230000Y-39994819D02*
X93230000Y-38994819D01*
X93230000Y-38994819D02*
X93134762Y-39137676D01*
X93134762Y-39137676D02*
X93039524Y-39232914D01*
X93039524Y-39232914D02*
X92944286Y-39280533D01*
X84666666Y-88044819D02*
X84666666Y-88759104D01*
X84666666Y-88759104D02*
X84619047Y-88901961D01*
X84619047Y-88901961D02*
X84523809Y-88997200D01*
X84523809Y-88997200D02*
X84380952Y-89044819D01*
X84380952Y-89044819D02*
X84285714Y-89044819D01*
X85142857Y-89044819D02*
X85142857Y-88044819D01*
X85142857Y-88044819D02*
X85523809Y-88044819D01*
X85523809Y-88044819D02*
X85619047Y-88092438D01*
X85619047Y-88092438D02*
X85666666Y-88140057D01*
X85666666Y-88140057D02*
X85714285Y-88235295D01*
X85714285Y-88235295D02*
X85714285Y-88378152D01*
X85714285Y-88378152D02*
X85666666Y-88473390D01*
X85666666Y-88473390D02*
X85619047Y-88521009D01*
X85619047Y-88521009D02*
X85523809Y-88568628D01*
X85523809Y-88568628D02*
X85142857Y-88568628D01*
X86666666Y-89044819D02*
X86095238Y-89044819D01*
X86380952Y-89044819D02*
X86380952Y-88044819D01*
X86380952Y-88044819D02*
X86285714Y-88187676D01*
X86285714Y-88187676D02*
X86190476Y-88282914D01*
X86190476Y-88282914D02*
X86095238Y-88330533D01*
X104491905Y-39994819D02*
X104491905Y-38994819D01*
X104491905Y-38994819D02*
X104730000Y-38994819D01*
X104730000Y-38994819D02*
X104872857Y-39042438D01*
X104872857Y-39042438D02*
X104968095Y-39137676D01*
X104968095Y-39137676D02*
X105015714Y-39232914D01*
X105015714Y-39232914D02*
X105063333Y-39423390D01*
X105063333Y-39423390D02*
X105063333Y-39566247D01*
X105063333Y-39566247D02*
X105015714Y-39756723D01*
X105015714Y-39756723D02*
X104968095Y-39851961D01*
X104968095Y-39851961D02*
X104872857Y-39947200D01*
X104872857Y-39947200D02*
X104730000Y-39994819D01*
X104730000Y-39994819D02*
X104491905Y-39994819D01*
X105444286Y-39090057D02*
X105491905Y-39042438D01*
X105491905Y-39042438D02*
X105587143Y-38994819D01*
X105587143Y-38994819D02*
X105825238Y-38994819D01*
X105825238Y-38994819D02*
X105920476Y-39042438D01*
X105920476Y-39042438D02*
X105968095Y-39090057D01*
X105968095Y-39090057D02*
X106015714Y-39185295D01*
X106015714Y-39185295D02*
X106015714Y-39280533D01*
X106015714Y-39280533D02*
X105968095Y-39423390D01*
X105968095Y-39423390D02*
X105396667Y-39994819D01*
X105396667Y-39994819D02*
X106015714Y-39994819D01*
X84547142Y-69534819D02*
X84213809Y-69058628D01*
X83975714Y-69534819D02*
X83975714Y-68534819D01*
X83975714Y-68534819D02*
X84356666Y-68534819D01*
X84356666Y-68534819D02*
X84451904Y-68582438D01*
X84451904Y-68582438D02*
X84499523Y-68630057D01*
X84499523Y-68630057D02*
X84547142Y-68725295D01*
X84547142Y-68725295D02*
X84547142Y-68868152D01*
X84547142Y-68868152D02*
X84499523Y-68963390D01*
X84499523Y-68963390D02*
X84451904Y-69011009D01*
X84451904Y-69011009D02*
X84356666Y-69058628D01*
X84356666Y-69058628D02*
X83975714Y-69058628D01*
X84928095Y-68630057D02*
X84975714Y-68582438D01*
X84975714Y-68582438D02*
X85070952Y-68534819D01*
X85070952Y-68534819D02*
X85309047Y-68534819D01*
X85309047Y-68534819D02*
X85404285Y-68582438D01*
X85404285Y-68582438D02*
X85451904Y-68630057D01*
X85451904Y-68630057D02*
X85499523Y-68725295D01*
X85499523Y-68725295D02*
X85499523Y-68820533D01*
X85499523Y-68820533D02*
X85451904Y-68963390D01*
X85451904Y-68963390D02*
X84880476Y-69534819D01*
X84880476Y-69534819D02*
X85499523Y-69534819D01*
X86118571Y-68534819D02*
X86213809Y-68534819D01*
X86213809Y-68534819D02*
X86309047Y-68582438D01*
X86309047Y-68582438D02*
X86356666Y-68630057D01*
X86356666Y-68630057D02*
X86404285Y-68725295D01*
X86404285Y-68725295D02*
X86451904Y-68915771D01*
X86451904Y-68915771D02*
X86451904Y-69153866D01*
X86451904Y-69153866D02*
X86404285Y-69344342D01*
X86404285Y-69344342D02*
X86356666Y-69439580D01*
X86356666Y-69439580D02*
X86309047Y-69487200D01*
X86309047Y-69487200D02*
X86213809Y-69534819D01*
X86213809Y-69534819D02*
X86118571Y-69534819D01*
X86118571Y-69534819D02*
X86023333Y-69487200D01*
X86023333Y-69487200D02*
X85975714Y-69439580D01*
X85975714Y-69439580D02*
X85928095Y-69344342D01*
X85928095Y-69344342D02*
X85880476Y-69153866D01*
X85880476Y-69153866D02*
X85880476Y-68915771D01*
X85880476Y-68915771D02*
X85928095Y-68725295D01*
X85928095Y-68725295D02*
X85975714Y-68630057D01*
X85975714Y-68630057D02*
X86023333Y-68582438D01*
X86023333Y-68582438D02*
X86118571Y-68534819D01*
X90998095Y-108204819D02*
X90998095Y-109014342D01*
X90998095Y-109014342D02*
X91045714Y-109109580D01*
X91045714Y-109109580D02*
X91093333Y-109157200D01*
X91093333Y-109157200D02*
X91188571Y-109204819D01*
X91188571Y-109204819D02*
X91379047Y-109204819D01*
X91379047Y-109204819D02*
X91474285Y-109157200D01*
X91474285Y-109157200D02*
X91521904Y-109109580D01*
X91521904Y-109109580D02*
X91569523Y-109014342D01*
X91569523Y-109014342D02*
X91569523Y-108204819D01*
X92569523Y-109204819D02*
X91998095Y-109204819D01*
X92283809Y-109204819D02*
X92283809Y-108204819D01*
X92283809Y-108204819D02*
X92188571Y-108347676D01*
X92188571Y-108347676D02*
X92093333Y-108442914D01*
X92093333Y-108442914D02*
X91998095Y-108490533D01*
D13*
X95127693Y-101002419D02*
X94556265Y-101002419D01*
X94841979Y-101002419D02*
X94841979Y-100002419D01*
X94841979Y-100002419D02*
X94746741Y-100145276D01*
X94746741Y-100145276D02*
X94651503Y-100240514D01*
X94651503Y-100240514D02*
X94556265Y-100288133D01*
X93619598Y-59473371D02*
X93571979Y-59425752D01*
X93571979Y-59425752D02*
X93476741Y-59282895D01*
X93476741Y-59282895D02*
X93429122Y-59187657D01*
X93429122Y-59187657D02*
X93381503Y-59044800D01*
X93381503Y-59044800D02*
X93333884Y-58806704D01*
X93333884Y-58806704D02*
X93333884Y-58616228D01*
X93333884Y-58616228D02*
X93381503Y-58378133D01*
X93381503Y-58378133D02*
X93429122Y-58235276D01*
X93429122Y-58235276D02*
X93476741Y-58140038D01*
X93476741Y-58140038D02*
X93571979Y-57997180D01*
X93571979Y-57997180D02*
X93619598Y-57949561D01*
X94191027Y-58092419D02*
X94286265Y-58092419D01*
X94286265Y-58092419D02*
X94381503Y-58140038D01*
X94381503Y-58140038D02*
X94429122Y-58187657D01*
X94429122Y-58187657D02*
X94476741Y-58282895D01*
X94476741Y-58282895D02*
X94524360Y-58473371D01*
X94524360Y-58473371D02*
X94524360Y-58711466D01*
X94524360Y-58711466D02*
X94476741Y-58901942D01*
X94476741Y-58901942D02*
X94429122Y-58997180D01*
X94429122Y-58997180D02*
X94381503Y-59044800D01*
X94381503Y-59044800D02*
X94286265Y-59092419D01*
X94286265Y-59092419D02*
X94191027Y-59092419D01*
X94191027Y-59092419D02*
X94095789Y-59044800D01*
X94095789Y-59044800D02*
X94048170Y-58997180D01*
X94048170Y-58997180D02*
X94000551Y-58901942D01*
X94000551Y-58901942D02*
X93952932Y-58711466D01*
X93952932Y-58711466D02*
X93952932Y-58473371D01*
X93952932Y-58473371D02*
X94000551Y-58282895D01*
X94000551Y-58282895D02*
X94048170Y-58187657D01*
X94048170Y-58187657D02*
X94095789Y-58140038D01*
X94095789Y-58140038D02*
X94191027Y-58092419D01*
X95000551Y-59044800D02*
X95000551Y-59092419D01*
X95000551Y-59092419D02*
X94952932Y-59187657D01*
X94952932Y-59187657D02*
X94905313Y-59235276D01*
X95619598Y-58092419D02*
X95714836Y-58092419D01*
X95714836Y-58092419D02*
X95810074Y-58140038D01*
X95810074Y-58140038D02*
X95857693Y-58187657D01*
X95857693Y-58187657D02*
X95905312Y-58282895D01*
X95905312Y-58282895D02*
X95952931Y-58473371D01*
X95952931Y-58473371D02*
X95952931Y-58711466D01*
X95952931Y-58711466D02*
X95905312Y-58901942D01*
X95905312Y-58901942D02*
X95857693Y-58997180D01*
X95857693Y-58997180D02*
X95810074Y-59044800D01*
X95810074Y-59044800D02*
X95714836Y-59092419D01*
X95714836Y-59092419D02*
X95619598Y-59092419D01*
X95619598Y-59092419D02*
X95524360Y-59044800D01*
X95524360Y-59044800D02*
X95476741Y-58997180D01*
X95476741Y-58997180D02*
X95429122Y-58901942D01*
X95429122Y-58901942D02*
X95381503Y-58711466D01*
X95381503Y-58711466D02*
X95381503Y-58473371D01*
X95381503Y-58473371D02*
X95429122Y-58282895D01*
X95429122Y-58282895D02*
X95476741Y-58187657D01*
X95476741Y-58187657D02*
X95524360Y-58140038D01*
X95524360Y-58140038D02*
X95619598Y-58092419D01*
X96286265Y-59473371D02*
X96333884Y-59425752D01*
X96333884Y-59425752D02*
X96429122Y-59282895D01*
X96429122Y-59282895D02*
X96476741Y-59187657D01*
X96476741Y-59187657D02*
X96524360Y-59044800D01*
X96524360Y-59044800D02*
X96571979Y-58806704D01*
X96571979Y-58806704D02*
X96571979Y-58616228D01*
X96571979Y-58616228D02*
X96524360Y-58378133D01*
X96524360Y-58378133D02*
X96476741Y-58235276D01*
X96476741Y-58235276D02*
X96429122Y-58140038D01*
X96429122Y-58140038D02*
X96333884Y-57997180D01*
X96333884Y-57997180D02*
X96286265Y-57949561D01*
X115209598Y-97573371D02*
X115161979Y-97525752D01*
X115161979Y-97525752D02*
X115066741Y-97382895D01*
X115066741Y-97382895D02*
X115019122Y-97287657D01*
X115019122Y-97287657D02*
X114971503Y-97144800D01*
X114971503Y-97144800D02*
X114923884Y-96906704D01*
X114923884Y-96906704D02*
X114923884Y-96716228D01*
X114923884Y-96716228D02*
X114971503Y-96478133D01*
X114971503Y-96478133D02*
X115019122Y-96335276D01*
X115019122Y-96335276D02*
X115066741Y-96240038D01*
X115066741Y-96240038D02*
X115161979Y-96097180D01*
X115161979Y-96097180D02*
X115209598Y-96049561D01*
X116114360Y-97192419D02*
X115542932Y-97192419D01*
X115828646Y-97192419D02*
X115828646Y-96192419D01*
X115828646Y-96192419D02*
X115733408Y-96335276D01*
X115733408Y-96335276D02*
X115638170Y-96430514D01*
X115638170Y-96430514D02*
X115542932Y-96478133D01*
X116495313Y-96287657D02*
X116542932Y-96240038D01*
X116542932Y-96240038D02*
X116638170Y-96192419D01*
X116638170Y-96192419D02*
X116876265Y-96192419D01*
X116876265Y-96192419D02*
X116971503Y-96240038D01*
X116971503Y-96240038D02*
X117019122Y-96287657D01*
X117019122Y-96287657D02*
X117066741Y-96382895D01*
X117066741Y-96382895D02*
X117066741Y-96478133D01*
X117066741Y-96478133D02*
X117019122Y-96620990D01*
X117019122Y-96620990D02*
X116447694Y-97192419D01*
X116447694Y-97192419D02*
X117066741Y-97192419D01*
X117400075Y-96192419D02*
X118066741Y-96192419D01*
X118066741Y-96192419D02*
X117638170Y-97192419D01*
X118495313Y-97144800D02*
X118495313Y-97192419D01*
X118495313Y-97192419D02*
X118447694Y-97287657D01*
X118447694Y-97287657D02*
X118400075Y-97335276D01*
X119447693Y-97192419D02*
X118876265Y-97192419D01*
X119161979Y-97192419D02*
X119161979Y-96192419D01*
X119161979Y-96192419D02*
X119066741Y-96335276D01*
X119066741Y-96335276D02*
X118971503Y-96430514D01*
X118971503Y-96430514D02*
X118876265Y-96478133D01*
X120352455Y-96192419D02*
X119876265Y-96192419D01*
X119876265Y-96192419D02*
X119828646Y-96668609D01*
X119828646Y-96668609D02*
X119876265Y-96620990D01*
X119876265Y-96620990D02*
X119971503Y-96573371D01*
X119971503Y-96573371D02*
X120209598Y-96573371D01*
X120209598Y-96573371D02*
X120304836Y-96620990D01*
X120304836Y-96620990D02*
X120352455Y-96668609D01*
X120352455Y-96668609D02*
X120400074Y-96763847D01*
X120400074Y-96763847D02*
X120400074Y-97001942D01*
X120400074Y-97001942D02*
X120352455Y-97097180D01*
X120352455Y-97097180D02*
X120304836Y-97144800D01*
X120304836Y-97144800D02*
X120209598Y-97192419D01*
X120209598Y-97192419D02*
X119971503Y-97192419D01*
X119971503Y-97192419D02*
X119876265Y-97144800D01*
X119876265Y-97144800D02*
X119828646Y-97097180D01*
X120876265Y-97192419D02*
X121066741Y-97192419D01*
X121066741Y-97192419D02*
X121161979Y-97144800D01*
X121161979Y-97144800D02*
X121209598Y-97097180D01*
X121209598Y-97097180D02*
X121304836Y-96954323D01*
X121304836Y-96954323D02*
X121352455Y-96763847D01*
X121352455Y-96763847D02*
X121352455Y-96382895D01*
X121352455Y-96382895D02*
X121304836Y-96287657D01*
X121304836Y-96287657D02*
X121257217Y-96240038D01*
X121257217Y-96240038D02*
X121161979Y-96192419D01*
X121161979Y-96192419D02*
X120971503Y-96192419D01*
X120971503Y-96192419D02*
X120876265Y-96240038D01*
X120876265Y-96240038D02*
X120828646Y-96287657D01*
X120828646Y-96287657D02*
X120781027Y-96382895D01*
X120781027Y-96382895D02*
X120781027Y-96620990D01*
X120781027Y-96620990D02*
X120828646Y-96716228D01*
X120828646Y-96716228D02*
X120876265Y-96763847D01*
X120876265Y-96763847D02*
X120971503Y-96811466D01*
X120971503Y-96811466D02*
X121161979Y-96811466D01*
X121161979Y-96811466D02*
X121257217Y-96763847D01*
X121257217Y-96763847D02*
X121304836Y-96716228D01*
X121304836Y-96716228D02*
X121352455Y-96620990D01*
X121685789Y-97573371D02*
X121733408Y-97525752D01*
X121733408Y-97525752D02*
X121828646Y-97382895D01*
X121828646Y-97382895D02*
X121876265Y-97287657D01*
X121876265Y-97287657D02*
X121923884Y-97144800D01*
X121923884Y-97144800D02*
X121971503Y-96906704D01*
X121971503Y-96906704D02*
X121971503Y-96716228D01*
X121971503Y-96716228D02*
X121923884Y-96478133D01*
X121923884Y-96478133D02*
X121876265Y-96335276D01*
X121876265Y-96335276D02*
X121828646Y-96240038D01*
X121828646Y-96240038D02*
X121733408Y-96097180D01*
X121733408Y-96097180D02*
X121685789Y-96049561D01*
D14*
X81820000Y-83500000D02*
X82770000Y-83500000D01*
X82770000Y-82580000D02*
X82770000Y-84420000D01*
X82770000Y-84420000D02*
X86610000Y-84420000D01*
X86610000Y-82580000D02*
X82770000Y-82580000D01*
X86610000Y-84420000D02*
X86610000Y-82580000D01*
X87560000Y-83500000D02*
X86610000Y-83500000D01*
X69440000Y-62500000D02*
X70390000Y-62500000D01*
X70390000Y-61580000D02*
X70390000Y-63420000D01*
X70390000Y-63420000D02*
X74230000Y-63420000D01*
X74230000Y-61580000D02*
X70390000Y-61580000D01*
X74230000Y-63420000D02*
X74230000Y-61580000D01*
X75180000Y-62500000D02*
X74230000Y-62500000D01*
X69440000Y-42500000D02*
X70390000Y-42500000D01*
X70390000Y-41580000D02*
X70390000Y-43420000D01*
X70390000Y-43420000D02*
X74230000Y-43420000D01*
X74230000Y-41580000D02*
X70390000Y-41580000D01*
X74230000Y-43420000D02*
X74230000Y-41580000D01*
X75180000Y-42500000D02*
X74230000Y-42500000D01*
X136590000Y-43830000D02*
X136590000Y-42500000D01*
X137920000Y-43830000D02*
X136590000Y-43830000D01*
X139190000Y-41170000D02*
X144330000Y-41170000D01*
X139190000Y-43830000D02*
X139190000Y-41170000D01*
X139190000Y-43830000D02*
X144330000Y-43830000D01*
X144330000Y-43830000D02*
X144330000Y-41170000D01*
D15*
G36*
X149565507Y-47488576D02*
G01*
X149587000Y-47547000D01*
X149484135Y-47659671D01*
X149396500Y-47674000D01*
X149227492Y-47605423D01*
X149206000Y-47547000D01*
X149308864Y-47434328D01*
X149396500Y-47420000D01*
X149565507Y-47488576D01*
G37*
G36*
X149793370Y-46838184D02*
G01*
X149841000Y-46912000D01*
X149734631Y-47015185D01*
X149587000Y-47039000D01*
X149380629Y-46985815D01*
X149333000Y-46912000D01*
X149439368Y-46808814D01*
X149587000Y-46785000D01*
X149793370Y-46838184D01*
G37*
G36*
X149796761Y-47982628D02*
G01*
X149841000Y-48055000D01*
X149732091Y-48149659D01*
X149516004Y-48182000D01*
X149299928Y-48141685D01*
X149269500Y-48055000D01*
X149448629Y-47948311D01*
X149594495Y-47928000D01*
X149796761Y-47982628D01*
G37*
G36*
X152175172Y-46701473D02*
G01*
X152254000Y-46785000D01*
X152145315Y-46880468D01*
X151936500Y-46912000D01*
X151697827Y-46868526D01*
X151619000Y-46785000D01*
X151727684Y-46689531D01*
X151936500Y-46658000D01*
X152175172Y-46701473D01*
G37*
G36*
X152175172Y-47336473D02*
G01*
X152254000Y-47420000D01*
X152145315Y-47515468D01*
X151936500Y-47547000D01*
X151697827Y-47503526D01*
X151619000Y-47420000D01*
X151727684Y-47324531D01*
X151936500Y-47293000D01*
X152175172Y-47336473D01*
G37*
G36*
X153064172Y-46828473D02*
G01*
X153143000Y-46912000D01*
X153034315Y-47007468D01*
X152825500Y-47039000D01*
X152586827Y-46995526D01*
X152508000Y-46912000D01*
X152616684Y-46816531D01*
X152825500Y-46785000D01*
X153064172Y-46828473D01*
G37*
G36*
X153095856Y-48007409D02*
G01*
X153143000Y-48118500D01*
X153125960Y-48279273D01*
X153111250Y-48294267D01*
X152978593Y-48254129D01*
X152857250Y-48221455D01*
X152658248Y-48106308D01*
X152681038Y-47980586D01*
X152889000Y-47928000D01*
X153095856Y-48007409D01*
G37*
G36*
X150616572Y-46690628D02*
G01*
X150729972Y-46769238D01*
X150730000Y-46770585D01*
X150619696Y-46865808D01*
X150353908Y-46938360D01*
X150349000Y-46939090D01*
X150054143Y-46938081D01*
X149968000Y-46826504D01*
X150081734Y-46699476D01*
X150349000Y-46658000D01*
X150616572Y-46690628D01*
G37*
G36*
X152295369Y-47904199D02*
G01*
X152381000Y-48051014D01*
X152354024Y-48146451D01*
X152229344Y-48155903D01*
X151941331Y-48080508D01*
X151873000Y-48059821D01*
X151666361Y-47980138D01*
X151686614Y-47912286D01*
X151777750Y-47868393D01*
X152059363Y-47825470D01*
X152295369Y-47904199D01*
G37*
G36*
X152847042Y-47354288D02*
G01*
X153070967Y-47453417D01*
X153143000Y-47549419D01*
X153042292Y-47652264D01*
X152808287Y-47659468D01*
X152543157Y-47570622D01*
X152511677Y-47551960D01*
X152393922Y-47412695D01*
X152410513Y-47348153D01*
X152586748Y-47308170D01*
X152847042Y-47354288D01*
G37*
G36*
X150726621Y-47896377D02*
G01*
X150730000Y-47919564D01*
X150628046Y-48041499D01*
X150549887Y-48055000D01*
X150275565Y-48099334D01*
X150151557Y-48138737D01*
X149991191Y-48154182D01*
X149992214Y-48043487D01*
X150127729Y-47912147D01*
X150365074Y-47832129D01*
X150599591Y-47821013D01*
X150726621Y-47896377D01*
G37*
G36*
X150540110Y-47321167D02*
G01*
X150717046Y-47391531D01*
X150730000Y-47420000D01*
X150617331Y-47499527D01*
X150335872Y-47543761D01*
X150222000Y-47547000D01*
X149903889Y-47518832D01*
X149726953Y-47448468D01*
X149714000Y-47420000D01*
X149826668Y-47340472D01*
X150108127Y-47296238D01*
X150222000Y-47293000D01*
X150540110Y-47321167D01*
G37*
G36*
X151470883Y-50817250D02*
G01*
X151753310Y-51738000D01*
X152659330Y-51738000D01*
X153565349Y-51738000D01*
X152846174Y-52252989D01*
X152490025Y-52512861D01*
X152232815Y-52709768D01*
X152127349Y-52803211D01*
X152127000Y-52804607D01*
X152164954Y-52934126D01*
X152263722Y-53234461D01*
X152381000Y-53579500D01*
X152515346Y-53986932D01*
X152607415Y-54298560D01*
X152635000Y-54428996D01*
X152543929Y-54415737D01*
X152304776Y-54275038D01*
X151968625Y-54037093D01*
X151956709Y-54028114D01*
X151600419Y-53768465D01*
X151323918Y-53584197D01*
X151189286Y-53516000D01*
X151049305Y-53586229D01*
X150768072Y-53770329D01*
X150407077Y-54028006D01*
X150061791Y-54276710D01*
X149813503Y-54443390D01*
X149714142Y-54493252D01*
X149714000Y-54492388D01*
X149752062Y-54356758D01*
X149851086Y-54051695D01*
X149968000Y-53706500D01*
X150102240Y-53300405D01*
X150194300Y-52991471D01*
X150222000Y-52863580D01*
X150127655Y-52738917D01*
X149881757Y-52517964D01*
X149579131Y-52280212D01*
X149405119Y-52150634D01*
X150042853Y-52150634D01*
X150337052Y-52388862D01*
X150531928Y-52598059D01*
X150577583Y-52849417D01*
X150545110Y-53086256D01*
X150458970Y-53545421D01*
X150830195Y-53281086D01*
X151098422Y-53115184D01*
X151279556Y-53101785D01*
X151441960Y-53198836D01*
X151714366Y-53363384D01*
X151838317Y-53325245D01*
X151823000Y-53080889D01*
X151816690Y-53054936D01*
X151813831Y-52728354D01*
X152014570Y-52420990D01*
X152296294Y-52121108D01*
X151881096Y-52038069D01*
X151536886Y-51897665D01*
X151344406Y-51605538D01*
X151334201Y-51577240D01*
X151202503Y-51199451D01*
X151041180Y-51583124D01*
X150807421Y-51910324D01*
X150461355Y-52058716D01*
X150042853Y-52150634D01*
X149405119Y-52150634D01*
X148936263Y-51801500D01*
X149793425Y-51738000D01*
X150650586Y-51674500D01*
X150919521Y-50785500D01*
X151188456Y-49896500D01*
X151470883Y-50817250D01*
G37*
G36*
X151824444Y-46101347D02*
G01*
X152509770Y-46126510D01*
X153046309Y-46171263D01*
X153174750Y-46189918D01*
X153542634Y-46269069D01*
X153721702Y-46371214D01*
X153776268Y-46540317D01*
X153778000Y-46602281D01*
X153822466Y-46837205D01*
X153905000Y-46912000D01*
X154017671Y-47014864D01*
X154032000Y-47102500D01*
X153963423Y-47271507D01*
X153905000Y-47293000D01*
X153801814Y-47399368D01*
X153778000Y-47547000D01*
X153831184Y-47753370D01*
X153905000Y-47801000D01*
X154017671Y-47903864D01*
X154032000Y-47991500D01*
X153963423Y-48160507D01*
X153905000Y-48182000D01*
X153816220Y-48292458D01*
X153778029Y-48559021D01*
X153778000Y-48567374D01*
X153777999Y-48952748D01*
X153111250Y-48854180D01*
X152505143Y-48795237D01*
X151740353Y-48764827D01*
X150910572Y-48762810D01*
X150109494Y-48789043D01*
X149430811Y-48843385D01*
X149301250Y-48859932D01*
X148571000Y-48962276D01*
X148571000Y-48573001D01*
X148942556Y-48573001D01*
X149614028Y-48476208D01*
X150072110Y-48421612D01*
X150482188Y-48391587D01*
X150634750Y-48389480D01*
X150984000Y-48399546D01*
X150984000Y-47383353D01*
X150984000Y-46404000D01*
X151354315Y-46404000D01*
X151391407Y-47373314D01*
X151428500Y-48342629D01*
X152125230Y-48398129D01*
X152519066Y-48437924D01*
X152795676Y-48481650D01*
X152876647Y-48508314D01*
X153034378Y-48554884D01*
X153164166Y-48563000D01*
X153281540Y-48535586D01*
X153351542Y-48419583D01*
X153385979Y-48164345D01*
X153396658Y-47719227D01*
X153397000Y-47564262D01*
X153397000Y-46565524D01*
X152807774Y-46484762D01*
X152338624Y-46433816D01*
X151891568Y-46405842D01*
X151786432Y-46404000D01*
X151354315Y-46404000D01*
X150984000Y-46404000D01*
X150984000Y-46367160D01*
X150074236Y-46443431D01*
X149614678Y-46499713D01*
X149259384Y-46576228D01*
X149080264Y-46657150D01*
X149075802Y-46663173D01*
X149028208Y-46855666D01*
X148988403Y-47222958D01*
X148964946Y-47685851D01*
X148964845Y-47689822D01*
X148942556Y-48573001D01*
X148571000Y-48573001D01*
X148571000Y-48572138D01*
X148535008Y-48300701D01*
X148448005Y-48182192D01*
X148444000Y-48182000D01*
X148331328Y-48079135D01*
X148317000Y-47991500D01*
X148385576Y-47822492D01*
X148444000Y-47801000D01*
X148547185Y-47694631D01*
X148571000Y-47547000D01*
X148517815Y-47340629D01*
X148444000Y-47293000D01*
X148331328Y-47190135D01*
X148317000Y-47102500D01*
X148385576Y-46933492D01*
X148444000Y-46912000D01*
X148540330Y-46803558D01*
X148571000Y-46602281D01*
X148602788Y-46408309D01*
X148741137Y-46293973D01*
X149050521Y-46215713D01*
X149174250Y-46194711D01*
X149665234Y-46142457D01*
X150323227Y-46109416D01*
X151069280Y-46095681D01*
X151824444Y-46101347D01*
G37*
G36*
X154268175Y-45020470D02*
G01*
X156105825Y-45208730D01*
X156719150Y-45287606D01*
X156667560Y-48925553D01*
X156648240Y-50102087D01*
X156623359Y-51061893D01*
X156587335Y-51842241D01*
X156534591Y-52480402D01*
X156459547Y-53013647D01*
X156356624Y-53479248D01*
X156220243Y-53914474D01*
X156044825Y-54356597D01*
X155824790Y-54842889D01*
X155761792Y-54976500D01*
X155163245Y-56008031D01*
X154379454Y-56950509D01*
X153387812Y-57827063D01*
X152165716Y-58660824D01*
X152154245Y-58667812D01*
X151732104Y-58922605D01*
X151402701Y-59117350D01*
X151217962Y-59221516D01*
X151196436Y-59231000D01*
X151081651Y-59168908D01*
X150799257Y-59001851D01*
X150397548Y-58758656D01*
X150114638Y-58585290D01*
X148858757Y-57706838D01*
X147835136Y-56754410D01*
X147028237Y-55709804D01*
X146422517Y-54554817D01*
X146222207Y-54026080D01*
X146047943Y-53459435D01*
X145910955Y-52875390D01*
X145807382Y-52234958D01*
X145733364Y-51499151D01*
X145685039Y-50628982D01*
X145669232Y-50006367D01*
X146123768Y-50006367D01*
X146205069Y-51162957D01*
X146414751Y-52708680D01*
X146814812Y-54086524D01*
X147405469Y-55296998D01*
X148186940Y-56340612D01*
X148584151Y-56740470D01*
X148978866Y-57073990D01*
X149461724Y-57435295D01*
X149978553Y-57789274D01*
X150475180Y-58100818D01*
X150897434Y-58334817D01*
X151191142Y-58456161D01*
X151245471Y-58465317D01*
X151381864Y-58406366D01*
X151672652Y-58248024D01*
X152055929Y-58024057D01*
X152070971Y-58015016D01*
X153003964Y-57408108D01*
X153744298Y-56815756D01*
X154345574Y-56190301D01*
X154782800Y-55603869D01*
X155432980Y-54411457D01*
X155890166Y-53083134D01*
X156142123Y-51661430D01*
X156190040Y-50711806D01*
X156191000Y-50003113D01*
X153682750Y-49871986D01*
X151439375Y-49805106D01*
X149213182Y-49846875D01*
X148649134Y-49873613D01*
X146123768Y-50006367D01*
X145669232Y-50006367D01*
X145658546Y-49585463D01*
X145657640Y-49452000D01*
X146152056Y-49452000D01*
X151183749Y-49452000D01*
X156215442Y-49452000D01*
X156125000Y-48086750D01*
X156078934Y-47462606D01*
X156027477Y-46877822D01*
X155978148Y-46413187D01*
X155950722Y-46213500D01*
X155866886Y-45705500D01*
X154981193Y-45597067D01*
X154520395Y-45559406D01*
X153856622Y-45530241D01*
X153040756Y-45509560D01*
X152123680Y-45497351D01*
X151156276Y-45493600D01*
X150189426Y-45498296D01*
X149274013Y-45511425D01*
X148460919Y-45532977D01*
X147801027Y-45562937D01*
X147364500Y-45598923D01*
X146475500Y-45705500D01*
X146397491Y-46531000D01*
X146347388Y-47082895D01*
X146289976Y-47747406D01*
X146237398Y-48383895D01*
X146235769Y-48404250D01*
X146152056Y-49452000D01*
X145657640Y-49452000D01*
X145650024Y-48329605D01*
X145650000Y-48248227D01*
X145650000Y-45284834D01*
X146253250Y-45206293D01*
X148866553Y-44965320D01*
X151568647Y-44903387D01*
X154268175Y-45020470D01*
G37*
G36*
X148009535Y-50523832D02*
G01*
X148021277Y-50539805D01*
X148176160Y-50956720D01*
X148114953Y-51452571D01*
X147937391Y-51833250D01*
X147788584Y-52120020D01*
X147775271Y-52242122D01*
X147887073Y-52174795D01*
X148017249Y-52023750D01*
X148160043Y-51875718D01*
X148279375Y-51925103D01*
X148380500Y-52048023D01*
X148549287Y-52453583D01*
X148527517Y-52906419D01*
X148384539Y-53205976D01*
X148238967Y-53474878D01*
X148202634Y-53643000D01*
X148245386Y-53701916D01*
X148345002Y-53547750D01*
X148494647Y-53329774D01*
X148608156Y-53262000D01*
X148822472Y-53374731D01*
X148979815Y-53662132D01*
X149063021Y-54048009D01*
X149054923Y-54456168D01*
X148951656Y-54786641D01*
X148893398Y-55028162D01*
X148951656Y-55103287D01*
X149052824Y-55065621D01*
X149079000Y-54927990D01*
X149146063Y-54652043D01*
X149324398Y-54588548D01*
X149579720Y-54741799D01*
X149684945Y-54852093D01*
X149898999Y-55175171D01*
X149947479Y-55520283D01*
X149930232Y-55697920D01*
X149915462Y-56026223D01*
X149960304Y-56233007D01*
X149980088Y-56253970D01*
X150059161Y-56196342D01*
X150076552Y-56081094D01*
X150379108Y-56081094D01*
X150397263Y-56346979D01*
X150512433Y-56623144D01*
X150671667Y-56799791D01*
X150734468Y-56818000D01*
X150854409Y-56762461D01*
X150857000Y-56748193D01*
X150802915Y-56600267D01*
X150669883Y-56326686D01*
X150641138Y-56271943D01*
X150490781Y-56029152D01*
X150405739Y-56007709D01*
X150379108Y-56081094D01*
X150076552Y-56081094D01*
X150094833Y-55959949D01*
X150095000Y-55939217D01*
X150111724Y-55677757D01*
X150207892Y-55620127D01*
X150422024Y-55702447D01*
X150767645Y-55979940D01*
X151023712Y-56407503D01*
X151125732Y-56843443D01*
X151142628Y-57033027D01*
X151173781Y-56978533D01*
X151196355Y-56881500D01*
X151255235Y-56705069D01*
X151492000Y-56705069D01*
X151560410Y-56817047D01*
X151712956Y-56762217D01*
X151868531Y-56572349D01*
X151875125Y-56556166D01*
X152449341Y-56556166D01*
X152457439Y-56663825D01*
X152621074Y-56681175D01*
X152861338Y-56615634D01*
X153070228Y-56497773D01*
X153231986Y-56333294D01*
X153246592Y-56244258D01*
X153085330Y-56232609D01*
X152822088Y-56314627D01*
X152568539Y-56446622D01*
X152449341Y-56556166D01*
X151875125Y-56556166D01*
X151986681Y-56282392D01*
X151976128Y-56138887D01*
X151853185Y-56177876D01*
X151741774Y-56292319D01*
X151564462Y-56538744D01*
X151492000Y-56705069D01*
X151255235Y-56705069D01*
X151405545Y-56254671D01*
X151713706Y-55847486D01*
X151890888Y-55729249D01*
X152140707Y-55613653D01*
X152237549Y-55658364D01*
X152253984Y-55906882D01*
X152254000Y-55946905D01*
X152274038Y-56221120D01*
X152321596Y-56279786D01*
X152377836Y-56157087D01*
X152423922Y-55887208D01*
X152439587Y-55623788D01*
X152637801Y-55623788D01*
X152695455Y-55785425D01*
X152748412Y-55802000D01*
X152885821Y-55700501D01*
X152938912Y-55601112D01*
X152974842Y-55432669D01*
X153524000Y-55432669D01*
X153605604Y-55486125D01*
X153800086Y-55407858D01*
X154031948Y-55236532D01*
X154153245Y-55110433D01*
X154238329Y-54953688D01*
X154202808Y-54913000D01*
X153998162Y-54987145D01*
X153750840Y-55156888D01*
X153564088Y-55343189D01*
X153524000Y-55432669D01*
X152974842Y-55432669D01*
X153001742Y-55306559D01*
X153011960Y-55124862D01*
X152998028Y-54933651D01*
X152927437Y-54961104D01*
X152821460Y-55096023D01*
X152682954Y-55363527D01*
X152637801Y-55623788D01*
X152439587Y-55623788D01*
X152440499Y-55608445D01*
X152512445Y-55110545D01*
X152720778Y-54770777D01*
X152984175Y-54598790D01*
X153186180Y-54627144D01*
X153269909Y-54846907D01*
X153270000Y-54856995D01*
X153343452Y-55021098D01*
X153401468Y-55040000D01*
X153468068Y-54962257D01*
X153401468Y-54794349D01*
X153279177Y-54337700D01*
X153299795Y-54133648D01*
X153534549Y-54133648D01*
X153539576Y-54401144D01*
X153621298Y-54530253D01*
X153636187Y-54532000D01*
X153758314Y-54427381D01*
X153807025Y-54307722D01*
X153812936Y-54100497D01*
X154283550Y-54100497D01*
X154354355Y-54156186D01*
X154564187Y-54044704D01*
X154688749Y-53940816D01*
X154870225Y-53703695D01*
X154921000Y-53537678D01*
X154875546Y-53447925D01*
X154717664Y-53540802D01*
X154603500Y-53643000D01*
X154362891Y-53916485D01*
X154283550Y-54100497D01*
X153812936Y-54100497D01*
X153815877Y-53997392D01*
X153780545Y-53840757D01*
X153705606Y-53673518D01*
X153641255Y-53742620D01*
X153609707Y-53821422D01*
X153534549Y-54133648D01*
X153299795Y-54133648D01*
X153328919Y-53845418D01*
X153467701Y-53544258D01*
X153678960Y-53307266D01*
X153843163Y-53307987D01*
X154003491Y-53546701D01*
X154003997Y-53547750D01*
X154107005Y-53704185D01*
X154146365Y-53643000D01*
X154077440Y-53396577D01*
X153964460Y-53205976D01*
X153799063Y-52798387D01*
X153806915Y-52634736D01*
X154056714Y-52634736D01*
X154085963Y-52824718D01*
X154200901Y-53075319D01*
X154327824Y-53116913D01*
X154406120Y-52944925D01*
X154411055Y-52849250D01*
X154370151Y-52589159D01*
X154794000Y-52589159D01*
X154856702Y-52604404D01*
X155003942Y-52478777D01*
X155174421Y-52279367D01*
X155306840Y-52073262D01*
X155338464Y-51993276D01*
X155337138Y-51823356D01*
X155231352Y-51823824D01*
X155075753Y-51967075D01*
X154938202Y-52195462D01*
X154831448Y-52455200D01*
X154794000Y-52589159D01*
X154370151Y-52589159D01*
X154362556Y-52540866D01*
X154299930Y-52391191D01*
X154174300Y-52298036D01*
X154083406Y-52399119D01*
X154056714Y-52634736D01*
X153806915Y-52634736D01*
X153820919Y-52342888D01*
X153957029Y-52049709D01*
X154098024Y-51885483D01*
X154223969Y-51896818D01*
X154401529Y-52045119D01*
X154603595Y-52195943D01*
X154656540Y-52164144D01*
X154559367Y-51973435D01*
X154413000Y-51772654D01*
X154200112Y-51336734D01*
X154190278Y-51047849D01*
X154413000Y-51047849D01*
X154470888Y-51313369D01*
X154561279Y-51523760D01*
X154689991Y-51677356D01*
X154770390Y-51619700D01*
X154782119Y-51391998D01*
X154740480Y-51161050D01*
X154630902Y-50924378D01*
X154502083Y-50852806D01*
X154419186Y-50968858D01*
X154413000Y-51047849D01*
X154190278Y-51047849D01*
X154184455Y-50876772D01*
X154327722Y-50539805D01*
X154453120Y-50401975D01*
X154569499Y-50426975D01*
X154753061Y-50635353D01*
X154772222Y-50659659D01*
X154963356Y-50988249D01*
X155047786Y-51302798D01*
X155048000Y-51315095D01*
X155075905Y-51527161D01*
X155204626Y-51531713D01*
X155303884Y-51482991D01*
X155519522Y-51413376D01*
X155630112Y-51529504D01*
X155632961Y-51536785D01*
X155648010Y-51875925D01*
X155512547Y-52274836D01*
X155273109Y-52633012D01*
X155037421Y-52822970D01*
X154749059Y-52999189D01*
X154686740Y-53104038D01*
X154852489Y-53123449D01*
X154997343Y-53101461D01*
X155220223Y-53079386D01*
X155286711Y-53178038D01*
X155251479Y-53435906D01*
X155089512Y-53818875D01*
X154800946Y-54155285D01*
X154462916Y-54368277D01*
X154278918Y-54405000D01*
X154065674Y-54455801D01*
X154058576Y-54563872D01*
X154241961Y-54662715D01*
X154344225Y-54682314D01*
X154546443Y-54723880D01*
X154587917Y-54825490D01*
X154489771Y-55064341D01*
X154463539Y-55118366D01*
X154126646Y-55536664D01*
X153626545Y-55771137D01*
X153295774Y-55815510D01*
X152952500Y-55829020D01*
X153301750Y-55967026D01*
X153561003Y-56091776D01*
X153624854Y-56223987D01*
X153494662Y-56424292D01*
X153316181Y-56610181D01*
X152981715Y-56855446D01*
X152573981Y-56942157D01*
X152451455Y-56945000D01*
X152106145Y-56984552D01*
X151796066Y-57082923D01*
X151577923Y-57209682D01*
X151508424Y-57334399D01*
X151588041Y-57408325D01*
X151690956Y-57535037D01*
X151675583Y-57591190D01*
X151516866Y-57635782D01*
X151365000Y-57580000D01*
X151123011Y-57521440D01*
X151047712Y-57579656D01*
X150865882Y-57701971D01*
X150682678Y-57605243D01*
X150673203Y-57590847D01*
X150699747Y-57447857D01*
X150760958Y-57408325D01*
X150835332Y-57305087D01*
X150721912Y-57174086D01*
X150479365Y-57048983D01*
X150166356Y-56963442D01*
X149953470Y-56945000D01*
X149423778Y-56833186D01*
X149088744Y-56616210D01*
X148803592Y-56353386D01*
X148776516Y-56296489D01*
X149206000Y-56296489D01*
X149312769Y-56494426D01*
X149558094Y-56650252D01*
X149754950Y-56691000D01*
X149919102Y-56657271D01*
X149860748Y-56524406D01*
X149852390Y-56514224D01*
X149664469Y-56367040D01*
X149431168Y-56267309D01*
X149249878Y-56247837D01*
X149206000Y-56296489D01*
X148776516Y-56296489D01*
X148723244Y-56184542D01*
X148844399Y-56058027D01*
X149047250Y-55967026D01*
X149396500Y-55829020D01*
X148993494Y-55815510D01*
X148662692Y-55742193D01*
X148339309Y-55570863D01*
X148057685Y-55341959D01*
X147852163Y-55095922D01*
X147798486Y-54970179D01*
X148121415Y-54970179D01*
X148246710Y-55134022D01*
X148355831Y-55234513D01*
X148644591Y-55454879D01*
X148831289Y-55538769D01*
X148881163Y-55486591D01*
X148759448Y-55298753D01*
X148698000Y-55230500D01*
X148592377Y-55142240D01*
X149357792Y-55142240D01*
X149370516Y-55387752D01*
X149452903Y-55607376D01*
X149563350Y-55739087D01*
X149660254Y-55720862D01*
X149690280Y-55637932D01*
X149661734Y-55376455D01*
X149566071Y-55141905D01*
X149402082Y-54849500D01*
X149357792Y-55142240D01*
X148592377Y-55142240D01*
X148439067Y-55014133D01*
X148212880Y-54917393D01*
X148199612Y-54917013D01*
X148121415Y-54970179D01*
X147798486Y-54970179D01*
X147757083Y-54873190D01*
X147806787Y-54714204D01*
X148011389Y-54659000D01*
X148264005Y-54616403D01*
X148294258Y-54518082D01*
X148113305Y-54408239D01*
X147936073Y-54360564D01*
X147537917Y-54155878D01*
X147299737Y-53868439D01*
X147159909Y-53576284D01*
X147428000Y-53576284D01*
X147509457Y-53746105D01*
X147695749Y-53938932D01*
X147899751Y-54080110D01*
X148033877Y-54095455D01*
X148032455Y-54080004D01*
X148571000Y-54080004D01*
X148602406Y-54376769D01*
X148679792Y-54527334D01*
X148698000Y-54532000D01*
X148787852Y-54421814D01*
X148825000Y-54158495D01*
X148785851Y-53865202D01*
X148698000Y-53706500D01*
X148611581Y-53760154D01*
X148571937Y-54018885D01*
X148571000Y-54080004D01*
X148032455Y-54080004D01*
X148021384Y-53959755D01*
X147949817Y-53795818D01*
X147774319Y-53573116D01*
X147583415Y-53461507D01*
X147450209Y-53491745D01*
X147428000Y-53576284D01*
X147159909Y-53576284D01*
X147107391Y-53466554D01*
X147107311Y-53209733D01*
X147297616Y-53108768D01*
X147431130Y-53115052D01*
X147600716Y-53127093D01*
X147618474Y-53071797D01*
X147469147Y-52911958D01*
X147334749Y-52788867D01*
X147957942Y-52788867D01*
X147965431Y-53043864D01*
X148060580Y-53135000D01*
X148181714Y-53027411D01*
X148263036Y-52824718D01*
X148291646Y-52543729D01*
X148244372Y-52351025D01*
X148152406Y-52302220D01*
X148050018Y-52444929D01*
X147957942Y-52788867D01*
X147334749Y-52788867D01*
X147274899Y-52734052D01*
X146927504Y-52339294D01*
X146780784Y-51919791D01*
X146780723Y-51906199D01*
X147074006Y-51906199D01*
X147115882Y-52171551D01*
X147246756Y-52383227D01*
X147446672Y-52564122D01*
X147518551Y-52538403D01*
X147456664Y-52322074D01*
X147348502Y-52099052D01*
X147197035Y-51846190D01*
X147112040Y-51807437D01*
X147074006Y-51906199D01*
X146780723Y-51906199D01*
X146778942Y-51511281D01*
X146845488Y-51412686D01*
X147047000Y-51484000D01*
X147236160Y-51551564D01*
X147248961Y-51526137D01*
X147559039Y-51526137D01*
X147572971Y-51717348D01*
X147643562Y-51689895D01*
X147749539Y-51554976D01*
X147898203Y-51266948D01*
X147936000Y-51078726D01*
X147883985Y-50885823D01*
X147822587Y-50849000D01*
X147678711Y-50962140D01*
X147581766Y-51247018D01*
X147559039Y-51526137D01*
X147248961Y-51526137D01*
X147297386Y-51429945D01*
X147300999Y-51315095D01*
X147378441Y-51005367D01*
X147565899Y-50673725D01*
X147576777Y-50659659D01*
X147768696Y-50436268D01*
X147887548Y-50397842D01*
X148009535Y-50523832D01*
G37*
D14*
X69320000Y-66500000D02*
X70270000Y-66500000D01*
X70270000Y-65580000D02*
X70270000Y-67420000D01*
X70270000Y-67420000D02*
X74110000Y-67420000D01*
X74110000Y-65580000D02*
X70270000Y-65580000D01*
X74110000Y-67420000D02*
X74110000Y-65580000D01*
X75060000Y-66500000D02*
X74110000Y-66500000D01*
X86545000Y-62210000D02*
X83455000Y-62210000D01*
X85000462Y-67760000D02*
G75*
G02*
X83455170Y-62210000I-462J2990000D01*
G01*
X86544830Y-62210000D02*
G75*
G02*
X84999538Y-67760000I-1544830J-2560000D01*
G01*
X87500000Y-64770000D02*
G75*
G02*
X82500000Y-64770000I-2500000J0D01*
G01*
X82500000Y-64770000D02*
G75*
G02*
X87500000Y-64770000I2500000J0D01*
G01*
X69440000Y-50500000D02*
X70390000Y-50500000D01*
X70390000Y-49580000D02*
X70390000Y-51420000D01*
X70390000Y-51420000D02*
X74230000Y-51420000D01*
X74230000Y-49580000D02*
X70390000Y-49580000D01*
X74230000Y-51420000D02*
X74230000Y-49580000D01*
X75180000Y-50500000D02*
X74230000Y-50500000D01*
X56350000Y-85735000D02*
X56350000Y-90235000D01*
X56350000Y-90235000D02*
X66630000Y-90235000D01*
X66630000Y-85735000D02*
X56350000Y-85735000D01*
X66630000Y-86985000D02*
X66630000Y-85735000D01*
X66630000Y-90235000D02*
X66630000Y-88985000D01*
X66630000Y-88985000D02*
G75*
G02*
X66630000Y-86985000I0J1000000D01*
G01*
X55080000Y-66580000D02*
X55080000Y-70420000D01*
X55080000Y-70420000D02*
X56920000Y-70420000D01*
X56000000Y-65630000D02*
X56000000Y-66580000D01*
X56000000Y-71370000D02*
X56000000Y-70420000D01*
X56920000Y-66580000D02*
X55080000Y-66580000D01*
X56920000Y-70420000D02*
X56920000Y-66580000D01*
X128500000Y-80250000D02*
X128500000Y-81750000D01*
X129750000Y-84250000D02*
X134250000Y-84250000D01*
X134250000Y-77750000D02*
X129750000Y-77750000D01*
X135500000Y-81750000D02*
X135500000Y-80250000D01*
X139000000Y-71250000D02*
X139000000Y-72750000D01*
X140250000Y-75250000D02*
X144750000Y-75250000D01*
X144750000Y-68750000D02*
X140250000Y-68750000D01*
X146000000Y-72750000D02*
X146000000Y-71250000D01*
X69320000Y-70500000D02*
X70270000Y-70500000D01*
X70270000Y-69580000D02*
X70270000Y-71420000D01*
X70270000Y-71420000D02*
X74110000Y-71420000D01*
X74110000Y-69580000D02*
X70270000Y-69580000D01*
X74110000Y-71420000D02*
X74110000Y-69580000D01*
X75060000Y-70500000D02*
X74110000Y-70500000D01*
X88930000Y-117750000D02*
X88930000Y-118750000D01*
X88930000Y-118750000D02*
X89430000Y-118250000D01*
X89430000Y-118250000D02*
X88930000Y-117750000D01*
X89485000Y-115380000D02*
X89485000Y-117075000D01*
X89485000Y-115380000D02*
X94070000Y-115380000D01*
X89485000Y-119425000D02*
X89485000Y-121295000D01*
X89485000Y-122206000D02*
X89485000Y-124620000D01*
X89485000Y-124620000D02*
X92870000Y-124620000D01*
X96141000Y-124620000D02*
X118070000Y-124620000D01*
X97105000Y-118500000D02*
X97105000Y-121500000D01*
X97105000Y-120000000D02*
X97855000Y-120750000D01*
X97105000Y-120000000D02*
X117105000Y-120000000D01*
X97341000Y-115380000D02*
X116870000Y-115380000D01*
X97855000Y-119250000D02*
X97105000Y-120000000D01*
X116355000Y-119250000D02*
X117105000Y-120000000D01*
X117105000Y-118500000D02*
X117105000Y-121500000D01*
X117105000Y-120000000D02*
X116355000Y-120750000D01*
X120141000Y-115380000D02*
X124725000Y-115380000D01*
X121341000Y-124620000D02*
X124725000Y-124620000D01*
X124725000Y-115380000D02*
X124725000Y-117794000D01*
X124725000Y-118706000D02*
X124725000Y-124620000D01*
X69320000Y-58500000D02*
X70270000Y-58500000D01*
X70270000Y-57580000D02*
X70270000Y-59420000D01*
X70270000Y-59420000D02*
X74110000Y-59420000D01*
X74110000Y-57580000D02*
X70270000Y-57580000D01*
X74110000Y-59420000D02*
X74110000Y-57580000D01*
X75060000Y-58500000D02*
X74110000Y-58500000D01*
X98080000Y-41580000D02*
X98080000Y-45420000D01*
X98080000Y-45420000D02*
X99920000Y-45420000D01*
X99000000Y-40630000D02*
X99000000Y-41580000D01*
X99000000Y-46370000D02*
X99000000Y-45420000D01*
X99920000Y-41580000D02*
X98080000Y-41580000D01*
X99920000Y-45420000D02*
X99920000Y-41580000D01*
D13*
X60522500Y-106960000D02*
X60522500Y-114580000D01*
X60522500Y-114580000D02*
X64332500Y-114580000D01*
X64332500Y-104420000D02*
X64332500Y-106960000D01*
X64332500Y-106960000D02*
X60522500Y-106960000D01*
X64332500Y-114580000D02*
X64332500Y-119660000D01*
X64332500Y-119660000D02*
X67507500Y-119660000D01*
X66872500Y-96800000D02*
X66872500Y-104420000D01*
X66872500Y-104420000D02*
X64332500Y-104420000D01*
X67507500Y-119660000D02*
X67507500Y-122200000D01*
X67507500Y-122200000D02*
X76397500Y-122200000D01*
X68777500Y-98070000D02*
X75127500Y-98070000D01*
X68777500Y-98705000D02*
X68777500Y-100610000D01*
X68777500Y-101880000D02*
X68142500Y-99975000D01*
X68777500Y-102515000D02*
X68777500Y-101880000D01*
X68777500Y-103150000D02*
X75127500Y-103150000D01*
X76397500Y-119660000D02*
X79572500Y-119660000D01*
X76397500Y-122200000D02*
X76397500Y-119660000D01*
X77032500Y-96800000D02*
X66872500Y-96800000D01*
X77032500Y-103785000D02*
X77032500Y-96800000D01*
X79572500Y-103785000D02*
X77032500Y-103785000D01*
X79572500Y-106325000D02*
X79572500Y-103785000D01*
X79572500Y-113945000D02*
X81477500Y-113945000D01*
X79572500Y-119660000D02*
X79572500Y-113945000D01*
X81477500Y-106325000D02*
X79572500Y-106325000D01*
X81477500Y-113945000D02*
X81477500Y-106325000D01*
D16*
X72460500Y-110770000D02*
G75*
G02*
X71444500Y-110770000I-508000J0D01*
G01*
X71444500Y-110770000D02*
G75*
G02*
X72460500Y-110770000I508000J0D01*
G01*
D14*
X58213800Y-47795000D02*
X58213800Y-50335000D01*
X58213800Y-50335000D02*
X60753800Y-50335000D01*
X59166300Y-49065000D02*
X58531300Y-49065000D01*
D17*
X59166300Y-49700000D02*
X59166300Y-48430000D01*
X59801300Y-49700000D02*
X59801300Y-48430000D01*
D14*
X60436300Y-49065000D02*
X59801300Y-49065000D01*
X60753800Y-47795000D02*
X58213800Y-47795000D01*
X60753800Y-50335000D02*
X60753800Y-47795000D01*
X86545000Y-49170000D02*
X83455000Y-49170000D01*
X85000462Y-54720000D02*
G75*
G02*
X83455170Y-49170000I-462J2990000D01*
G01*
X86544830Y-49170000D02*
G75*
G02*
X84999538Y-54720000I-1544830J-2560000D01*
G01*
X87500000Y-51730000D02*
G75*
G02*
X82500000Y-51730000I-2500000J0D01*
G01*
X82500000Y-51730000D02*
G75*
G02*
X87500000Y-51730000I2500000J0D01*
G01*
X129820000Y-56000000D02*
X130770000Y-56000000D01*
X130770000Y-55080000D02*
X130770000Y-56920000D01*
X130770000Y-56920000D02*
X134610000Y-56920000D01*
X134610000Y-55080000D02*
X130770000Y-55080000D01*
X134610000Y-56920000D02*
X134610000Y-55080000D01*
X135560000Y-56000000D02*
X134610000Y-56000000D01*
X70660251Y-88245000D02*
X71260251Y-88245000D01*
X70960251Y-87945000D02*
X70960251Y-88545000D01*
X71065584Y-88907800D02*
G75*
G02*
X76934416Y-88907800I2934416J-1059999D01*
G01*
X76934416Y-91092200D02*
G75*
G02*
X71065584Y-91092200I-2934416J1059999D01*
G01*
X81820000Y-58000000D02*
X82770000Y-58000000D01*
X82770000Y-57080000D02*
X82770000Y-58920000D01*
X82770000Y-58920000D02*
X86610000Y-58920000D01*
X86610000Y-57080000D02*
X82770000Y-57080000D01*
X86610000Y-58920000D02*
X86610000Y-57080000D01*
X87560000Y-58000000D02*
X86610000Y-58000000D01*
X115670000Y-41835000D02*
X115670000Y-44925000D01*
X115670000Y-41835170D02*
G75*
G02*
X121220000Y-43380462I2560000J-1544830D01*
G01*
X121220000Y-43379538D02*
G75*
G02*
X115670000Y-44924830I-2990000J-462D01*
G01*
X120730000Y-43380000D02*
G75*
G02*
X115730000Y-43380000I-2500000J0D01*
G01*
X115730000Y-43380000D02*
G75*
G02*
X120730000Y-43380000I2500000J0D01*
G01*
X70660251Y-77745000D02*
X71260251Y-77745000D01*
X70960251Y-77445000D02*
X70960251Y-78045000D01*
X71065584Y-78407800D02*
G75*
G02*
X76934416Y-78407800I2934416J-1059999D01*
G01*
X76934416Y-80592200D02*
G75*
G02*
X71065584Y-80592200I-2934416J1059999D01*
G01*
D13*
X135022500Y-105460000D02*
X135022500Y-113080000D01*
X135022500Y-113080000D02*
X138832500Y-113080000D01*
X138832500Y-102920000D02*
X138832500Y-105460000D01*
X138832500Y-105460000D02*
X135022500Y-105460000D01*
X138832500Y-113080000D02*
X138832500Y-118160000D01*
X138832500Y-118160000D02*
X142007500Y-118160000D01*
X141372500Y-95300000D02*
X141372500Y-102920000D01*
X141372500Y-102920000D02*
X138832500Y-102920000D01*
X142007500Y-118160000D02*
X142007500Y-120700000D01*
X142007500Y-120700000D02*
X150897500Y-120700000D01*
X143277500Y-96570000D02*
X149627500Y-96570000D01*
X143277500Y-97205000D02*
X143277500Y-99110000D01*
X143277500Y-100380000D02*
X142642500Y-98475000D01*
X143277500Y-101015000D02*
X143277500Y-100380000D01*
X143277500Y-101650000D02*
X149627500Y-101650000D01*
X150897500Y-118160000D02*
X154072500Y-118160000D01*
X150897500Y-120700000D02*
X150897500Y-118160000D01*
X151532500Y-95300000D02*
X141372500Y-95300000D01*
X151532500Y-102285000D02*
X151532500Y-95300000D01*
X154072500Y-102285000D02*
X151532500Y-102285000D01*
X154072500Y-104825000D02*
X154072500Y-102285000D01*
X154072500Y-112445000D02*
X155977500Y-112445000D01*
X154072500Y-118160000D02*
X154072500Y-112445000D01*
X155977500Y-104825000D02*
X154072500Y-104825000D01*
X155977500Y-112445000D02*
X155977500Y-104825000D01*
D16*
X146960500Y-109270000D02*
G75*
G02*
X145944500Y-109270000I-508000J0D01*
G01*
X145944500Y-109270000D02*
G75*
G02*
X146960500Y-109270000I508000J0D01*
G01*
D14*
X149000000Y-79750000D02*
X149000000Y-81250000D01*
X150250000Y-83750000D02*
X154750000Y-83750000D01*
X154750000Y-77250000D02*
X150250000Y-77250000D01*
X156000000Y-81250000D02*
X156000000Y-79750000D01*
X123080000Y-41770000D02*
X123080000Y-45610000D01*
X123080000Y-45610000D02*
X124920000Y-45610000D01*
X124000000Y-40820000D02*
X124000000Y-41770000D01*
X124000000Y-46560000D02*
X124000000Y-45610000D01*
X124920000Y-41770000D02*
X123080000Y-41770000D01*
X124920000Y-45610000D02*
X124920000Y-41770000D01*
X129820000Y-60000000D02*
X130770000Y-60000000D01*
X130770000Y-59080000D02*
X130770000Y-60920000D01*
X130770000Y-60920000D02*
X134610000Y-60920000D01*
X134610000Y-59080000D02*
X130770000Y-59080000D01*
X134610000Y-60920000D02*
X134610000Y-59080000D01*
X135560000Y-60000000D02*
X134610000Y-60000000D01*
X110580000Y-41390000D02*
X110580000Y-45230000D01*
X110580000Y-45230000D02*
X112420000Y-45230000D01*
X111500000Y-40440000D02*
X111500000Y-41390000D01*
X111500000Y-46180000D02*
X111500000Y-45230000D01*
X112420000Y-41390000D02*
X110580000Y-41390000D01*
X112420000Y-45230000D02*
X112420000Y-41390000D01*
X56630000Y-54500000D02*
X57580000Y-54500000D01*
X57580000Y-53580000D02*
X57580000Y-55420000D01*
X57580000Y-55420000D02*
X61420000Y-55420000D01*
X61420000Y-53580000D02*
X57580000Y-53580000D01*
X61420000Y-55420000D02*
X61420000Y-53580000D01*
X62370000Y-54500000D02*
X61420000Y-54500000D01*
X129820000Y-48000000D02*
X130770000Y-48000000D01*
X130770000Y-47080000D02*
X130770000Y-48920000D01*
X130770000Y-48920000D02*
X134610000Y-48920000D01*
X134610000Y-47080000D02*
X130770000Y-47080000D01*
X134610000Y-48920000D02*
X134610000Y-47080000D01*
X135560000Y-48000000D02*
X134610000Y-48000000D01*
X69440000Y-54500000D02*
X70390000Y-54500000D01*
X70390000Y-53580000D02*
X70390000Y-55420000D01*
X70390000Y-55420000D02*
X74230000Y-55420000D01*
X74230000Y-53580000D02*
X70390000Y-53580000D01*
X74230000Y-55420000D02*
X74230000Y-53580000D01*
X75180000Y-54500000D02*
X74230000Y-54500000D01*
X129820000Y-52000000D02*
X130770000Y-52000000D01*
X130770000Y-51080000D02*
X130770000Y-52920000D01*
X130770000Y-52920000D02*
X134610000Y-52920000D01*
X134610000Y-51080000D02*
X130770000Y-51080000D01*
X134610000Y-52920000D02*
X134610000Y-51080000D01*
X135560000Y-52000000D02*
X134610000Y-52000000D01*
X146500000Y-89250000D02*
X146500000Y-87750000D01*
X145250000Y-85250000D02*
X140750000Y-85250000D01*
X140750000Y-91750000D02*
X145250000Y-91750000D01*
X139500000Y-87750000D02*
X139500000Y-89250000D01*
X69440000Y-46500000D02*
X70390000Y-46500000D01*
X70390000Y-45580000D02*
X70390000Y-47420000D01*
X70390000Y-47420000D02*
X74230000Y-47420000D01*
X74230000Y-45580000D02*
X70390000Y-45580000D01*
X74230000Y-47420000D02*
X74230000Y-45580000D01*
X75180000Y-46500000D02*
X74230000Y-46500000D01*
X52170000Y-99670000D02*
X53500000Y-99670000D01*
X52170000Y-101000000D02*
X52170000Y-99670000D01*
X52170000Y-102270000D02*
X52170000Y-104870000D01*
X52170000Y-102270000D02*
X54830000Y-102270000D01*
X52170000Y-104870000D02*
X54830000Y-104870000D01*
X54830000Y-102270000D02*
X54830000Y-104870000D01*
X86545000Y-74710000D02*
X83455000Y-74710000D01*
X85000462Y-80260000D02*
G75*
G02*
X83455170Y-74710000I-462J2990000D01*
G01*
X86544830Y-74710000D02*
G75*
G02*
X84999538Y-80260000I-1544830J-2560000D01*
G01*
X87500000Y-77270000D02*
G75*
G02*
X82500000Y-77270000I-2500000J0D01*
G01*
X82500000Y-77270000D02*
G75*
G02*
X87500000Y-77270000I2500000J0D01*
G01*
X90170000Y-41955000D02*
X90170000Y-45045000D01*
X90170000Y-41955170D02*
G75*
G02*
X95720000Y-43500462I2560000J-1544830D01*
G01*
X95720000Y-43499538D02*
G75*
G02*
X90170000Y-45044830I-2990000J-462D01*
G01*
X95230000Y-43500000D02*
G75*
G02*
X90230000Y-43500000I-2500000J0D01*
G01*
X90230000Y-43500000D02*
G75*
G02*
X95230000Y-43500000I2500000J0D01*
G01*
X84170000Y-89590000D02*
X85500000Y-89590000D01*
X84170000Y-90920000D02*
X84170000Y-89590000D01*
X84170000Y-92190000D02*
X84170000Y-97330000D01*
X84170000Y-92190000D02*
X86830000Y-92190000D01*
X84170000Y-97330000D02*
X86830000Y-97330000D01*
X86830000Y-92190000D02*
X86830000Y-97330000D01*
X102670000Y-41955000D02*
X102670000Y-45045000D01*
X102670000Y-41955170D02*
G75*
G02*
X108220000Y-43500462I2560000J-1544830D01*
G01*
X108220000Y-43499538D02*
G75*
G02*
X102670000Y-45044830I-2990000J-462D01*
G01*
X107730000Y-43500000D02*
G75*
G02*
X102730000Y-43500000I-2500000J0D01*
G01*
X102730000Y-43500000D02*
G75*
G02*
X107730000Y-43500000I2500000J0D01*
G01*
X82320000Y-71000000D02*
X83270000Y-71000000D01*
X83270000Y-70080000D02*
X83270000Y-71920000D01*
X83270000Y-71920000D02*
X87110000Y-71920000D01*
X87110000Y-70080000D02*
X83270000Y-70080000D01*
X87110000Y-71920000D02*
X87110000Y-70080000D01*
X88060000Y-71000000D02*
X87110000Y-71000000D01*
D16*
X89855000Y-51600000D02*
X89855000Y-102400000D01*
X92395000Y-104940000D02*
X121605000Y-104940000D01*
X121605000Y-49060000D02*
X92395000Y-49060000D01*
X124145000Y-102400000D02*
X124145000Y-51600000D01*
D13*
X91760000Y-56680000D02*
X122240000Y-56680000D01*
X122240000Y-98590000D01*
X91760000Y-98590000D01*
X91760000Y-56680000D01*
D16*
X89855000Y-51600000D02*
G75*
G02*
X92395000Y-49060000I2540001J-1D01*
G01*
X92395000Y-104940000D02*
G75*
G02*
X89855000Y-102400000I1J2540001D01*
G01*
X121605000Y-49060000D02*
G75*
G02*
X124145000Y-51600000I0J-2540000D01*
G01*
X124145000Y-102400000D02*
G75*
G02*
X121605000Y-104940000I-2540000J0D01*
G01*
D17*
X95722400Y-104305000D02*
G75*
G02*
X95417600Y-104305000I-152400J0D01*
G01*
X95417600Y-104305000D02*
G75*
G02*
X95722400Y-104305000I152400J0D01*
G01*
%LPC*%
D18*
X80880000Y-83500000D03*
D19*
X88500000Y-83500000D03*
D18*
X68500000Y-62500000D03*
D19*
X76120000Y-62500000D03*
D20*
X82460000Y-123500000D03*
D21*
X85000000Y-123500000D03*
D18*
X68500000Y-42500000D03*
D19*
X76120000Y-42500000D03*
D22*
X137920000Y-42500000D03*
D21*
X140460000Y-42500000D03*
X143000000Y-42500000D03*
D18*
X68380000Y-66500000D03*
D19*
X76000000Y-66500000D03*
D23*
X85000000Y-63500000D03*
D24*
X85000000Y-66040000D03*
D18*
X68500000Y-50500000D03*
D19*
X76120000Y-50500000D03*
D25*
X65300000Y-84175000D03*
D26*
X62760000Y-84175000D03*
X60220000Y-84175000D03*
X57680000Y-84175000D03*
X57680000Y-91795000D03*
X60220000Y-91795000D03*
X62760000Y-91795000D03*
X65300000Y-91795000D03*
D18*
X56000000Y-72310000D03*
D19*
X56000000Y-64690000D03*
D27*
X128750000Y-78750000D03*
X135250000Y-78750000D03*
X128750000Y-83250000D03*
X135250000Y-83250000D03*
X139250000Y-69750000D03*
X145750000Y-69750000D03*
X139250000Y-74250000D03*
X145750000Y-74250000D03*
D18*
X68380000Y-70500000D03*
D19*
X76000000Y-70500000D03*
D28*
X94505000Y-124200000D03*
X95705000Y-115800000D03*
X118505000Y-115800000D03*
X119705000Y-124200000D03*
D29*
X90605000Y-118250000D03*
D30*
X90605000Y-121750000D03*
X123605000Y-118250000D03*
D18*
X68380000Y-58500000D03*
D19*
X76000000Y-58500000D03*
D18*
X99000000Y-47310000D03*
D19*
X99000000Y-39690000D03*
D20*
X60960000Y-43000000D03*
D21*
X63500000Y-43000000D03*
D31*
X61792500Y-113310000D03*
X61792500Y-110770000D03*
X61792500Y-108230000D03*
X69412500Y-120930000D03*
X71952500Y-120930000D03*
X74492500Y-120930000D03*
D32*
X64332500Y-104102500D03*
X64332500Y-117437500D03*
X79572500Y-117437500D03*
X79572500Y-104102500D03*
D31*
X68777500Y-103150000D03*
X75127500Y-103150000D03*
X68777500Y-98070000D03*
X75127500Y-98070000D03*
D20*
X130725000Y-118500000D03*
D21*
X133265000Y-118500000D03*
D33*
X56943800Y-49065000D03*
D34*
X62023800Y-49065000D03*
D23*
X85000000Y-50460000D03*
D24*
X85000000Y-53000000D03*
D35*
X161290000Y-41910000D03*
X161290000Y-123190000D03*
X54610000Y-41910000D03*
D18*
X136500000Y-56000000D03*
D19*
X128880000Y-56000000D03*
D35*
X54610000Y-123190000D03*
D36*
X71500000Y-90000000D03*
D37*
X76580000Y-90000000D03*
D18*
X80880000Y-58000000D03*
D19*
X88500000Y-58000000D03*
D20*
X130725000Y-124000000D03*
D21*
X133265000Y-124000000D03*
D23*
X116960000Y-43380000D03*
D24*
X119500000Y-43380000D03*
D36*
X71500000Y-79500000D03*
D37*
X76580000Y-79500000D03*
D31*
X136292500Y-111810000D03*
X136292500Y-109270000D03*
X136292500Y-106730000D03*
X143912500Y-119430000D03*
X146452500Y-119430000D03*
X148992500Y-119430000D03*
D32*
X138832500Y-102602500D03*
X138832500Y-115937500D03*
X154072500Y-115937500D03*
X154072500Y-102602500D03*
D31*
X143277500Y-101650000D03*
X149627500Y-101650000D03*
X143277500Y-96570000D03*
X149627500Y-96570000D03*
D27*
X149250000Y-78250000D03*
X155750000Y-78250000D03*
X149250000Y-82750000D03*
X155750000Y-82750000D03*
D18*
X124000000Y-47500000D03*
D19*
X124000000Y-39880000D03*
D18*
X136500000Y-60000000D03*
D19*
X128880000Y-60000000D03*
D18*
X111500000Y-47120000D03*
D19*
X111500000Y-39500000D03*
D18*
X55690000Y-54500000D03*
D19*
X63310000Y-54500000D03*
D18*
X136500000Y-48000000D03*
D19*
X128880000Y-48000000D03*
D18*
X68500000Y-54500000D03*
D19*
X76120000Y-54500000D03*
D18*
X136500000Y-52000000D03*
D19*
X128880000Y-52000000D03*
D27*
X146250000Y-90750000D03*
X139750000Y-90750000D03*
X146250000Y-86250000D03*
X139750000Y-86250000D03*
D18*
X68500000Y-46500000D03*
D19*
X76120000Y-46500000D03*
D22*
X53500000Y-101000000D03*
D21*
X53500000Y-103540000D03*
D23*
X85000000Y-76000000D03*
D24*
X85000000Y-78540000D03*
D23*
X91460000Y-43500000D03*
D24*
X94000000Y-43500000D03*
D22*
X85500000Y-90920000D03*
D21*
X85500000Y-93460000D03*
X85500000Y-96000000D03*
D23*
X103960000Y-43500000D03*
D24*
X106500000Y-43500000D03*
D18*
X81380000Y-71000000D03*
D19*
X89000000Y-71000000D03*
D38*
X92395000Y-51600000D03*
X92395000Y-102400000D03*
X121605000Y-51600000D03*
X121605000Y-102400000D03*
D39*
X95570000Y-102400000D03*
D40*
X98110000Y-102400000D03*
X100650000Y-102400000D03*
X103190000Y-102400000D03*
X105730000Y-102400000D03*
X108270000Y-102400000D03*
X110810000Y-102400000D03*
X113350000Y-102400000D03*
X115890000Y-102400000D03*
X118430000Y-102400000D03*
D41*
X106500000Y-65780000D03*
D42*
X109040000Y-65780000D03*
X111580000Y-65780000D03*
X114120000Y-65780000D03*
X116660000Y-65780000D03*
X119200000Y-65780000D03*
X121740000Y-65780000D03*
X124280000Y-65780000D03*
X126820000Y-65780000D03*
X129360000Y-65780000D03*
X106500000Y-111500000D03*
X109040000Y-111500000D03*
X111580000Y-111500000D03*
X114120000Y-111500000D03*
X116660000Y-111500000D03*
X119200000Y-111500000D03*
X121740000Y-111500000D03*
X124280000Y-111500000D03*
X126820000Y-111500000D03*
X129360000Y-111500000D03*
X106500000Y-68320000D03*
X109040000Y-68320000D03*
X111580000Y-68320000D03*
X114120000Y-68320000D03*
X116660000Y-68320000D03*
X119200000Y-68320000D03*
X121740000Y-68320000D03*
X124280000Y-68320000D03*
X126820000Y-68320000D03*
X129360000Y-68320000D03*
X106500000Y-108960000D03*
X109040000Y-108960000D03*
X111580000Y-108960000D03*
X114120000Y-108960000D03*
X116660000Y-108960000D03*
X119200000Y-108960000D03*
X121740000Y-108960000D03*
X124280000Y-108960000D03*
X126820000Y-108960000D03*
X129360000Y-108960000D03*
%LPD*%
M02*
