G04 #@! TF.GenerationSoftware,KiCad,Pcbnew,9.0.0*
G04 #@! TF.CreationDate,2025-03-23T13:33:11-05:00*
G04 #@! TF.ProjectId,CDR3585,43445233-3538-4352-9e6b-696361645f70,v1.0.1*
G04 #@! TF.SameCoordinates,Original*
G04 #@! TF.FileFunction,Copper,L1,Top*
G04 #@! TF.FilePolarity,Positive*
%FSLAX46Y46*%
G04 Gerber Fmt 4.6, Leading zero omitted, Abs format (unit mm)*
G04 Created by KiCad (PCBNEW 9.0.0) date 2025-03-23 13:33:11*
%MOMM*%
%LPD*%
G01*
G04 APERTURE LIST*
G04 #@! TA.AperFunction,ComponentPad*
%ADD10C,1.400000*%
G04 #@! TD*
G04 #@! TA.AperFunction,ComponentPad*
%ADD11O,1.400000X1.400000*%
G04 #@! TD*
G04 #@! TA.AperFunction,ComponentPad*
%ADD12C,1.700000*%
G04 #@! TD*
G04 #@! TA.AperFunction,ComponentPad*
%ADD13O,1.700000X1.700000*%
G04 #@! TD*
G04 #@! TA.AperFunction,ComponentPad*
%ADD14R,1.700000X1.700000*%
G04 #@! TD*
G04 #@! TA.AperFunction,ComponentPad*
%ADD15R,1.800000X1.800000*%
G04 #@! TD*
G04 #@! TA.AperFunction,ComponentPad*
%ADD16C,1.800000*%
G04 #@! TD*
G04 #@! TA.AperFunction,ComponentPad*
%ADD17R,1.600000X2.400000*%
G04 #@! TD*
G04 #@! TA.AperFunction,ComponentPad*
%ADD18O,1.600000X2.400000*%
G04 #@! TD*
G04 #@! TA.AperFunction,ComponentPad*
%ADD19C,2.000000*%
G04 #@! TD*
G04 #@! TA.AperFunction,WasherPad*
%ADD20C,2.700000*%
G04 #@! TD*
G04 #@! TA.AperFunction,ComponentPad*
%ADD21R,1.750000X1.750000*%
G04 #@! TD*
G04 #@! TA.AperFunction,ComponentPad*
%ADD22C,1.750000*%
G04 #@! TD*
G04 #@! TA.AperFunction,ComponentPad*
%ADD23C,1.778000*%
G04 #@! TD*
G04 #@! TA.AperFunction,ComponentPad*
%ADD24C,2.286000*%
G04 #@! TD*
G04 #@! TA.AperFunction,ComponentPad*
%ADD25C,1.600000*%
G04 #@! TD*
G04 #@! TA.AperFunction,ComponentPad*
%ADD26O,1.600000X1.600000*%
G04 #@! TD*
G04 #@! TA.AperFunction,ComponentPad*
%ADD27C,4.318000*%
G04 #@! TD*
G04 #@! TA.AperFunction,ComponentPad*
%ADD28R,2.032000X2.032000*%
G04 #@! TD*
G04 #@! TA.AperFunction,ComponentPad*
%ADD29C,2.032000*%
G04 #@! TD*
G04 #@! TA.AperFunction,ComponentPad*
%ADD30R,1.778000X1.778000*%
G04 #@! TD*
G04 #@! TA.AperFunction,ComponentPad*
%ADD31R,1.520000X1.520000*%
G04 #@! TD*
G04 #@! TA.AperFunction,ComponentPad*
%ADD32C,1.520000*%
G04 #@! TD*
G04 #@! TA.AperFunction,ViaPad*
%ADD33C,0.800000*%
G04 #@! TD*
G04 #@! TA.AperFunction,Conductor*
%ADD34C,0.200000*%
G04 #@! TD*
G04 APERTURE END LIST*
D10*
X80880000Y-83500000D03*
D11*
X88500000Y-83500000D03*
D10*
X68500000Y-62500000D03*
D11*
X76120000Y-62500000D03*
D12*
X82460000Y-123500000D03*
D13*
X85000000Y-123500000D03*
D10*
X68500000Y-42500000D03*
D11*
X76120000Y-42500000D03*
D14*
X137920000Y-42500000D03*
D13*
X140460000Y-42500000D03*
X143000000Y-42500000D03*
D10*
X68380000Y-66500000D03*
D11*
X76000000Y-66500000D03*
D15*
X85000000Y-63500000D03*
D16*
X85000000Y-66040000D03*
D10*
X68500000Y-50500000D03*
D11*
X76120000Y-50500000D03*
D17*
X65300000Y-84175000D03*
D18*
X62760000Y-84175000D03*
X60220000Y-84175000D03*
X57680000Y-84175000D03*
X57680000Y-91795000D03*
X60220000Y-91795000D03*
X62760000Y-91795000D03*
X65300000Y-91795000D03*
D10*
X56000000Y-72310000D03*
D11*
X56000000Y-64690000D03*
D19*
X128750000Y-78750000D03*
X135250000Y-78750000D03*
X128750000Y-83250000D03*
X135250000Y-83250000D03*
X139250000Y-69750000D03*
X145750000Y-69750000D03*
X139250000Y-74250000D03*
X145750000Y-74250000D03*
D10*
X68380000Y-70500000D03*
D11*
X76000000Y-70500000D03*
D20*
X94505000Y-124200000D03*
X95705000Y-115800000D03*
X118505000Y-115800000D03*
X119705000Y-124200000D03*
D21*
X90605000Y-118250000D03*
D22*
X90605000Y-121750000D03*
X123605000Y-118250000D03*
D10*
X68380000Y-58500000D03*
D11*
X76000000Y-58500000D03*
D10*
X99000000Y-47310000D03*
D11*
X99000000Y-39690000D03*
D12*
X60960000Y-43000000D03*
D13*
X63500000Y-43000000D03*
D23*
X61792500Y-113310000D03*
X61792500Y-110770000D03*
X61792500Y-108230000D03*
X69412500Y-120930000D03*
X71952500Y-120930000D03*
X74492500Y-120930000D03*
D24*
X64332500Y-104102500D03*
X64332500Y-117437500D03*
X79572500Y-117437500D03*
X79572500Y-104102500D03*
D23*
X68777500Y-103150000D03*
X75127500Y-103150000D03*
X68777500Y-98070000D03*
X75127500Y-98070000D03*
D12*
X130725000Y-118500000D03*
D13*
X133265000Y-118500000D03*
D25*
X56943800Y-49065000D03*
D26*
X62023800Y-49065000D03*
D15*
X85000000Y-50460000D03*
D16*
X85000000Y-53000000D03*
D27*
X161290000Y-41910000D03*
X161290000Y-123190000D03*
X54610000Y-41910000D03*
D10*
X136500000Y-56000000D03*
D11*
X128880000Y-56000000D03*
D27*
X54610000Y-123190000D03*
D28*
X71500000Y-90000000D03*
D29*
X76580000Y-90000000D03*
D10*
X80880000Y-58000000D03*
D11*
X88500000Y-58000000D03*
D12*
X130725000Y-124000000D03*
D13*
X133265000Y-124000000D03*
D15*
X116960000Y-43380000D03*
D16*
X119500000Y-43380000D03*
D28*
X71500000Y-79500000D03*
D29*
X76580000Y-79500000D03*
D23*
X136292500Y-111810000D03*
X136292500Y-109270000D03*
X136292500Y-106730000D03*
X143912500Y-119430000D03*
X146452500Y-119430000D03*
X148992500Y-119430000D03*
D24*
X138832500Y-102602500D03*
X138832500Y-115937500D03*
X154072500Y-115937500D03*
X154072500Y-102602500D03*
D23*
X143277500Y-101650000D03*
X149627500Y-101650000D03*
X143277500Y-96570000D03*
X149627500Y-96570000D03*
D19*
X149250000Y-78250000D03*
X155750000Y-78250000D03*
X149250000Y-82750000D03*
X155750000Y-82750000D03*
D10*
X124000000Y-47500000D03*
D11*
X124000000Y-39880000D03*
D10*
X136500000Y-60000000D03*
D11*
X128880000Y-60000000D03*
D10*
X111500000Y-47120000D03*
D11*
X111500000Y-39500000D03*
D10*
X55690000Y-54500000D03*
D11*
X63310000Y-54500000D03*
D10*
X136500000Y-48000000D03*
D11*
X128880000Y-48000000D03*
D10*
X68500000Y-54500000D03*
D11*
X76120000Y-54500000D03*
D10*
X136500000Y-52000000D03*
D11*
X128880000Y-52000000D03*
D19*
X146250000Y-90750000D03*
X139750000Y-90750000D03*
X146250000Y-86250000D03*
X139750000Y-86250000D03*
D10*
X68500000Y-46500000D03*
D11*
X76120000Y-46500000D03*
D14*
X53500000Y-101000000D03*
D13*
X53500000Y-103540000D03*
D15*
X85000000Y-76000000D03*
D16*
X85000000Y-78540000D03*
D15*
X91460000Y-43500000D03*
D16*
X94000000Y-43500000D03*
D14*
X85500000Y-90920000D03*
D13*
X85500000Y-93460000D03*
X85500000Y-96000000D03*
D15*
X103960000Y-43500000D03*
D16*
X106500000Y-43500000D03*
D10*
X81380000Y-71000000D03*
D11*
X89000000Y-71000000D03*
D30*
X95570000Y-102400000D03*
D23*
X98110000Y-102400000D03*
X100650000Y-102400000D03*
X103190000Y-102400000D03*
X105730000Y-102400000D03*
X108270000Y-102400000D03*
X110810000Y-102400000D03*
X113350000Y-102400000D03*
X115890000Y-102400000D03*
X118430000Y-102400000D03*
D31*
X106500000Y-65780000D03*
D32*
X109040000Y-65780000D03*
X111580000Y-65780000D03*
X114120000Y-65780000D03*
X116660000Y-65780000D03*
X119200000Y-65780000D03*
X121740000Y-65780000D03*
X124280000Y-65780000D03*
X126820000Y-65780000D03*
X129360000Y-65780000D03*
X106500000Y-111500000D03*
X109040000Y-111500000D03*
X111580000Y-111500000D03*
X114120000Y-111500000D03*
X116660000Y-111500000D03*
X119200000Y-111500000D03*
X121740000Y-111500000D03*
X124280000Y-111500000D03*
X126820000Y-111500000D03*
X129360000Y-111500000D03*
X106500000Y-68320000D03*
X109040000Y-68320000D03*
X111580000Y-68320000D03*
X114120000Y-68320000D03*
X116660000Y-68320000D03*
X119200000Y-68320000D03*
X121740000Y-68320000D03*
X124280000Y-68320000D03*
X126820000Y-68320000D03*
X129360000Y-68320000D03*
X106500000Y-108960000D03*
X109040000Y-108960000D03*
X111580000Y-108960000D03*
X114120000Y-108960000D03*
X116660000Y-108960000D03*
X119200000Y-108960000D03*
X121740000Y-108960000D03*
X124280000Y-108960000D03*
X126820000Y-108960000D03*
X129360000Y-108960000D03*
D33*
X110310000Y-82463200D03*
X83017400Y-105685900D03*
X83848300Y-107915900D03*
X97430800Y-68302400D03*
X125550100Y-48924600D03*
X122002400Y-57600900D03*
X116660000Y-94171000D03*
X113088300Y-38920300D03*
X73353300Y-72032000D03*
X126820000Y-113770600D03*
X81015500Y-113770600D03*
X123383600Y-46330500D03*
X133450200Y-63131000D03*
X141008400Y-62467200D03*
X112591700Y-78675000D03*
X83672500Y-71051600D03*
X61308600Y-69139200D03*
X125300900Y-104441100D03*
X101585500Y-100746500D03*
D34*
X71168300Y-50500000D02*
X68500000Y-50500000D01*
X75168300Y-46500000D02*
X71168300Y-50500000D01*
X76120000Y-46500000D02*
X75168300Y-46500000D01*
X64895000Y-93246700D02*
X65300000Y-93246700D01*
X54601700Y-103540000D02*
X64895000Y-93246700D01*
X53500000Y-103540000D02*
X54601700Y-103540000D01*
X65300000Y-91795000D02*
X65300000Y-93246700D01*
X140148300Y-104779200D02*
X143277500Y-101650000D01*
X131000800Y-104779200D02*
X140148300Y-104779200D01*
X126820000Y-108960000D02*
X131000800Y-104779200D01*
X149627500Y-101650000D02*
X143277500Y-101650000D01*
X124320400Y-106460400D02*
X126820000Y-108960000D01*
X122711900Y-106460400D02*
X124320400Y-106460400D01*
X120235000Y-103983500D02*
X122711900Y-106460400D01*
X107313500Y-103983500D02*
X120235000Y-103983500D01*
X105730000Y-102400000D02*
X107313500Y-103983500D01*
X81916800Y-82463200D02*
X110310000Y-82463200D01*
X80880000Y-83500000D02*
X81916800Y-82463200D01*
X124000000Y-39880000D02*
X123048300Y-39880000D01*
X119548300Y-43380000D02*
X123048300Y-39880000D01*
X119500000Y-43380000D02*
X119548300Y-43380000D01*
X118041700Y-110341700D02*
X116660000Y-108960000D01*
X135220800Y-110341700D02*
X118041700Y-110341700D01*
X136292500Y-109270000D02*
X135220800Y-110341700D01*
X112386900Y-104686900D02*
X116660000Y-108960000D01*
X103848900Y-104686900D02*
X112386900Y-104686900D01*
X102049300Y-102887300D02*
X103848900Y-104686900D01*
X102049300Y-102170700D02*
X102049300Y-102887300D01*
X96980300Y-97101700D02*
X102049300Y-102170700D01*
X85015200Y-97101700D02*
X96980300Y-97101700D01*
X84397000Y-96483500D02*
X85015200Y-97101700D01*
X84397000Y-95527000D02*
X84397000Y-96483500D01*
X85362300Y-94561700D02*
X84397000Y-95527000D01*
X85500000Y-94561700D02*
X85362300Y-94561700D01*
X85500000Y-93460000D02*
X85500000Y-94561700D01*
X110845900Y-105685900D02*
X114120000Y-108960000D01*
X83017400Y-105685900D02*
X110845900Y-105685900D01*
X110535900Y-107915900D02*
X111580000Y-108960000D01*
X83848300Y-107915900D02*
X110535900Y-107915900D01*
X76120000Y-62500000D02*
X76120000Y-63451700D01*
X75001900Y-64569800D02*
X76120000Y-63451700D01*
X75001900Y-66849000D02*
X75001900Y-64569800D01*
X76455300Y-68302400D02*
X75001900Y-66849000D01*
X97430800Y-68302400D02*
X76455300Y-68302400D01*
X113304600Y-48924600D02*
X125550100Y-48924600D01*
X111500000Y-47120000D02*
X113304600Y-48924600D01*
X109290900Y-57600900D02*
X122002400Y-57600900D01*
X99000000Y-47310000D02*
X109290900Y-57600900D01*
X145750000Y-69750000D02*
X139250000Y-69750000D01*
X123170000Y-69750000D02*
X121740000Y-68320000D01*
X139250000Y-69750000D02*
X123170000Y-69750000D01*
X85500000Y-96000000D02*
X86601700Y-96000000D01*
X88430700Y-94171000D02*
X116660000Y-94171000D01*
X86601700Y-96000000D02*
X88430700Y-94171000D01*
X87851700Y-121750000D02*
X86101700Y-123500000D01*
X90605000Y-121750000D02*
X87851700Y-121750000D01*
X85550900Y-123500000D02*
X86101700Y-123500000D01*
X85550900Y-123500000D02*
X85000000Y-123500000D01*
X85000000Y-123500000D02*
X82460000Y-123500000D01*
X143000000Y-42500000D02*
X141898300Y-42500000D01*
X138456300Y-38920300D02*
X113088300Y-38920300D01*
X141898300Y-42362300D02*
X138456300Y-38920300D01*
X141898300Y-42500000D02*
X141898300Y-42362300D01*
X107868000Y-72032000D02*
X73353300Y-72032000D01*
X111580000Y-68320000D02*
X107868000Y-72032000D01*
X68777500Y-103150000D02*
X75127500Y-103150000D01*
X82114100Y-110136600D02*
X75127500Y-103150000D01*
X111650000Y-110136600D02*
X82114100Y-110136600D01*
X112850100Y-111336700D02*
X111650000Y-110136600D01*
X112850100Y-111660900D02*
X112850100Y-111336700D01*
X113706900Y-112517700D02*
X112850100Y-111660900D01*
X128342300Y-112517700D02*
X113706900Y-112517700D01*
X129360000Y-111500000D02*
X128342300Y-112517700D01*
X81015500Y-113770600D02*
X126820000Y-113770600D01*
X62074200Y-110488300D02*
X61792500Y-110770000D01*
X110568300Y-110488300D02*
X62074200Y-110488300D01*
X111580000Y-111500000D02*
X110568300Y-110488300D01*
X76120000Y-50500000D02*
X77071700Y-50500000D01*
X123190200Y-46137100D02*
X123383600Y-46330500D01*
X81434600Y-46137100D02*
X123190200Y-46137100D01*
X77071700Y-50500000D02*
X81434600Y-46137100D01*
X79154600Y-60702900D02*
X76951700Y-58500000D01*
X107971600Y-60702900D02*
X79154600Y-60702900D01*
X112850100Y-65581400D02*
X107971600Y-60702900D01*
X112850100Y-65986600D02*
X112850100Y-65581400D01*
X113685800Y-66822300D02*
X112850100Y-65986600D01*
X125777700Y-66822300D02*
X113685800Y-66822300D01*
X126820000Y-65780000D02*
X125777700Y-66822300D01*
X76000000Y-58500000D02*
X76951700Y-58500000D01*
X155750000Y-78250000D02*
X149250000Y-78250000D01*
X126929000Y-63131000D02*
X133450200Y-63131000D01*
X124280000Y-65780000D02*
X126929000Y-63131000D01*
X122512800Y-62467200D02*
X141008400Y-62467200D01*
X119200000Y-65780000D02*
X122512800Y-62467200D01*
X146250000Y-86250000D02*
X139750000Y-86250000D01*
X117228100Y-65780000D02*
X116660000Y-65780000D01*
X131008100Y-52000000D02*
X117228100Y-65780000D01*
X136500000Y-52000000D02*
X131008100Y-52000000D01*
X140460000Y-42500000D02*
X139358300Y-42500000D01*
X139358300Y-43117900D02*
X139358300Y-42500000D01*
X125187800Y-57288400D02*
X139358300Y-43117900D01*
X123236500Y-57288400D02*
X125187800Y-57288400D01*
X114744900Y-65780000D02*
X123236500Y-57288400D01*
X114120000Y-65780000D02*
X114744900Y-65780000D01*
X106548300Y-43500000D02*
X110548300Y-39500000D01*
X106500000Y-43500000D02*
X106548300Y-43500000D01*
X111500000Y-39500000D02*
X110548300Y-39500000D01*
X135250000Y-78750000D02*
X128750000Y-78750000D01*
X128675000Y-78675000D02*
X112591700Y-78675000D01*
X128750000Y-78750000D02*
X128675000Y-78675000D01*
X60960000Y-43000000D02*
X63500000Y-43000000D01*
X68000000Y-43000000D02*
X68500000Y-42500000D01*
X63500000Y-43000000D02*
X68000000Y-43000000D01*
X82149900Y-69529000D02*
X83672500Y-71051600D01*
X69351000Y-69529000D02*
X82149900Y-69529000D01*
X68380000Y-70500000D02*
X69351000Y-69529000D01*
X63443300Y-79500000D02*
X60220000Y-82723300D01*
X71500000Y-79500000D02*
X63443300Y-79500000D01*
X60220000Y-84175000D02*
X60220000Y-82723300D01*
X105680800Y-69139200D02*
X61308600Y-69139200D01*
X106500000Y-68320000D02*
X105680800Y-69139200D01*
X105125200Y-104335200D02*
X103190000Y-102400000D01*
X116065200Y-104335200D02*
X105125200Y-104335200D01*
X120470000Y-108740000D02*
X116065200Y-104335200D01*
X120470000Y-109187200D02*
X120470000Y-108740000D01*
X121272800Y-109990000D02*
X120470000Y-109187200D01*
X128330000Y-109990000D02*
X121272800Y-109990000D01*
X129360000Y-108960000D02*
X128330000Y-109990000D01*
X121189900Y-104441100D02*
X125300900Y-104441100D01*
X120380600Y-103631800D02*
X121189900Y-104441100D01*
X109501800Y-103631800D02*
X120380600Y-103631800D01*
X108270000Y-102400000D02*
X109501800Y-103631800D01*
X115151900Y-110468100D02*
X114120000Y-111500000D01*
X115151900Y-108496000D02*
X115151900Y-110468100D01*
X111694500Y-105038600D02*
X115151900Y-108496000D01*
X103288600Y-105038600D02*
X111694500Y-105038600D01*
X100650000Y-102400000D02*
X103288600Y-105038600D01*
X149627500Y-96570000D02*
X143277500Y-96570000D01*
X135296700Y-119430000D02*
X134366700Y-118500000D01*
X143912500Y-119430000D02*
X135296700Y-119430000D01*
X133265000Y-118500000D02*
X134366700Y-118500000D01*
X75127500Y-98070000D02*
X68777500Y-98070000D01*
X93780000Y-98070000D02*
X98110000Y-102400000D01*
X75127500Y-98070000D02*
X93780000Y-98070000D01*
X130475000Y-118250000D02*
X130725000Y-118500000D01*
X123605000Y-118250000D02*
X130475000Y-118250000D01*
X146250000Y-90750000D02*
X139750000Y-90750000D01*
X155750000Y-82750000D02*
X149250000Y-82750000D01*
X145750000Y-74250000D02*
X139250000Y-74250000D01*
X135250000Y-83250000D02*
X128750000Y-83250000D01*
X148750000Y-83250000D02*
X149250000Y-82750000D01*
X135250000Y-83250000D02*
X148750000Y-83250000D01*
X133265000Y-118500000D02*
X130725000Y-118500000D01*
X118584700Y-74250000D02*
X139250000Y-74250000D01*
X112850100Y-68515400D02*
X118584700Y-74250000D01*
X112850100Y-68113500D02*
X112850100Y-68515400D01*
X111528300Y-66791700D02*
X112850100Y-68113500D01*
X108523400Y-66791700D02*
X111528300Y-66791700D01*
X107511700Y-65780000D02*
X108523400Y-66791700D01*
X106500000Y-65780000D02*
X107511700Y-65780000D01*
X116776500Y-100746500D02*
X101585500Y-100746500D01*
X118430000Y-102400000D02*
X116776500Y-100746500D01*
X92611700Y-43212000D02*
X92611700Y-43500000D01*
X93475400Y-42348300D02*
X92611700Y-43212000D01*
X101656600Y-42348300D02*
X93475400Y-42348300D01*
X102808300Y-43500000D02*
X101656600Y-42348300D01*
X103960000Y-43500000D02*
X102808300Y-43500000D01*
X91460000Y-43500000D02*
X92611700Y-43500000D01*
X116960000Y-43380000D02*
X115808300Y-43380000D01*
X103960000Y-43500000D02*
X105111700Y-43500000D01*
X80348300Y-79500000D02*
X83848300Y-76000000D01*
X76580000Y-79500000D02*
X80348300Y-79500000D01*
X85000000Y-76000000D02*
X83848300Y-76000000D01*
X128880000Y-48000000D02*
X127928300Y-48000000D01*
X137920000Y-42500000D02*
X136818300Y-42500000D01*
X127928300Y-48000000D02*
X127928300Y-45658300D01*
X118086600Y-45658300D02*
X127928300Y-45658300D01*
X115808300Y-43380000D02*
X118086600Y-45658300D01*
X133660000Y-45658300D02*
X136818300Y-42500000D01*
X127928300Y-45658300D02*
X133660000Y-45658300D01*
X86798300Y-120930000D02*
X89478300Y-118250000D01*
X74492500Y-120930000D02*
X86798300Y-120930000D01*
X90605000Y-118250000D02*
X89478300Y-118250000D01*
X73356700Y-82723300D02*
X76580000Y-79500000D01*
X65300000Y-82723300D02*
X73356700Y-82723300D01*
X65300000Y-84175000D02*
X65300000Y-82723300D01*
X135206400Y-112896100D02*
X136292500Y-111810000D01*
X107896100Y-112896100D02*
X135206400Y-112896100D01*
X106500000Y-111500000D02*
X107896100Y-112896100D01*
X114536600Y-44651700D02*
X115808300Y-43380000D01*
X105975400Y-44651700D02*
X114536600Y-44651700D01*
X105111700Y-43788000D02*
X105975400Y-44651700D01*
X105111700Y-43500000D02*
X105111700Y-43788000D01*
X144422500Y-124000000D02*
X133265000Y-124000000D01*
X148992500Y-119430000D02*
X144422500Y-124000000D01*
X133265000Y-124000000D02*
X130725000Y-124000000D01*
M02*
