M48
; DRILL file {KiCad 9.0.0} date 2025-03-23T13:33:15-0500
; FORMAT={-:-/ absolute / metric / decimal}
; #@! TF.CreationDate,2025-03-23T13:33:15-05:00
; #@! TF.GenerationSoftware,Kicad,Pcbnew,9.0.0
; #@! TF.FileFunction,Plated,1,2,PTH
FMAT,2
METRIC
; #@! TA.AperFunction,Plated,PTH,ViaDrill
T1C0.400
; #@! TA.AperFunction,Plated,PTH,ComponentDrill
T2C0.700
; #@! TA.AperFunction,Plated,PTH,ComponentDrill
T3C0.800
; #@! TA.AperFunction,Plated,PTH,ComponentDrill
T4C0.890
; #@! TA.AperFunction,Plated,PTH,ComponentDrill
T5C0.900
; #@! TA.AperFunction,Plated,PTH,ComponentDrill
T6C1.000
; #@! TA.AperFunction,Plated,PTH,ComponentDrill
T7C1.016
; #@! TA.AperFunction,Plated,PTH,ComponentDrill
T8C1.100
; #@! TA.AperFunction,Plated,PTH,ComponentDrill
T9C1.200
; #@! TA.AperFunction,Plated,PTH,ComponentDrill
T10C1.270
; #@! TA.AperFunction,Plated,PTH,ComponentDrill
T11C1.397
; #@! TA.AperFunction,Plated,PTH,ComponentDrill
T12C3.175
%
G90
G05
T1
X61.309Y-69.139
X73.353Y-72.032
X81.016Y-113.771
X83.017Y-105.686
X83.672Y-71.052
X83.848Y-107.916
X97.431Y-68.302
X101.585Y-100.746
X110.31Y-82.463
X112.592Y-78.675
X113.088Y-38.92
X116.66Y-94.171
X122.002Y-57.601
X123.384Y-46.331
X125.301Y-104.441
X125.55Y-48.925
X126.82Y-113.771
X133.45Y-63.131
X141.008Y-62.467
T2
X55.69Y-54.5
X56.0Y-64.69
X56.0Y-72.31
X63.31Y-54.5
X68.38Y-58.5
X68.38Y-66.5
X68.38Y-70.5
X68.5Y-42.5
X68.5Y-46.5
X68.5Y-50.5
X68.5Y-54.5
X68.5Y-62.5
X76.0Y-58.5
X76.0Y-66.5
X76.0Y-70.5
X76.12Y-42.5
X76.12Y-46.5
X76.12Y-50.5
X76.12Y-54.5
X76.12Y-62.5
X80.88Y-58.0
X80.88Y-83.5
X81.38Y-71.0
X88.5Y-58.0
X88.5Y-83.5
X89.0Y-71.0
X99.0Y-39.69
X99.0Y-47.31
X111.5Y-39.5
X111.5Y-47.12
X124.0Y-39.88
X124.0Y-47.5
X128.88Y-48.0
X128.88Y-52.0
X128.88Y-56.0
X128.88Y-60.0
X136.5Y-48.0
X136.5Y-52.0
X136.5Y-56.0
X136.5Y-60.0
T3
X56.944Y-49.065
X57.68Y-84.175
X57.68Y-91.795
X60.22Y-84.175
X60.22Y-91.795
X62.024Y-49.065
X62.76Y-84.175
X62.76Y-91.795
X65.3Y-84.175
X65.3Y-91.795
T4
X106.5Y-65.78
X106.5Y-68.32
X106.5Y-108.96
X106.5Y-111.5
X109.04Y-65.78
X109.04Y-68.32
X109.04Y-108.96
X109.04Y-111.5
X111.58Y-65.78
X111.58Y-68.32
X111.58Y-108.96
X111.58Y-111.5
X114.12Y-65.78
X114.12Y-68.32
X114.12Y-108.96
X114.12Y-111.5
X116.66Y-65.78
X116.66Y-68.32
X116.66Y-108.96
X116.66Y-111.5
X119.2Y-65.78
X119.2Y-68.32
X119.2Y-108.96
X119.2Y-111.5
X121.74Y-65.78
X121.74Y-68.32
X121.74Y-108.96
X121.74Y-111.5
X124.28Y-65.78
X124.28Y-68.32
X124.28Y-108.96
X124.28Y-111.5
X126.82Y-65.78
X126.82Y-68.32
X126.82Y-108.96
X126.82Y-111.5
X129.36Y-65.78
X129.36Y-68.32
X129.36Y-108.96
X129.36Y-111.5
T5
X85.0Y-50.46
X85.0Y-53.0
X85.0Y-63.5
X85.0Y-66.04
X85.0Y-76.0
X85.0Y-78.54
X91.46Y-43.5
X94.0Y-43.5
X103.96Y-43.5
X106.5Y-43.5
X116.96Y-43.38
X119.5Y-43.38
T6
X53.5Y-101.0
X53.5Y-103.54
X60.96Y-43.0
X63.5Y-43.0
X82.46Y-123.5
X85.0Y-123.5
X85.5Y-90.92
X85.5Y-93.46
X85.5Y-96.0
X130.725Y-118.5
X130.725Y-124.0
X133.265Y-118.5
X133.265Y-124.0
X137.92Y-42.5
X140.46Y-42.5
X143.0Y-42.5
T7
X61.792Y-108.23
X61.792Y-110.77
X61.792Y-113.31
X68.778Y-98.07
X68.778Y-103.15
X69.412Y-120.93
X71.953Y-120.93
X74.492Y-120.93
X75.127Y-98.07
X75.127Y-103.15
X95.57Y-102.4
X98.11Y-102.4
X100.65Y-102.4
X103.19Y-102.4
X105.73Y-102.4
X108.27Y-102.4
X110.81Y-102.4
X113.35Y-102.4
X115.89Y-102.4
X118.43Y-102.4
X136.292Y-106.73
X136.292Y-109.27
X136.292Y-111.81
X143.278Y-96.57
X143.278Y-101.65
X143.912Y-119.43
X146.452Y-119.43
X148.993Y-119.43
X149.627Y-96.57
X149.627Y-101.65
T8
X128.75Y-78.75
X128.75Y-83.25
X135.25Y-78.75
X135.25Y-83.25
X139.25Y-69.75
X139.25Y-74.25
X139.75Y-86.25
X139.75Y-90.75
X145.75Y-69.75
X145.75Y-74.25
X146.25Y-86.25
X146.25Y-90.75
X149.25Y-78.25
X149.25Y-82.75
X155.75Y-78.25
X155.75Y-82.75
T9
X90.605Y-118.25
X90.605Y-121.75
X123.605Y-118.25
T10
X71.5Y-79.5
X71.5Y-90.0
X76.58Y-79.5
X76.58Y-90.0
T11
X64.332Y-104.102
X64.332Y-117.438
X79.572Y-104.102
X79.572Y-117.438
X138.832Y-102.602
X138.832Y-115.938
X154.072Y-102.602
X154.072Y-115.938
T12
X54.61Y-41.91
X54.61Y-123.19
X161.29Y-41.91
X161.29Y-123.19
M30
